<mxfile host="Electron" modified="2023-12-29T22:42:30.252Z" agent="Mozilla/5.0 (Windows NT 10.0; Win64; x64) AppleWebKit/537.36 (KHTML, like Gecko) draw.io/22.1.16 Chrome/120.0.6099.109 Electron/28.1.0 Safari/537.36" etag="DR86XEWke32IaOQYLLux" version="22.1.16" type="device">
  <diagram id="_DRUn5a--Bsbf812iT7-" name="Page-1">
    <mxGraphModel dx="1102" dy="573" grid="0" gridSize="10" guides="1" tooltips="1" connect="1" arrows="1" fold="1" page="1" pageScale="1" pageWidth="827" pageHeight="1169" background="#4D5766" math="0" shadow="1">
      <root>
        <mxCell id="0" />
        <mxCell id="1" parent="0" />
        <mxCell id="9zTi3nsKfj2Z9hqAuiEz-421" value="" style="rounded=0;whiteSpace=wrap;html=1;" parent="1" vertex="1">
          <mxGeometry x="743" y="293" width="60" height="111" as="geometry" />
        </mxCell>
        <mxCell id="9zTi3nsKfj2Z9hqAuiEz-422" value="eth1" style="whiteSpace=wrap;html=1;fontFamily=Manrope;fontSource=https%3A%2F%2Ffonts.googleapis.com%2Fcss%3Ffamily%3DManrope;fontSize=6;align=center;fillColor=#BEC8D2;fontColor=#FFFFFF;strokeColor=#98A2AE;perimeterSpacing=0;rounded=1;" parent="1" vertex="1">
          <mxGeometry x="768" y="334" width="14" height="6" as="geometry" />
        </mxCell>
        <mxCell id="9zTi3nsKfj2Z9hqAuiEz-423" value="" style="rounded=1;whiteSpace=wrap;html=1;strokeColor=none;arcSize=2;" parent="1" vertex="1">
          <mxGeometry x="763" y="303.99000000000007" width="23" height="13.59" as="geometry" />
        </mxCell>
        <mxCell id="9zTi3nsKfj2Z9hqAuiEz-424" value="" style="shape=image;editableCssRules=\.color;verticalLabelPosition=bottom;labelBackgroundColor=#ffffff;verticalAlign=top;aspect=fixed;imageAspect=0;image=data:image/svg+xml,PHN2ZyB4bWxucz0iaHR0cDovL3d3dy53My5vcmcvMjAwMC9zdmciIHhtbG5zOnhsaW5rPSJodHRwOi8vd3d3LnczLm9yZy8xOTk5L3hsaW5rIiB2aWV3Qm94PSIwIDAgMTMxIDgxIiBmaWxsPSIjZmZmIiBmaWxsLXJ1bGU9ImV2ZW5vZGQiIHN0cm9rZT0iIzAwMCIgc3Ryb2tlLWxpbmVjYXA9InJvdW5kIiBzdHJva2UtbGluZWpvaW49InJvdW5kIj48dXNlIHhsaW5rOmhyZWY9IiNBIiB4PSIuNSIgeT0iLjUiLz48c3ltYm9sIGlkPSJBIiBvdmVyZmxvdz0idmlzaWJsZSI+PHBhdGggY2xhc3M9ImNvbG9yIiBkPSJNMTE5LjA3OCA2Mi43MDNWNy4yNzVjMC0yLjc0Ni0yLjU0LTcuMjc1LTUuNTgtNy4yNzVIMTYuNDc1Yy0zLjA0IDAtNi4wOCA0LjUzLTYuMDggNy4yNzV2NTUuNDI3Qy0uNDk4IDc0LjI0NC4wMDQgNzQuMjQ0LjAwNCA3NC4yNDQuMDA0IDc3LjUxNiAzLjA0NCA4MCA2Ljg1MiA4MGgxMTYuM2MzLjgwOCAwIDYuODQ4LTIuNzQ3IDYuODQ4LTUuNzU2bC0xMC45MjItMTEuNTR6TTczLjk3NSA3NS4yMzdoLTIwLjI4Yy0xLjAwNCAwLTIuMDM3LS40OTctMi4wMzctLjk5M2wyLjI3My0zLjc3YzAtLjQ5Ny43NjctLjc2IDEuNzctLjc2SDcxLjkxYy43NjcgMCAxLjUzNS4yNjMgMS41MzUuNzZsMi41NCAzLjc3Yy4wMy43My0xLjAwNC45OTMtMi4wMDcuOTkzaDB6bTQwLjI5Mi0xMi43OThIMTUuMjA1VjcuNzcyYzAtMS4yNTYgMS4yNy0zLjAxIDIuNzc1LTMuMDFoOTMuNzVjMS41MzUgMCAyLjU0IDEuNzUzIDIuNTQgM1Y2Mi40NHoiIGZpbGw9IiMyYTMyODIiIHN0cm9rZT0ibm9uZSIvPjwvc3ltYm9sPjxzdHlsZSB0eXBlPSJ0ZXh0L2NzcyI+LmNvbG9yIHsgZmlsbDogcmdiKDAsIDE3LCA1Myk7IH0gPC9zdHlsZT48L3N2Zz4=;" parent="1" vertex="1">
          <mxGeometry x="759" y="302.14000000000004" width="31.197407407407447" height="19.290000000000017" as="geometry" />
        </mxCell>
        <mxCell id="9zTi3nsKfj2Z9hqAuiEz-425" value="" style="shape=image;verticalLabelPosition=bottom;labelBackgroundColor=#ffffff;verticalAlign=top;aspect=fixed;imageAspect=0;image=data:image/svg+xml,PHN2ZyB4bWxucz0iaHR0cDovL3d3dy53My5vcmcvMjAwMC9zdmciIHhtbG5zOnhsaW5rPSJodHRwOi8vd3d3LnczLm9yZy8xOTk5L3hsaW5rIiB2aWV3Qm94PSIwIDAgNjUgNTciIGZpbGw9IiNmZmYiIGZpbGwtcnVsZT0iZXZlbm9kZCIgc3Ryb2tlPSIjMDAwIiBzdHJva2UtbGluZWNhcD0icm91bmQiIHN0cm9rZS1saW5lam9pbj0icm91bmQiPjx1c2UgeGxpbms6aHJlZj0iI0EiIHg9Ii41IiB5PSIuNSIvPjxzeW1ib2wgaWQ9IkEiIG92ZXJmbG93PSJ2aXNpYmxlIj48ZyBzdHJva2U9Im5vbmUiIGZpbGw9IiMwZDU5N2YiIGZpbGwtcnVsZT0ibm9uemVybyI+PHBhdGggZD0iTTIzLjI1MiAzNC41Mjd2LTYuNzQ1bC00Ljg1NSA0Ljg2NGMuNDc0LjMzMy45NjguNjM1IDEuNDguOTA2LjQ2My4yNDMuODcuNDM0IDEuMzAzLjU4YTcuOTcgNy45NyAwIDAgMCAxLjEzLjMwNGMuMzQ4LjA2NC42Ni4wOTMuOTUuMDk2bTI0LjgyMi0uNTYyYTEuMTcgMS4xNyAwIDAgMCAuMTQyLjFjLjEyMy4wNzguMjUyLjE0NS4zODUuMjAzYTIuOTMgMi45MyAwIDAgMCAuNjM3LjE5NGMuMjk2LjA2LjU5OC4wODguOS4wODdhNS44NCA1Ljg0IDAgMCAwIC45NTUtLjA4NyA3LjI0IDcuMjQgMCAwIDAgMS4xMzgtLjMwMWMuNDUzLS4xNi44OTUtLjM1NCAxLjMyLS41OC41Mi0uMjc0IDEuMDItLjU4IDEuNTAzLS45MThsLTMuNjg1LTMuNi0xMi4yLTEyLjI1OC01LjM1NiA1LjM1Ni03LjIzLTcuNDU1TDguNDQgMzIuNjQ3Yy40OC4zMzcuOTguNjQ0IDEuNS45MTguNDcuMjQ2LjkuNDM0IDEuMzE3LjU4YTcuMTggNy4xOCAwIDAgMCAxLjEzNS4zMDEgNS41MyA1LjUzIDAgMCAwIC45NTUuMDg3IDQuNTMgNC41MyAwIDAgMCAuOS0uMDg3IDMuMjkgMy4yOSAwIDAgMCAuNjM3LS4xOTRjLjEzNC0uMDU0LjI2My0uMTIuMzg1LS4xOTdsLjE0NS0uMTA0IDguMTkzLTguMTkzIDIuOTI0LTIuODA4IDguMTA2IDguMTA2IDIuODM3IDIuOTEyYy4wNDYuMDM3LjA5NC4wNy4xNDUuMS4xMjIuMDc4LjI1LjE0NS4zODUuMmEzLjQ5IDMuNDkgMCAwIDAgLjYzNy4xOTRjLjI1NS4wNTIuNTU2LjA4Ny45MDMuMDg3YTUuODQgNS44NCAwIDAgMCAuOTU1LS4wODdjLjM4Ny0uMDY4Ljc2OC0uMTY4IDEuMTM4LS4zYTkuOTQgOS45NCAwIDAgMCAxLjMyLS41NzljLjUyLS4yNzQgMS4wMi0uNTggMS41MDMtLjkxOGwtNi41MDgtNi4zNyAxLjItMS4yIDUuNjMgNS42MyAzLjI4MyAzLjI1NE00Ny45OTYuMDJsMTUuOTk4IDI3LjcxNC0xNS45OSAyNy42OTRIMTUuOTk4TDAgMjcuNzE0IDE1Ljk5OCAweiIvPjxwYXRoIGQ9Ik0zOC4wMjIgMjYuMzY3TDMzLjc2IDIyLjExbC4zMDQtLjMwNCA0LjMgNC4yNDR6Ii8+PC9nPjwvc3ltYm9sPjwvc3ZnPg==;fontColor=#001135;" parent="1" vertex="1">
          <mxGeometry x="768.89" y="305.78" width="11.71" height="10.27" as="geometry" />
        </mxCell>
        <mxCell id="9zTi3nsKfj2Z9hqAuiEz-426" value="eth1" style="whiteSpace=wrap;html=1;fontFamily=Manrope;fontSource=https%3A%2F%2Ffonts.googleapis.com%2Fcss%3Ffamily%3DManrope;fontSize=6;align=center;fillColor=#BEC8D2;fontColor=#FFFFFF;strokeColor=#98A2AE;perimeterSpacing=0;rounded=1;" parent="1" vertex="1">
          <mxGeometry x="768" y="296.58" width="14" height="6" as="geometry" />
        </mxCell>
        <mxCell id="9zTi3nsKfj2Z9hqAuiEz-427" value="" style="shape=image;editableCssRules=\.color;verticalLabelPosition=bottom;labelBackgroundColor=#ffffff;verticalAlign=top;aspect=fixed;imageAspect=0;image=data:image/svg+xml,PHN2ZyB4bWxucz0iaHR0cDovL3d3dy53My5vcmcvMjAwMC9zdmciIHhtbG5zOnhsaW5rPSJodHRwOi8vd3d3LnczLm9yZy8xOTk5L3hsaW5rIiB2aWV3Qm94PSIwIDAgMTMxIDgxIiBmaWxsPSIjZmZmIiBmaWxsLXJ1bGU9ImV2ZW5vZGQiIHN0cm9rZT0iIzAwMCIgc3Ryb2tlLWxpbmVjYXA9InJvdW5kIiBzdHJva2UtbGluZWpvaW49InJvdW5kIj48dXNlIHhsaW5rOmhyZWY9IiNBIiB4PSIuNSIgeT0iLjUiLz48c3ltYm9sIGlkPSJBIiBvdmVyZmxvdz0idmlzaWJsZSI+PHBhdGggY2xhc3M9ImNvbG9yIiBkPSJNMTE5LjA3OCA2Mi43MDNWNy4yNzVjMC0yLjc0Ni0yLjU0LTcuMjc1LTUuNTgtNy4yNzVIMTYuNDc1Yy0zLjA0IDAtNi4wOCA0LjUzLTYuMDggNy4yNzV2NTUuNDI3Qy0uNDk4IDc0LjI0NC4wMDQgNzQuMjQ0LjAwNCA3NC4yNDQuMDA0IDc3LjUxNiAzLjA0NCA4MCA2Ljg1MiA4MGgxMTYuM2MzLjgwOCAwIDYuODQ4LTIuNzQ3IDYuODQ4LTUuNzU2bC0xMC45MjItMTEuNTR6TTczLjk3NSA3NS4yMzdoLTIwLjI4Yy0xLjAwNCAwLTIuMDM3LS40OTctMi4wMzctLjk5M2wyLjI3My0zLjc3YzAtLjQ5Ny43NjctLjc2IDEuNzctLjc2SDcxLjkxYy43NjcgMCAxLjUzNS4yNjMgMS41MzUuNzZsMi41NCAzLjc3Yy4wMy43My0xLjAwNC45OTMtMi4wMDcuOTkzaDB6bTQwLjI5Mi0xMi43OThIMTUuMjA1VjcuNzcyYzAtMS4yNTYgMS4yNy0zLjAxIDIuNzc1LTMuMDFoOTMuNzVjMS41MzUgMCAyLjU0IDEuNzUzIDIuNTQgM1Y2Mi40NHoiIGZpbGw9IiMyYTMyODIiIHN0cm9rZT0ibm9uZSIvPjwvc3ltYm9sPjxzdHlsZSB0eXBlPSJ0ZXh0L2NzcyI+LmNvbG9yIHsgZmlsbDogcmdiKDAsIDE3LCA1Myk7IH0gPC9zdHlsZT48L3N2Zz4=;" parent="1" vertex="1">
          <mxGeometry x="759" y="302.14000000000004" width="31.197407407407447" height="19.290000000000017" as="geometry" />
        </mxCell>
        <mxCell id="9zTi3nsKfj2Z9hqAuiEz-428" value="" style="shape=image;verticalLabelPosition=bottom;labelBackgroundColor=#ffffff;verticalAlign=top;aspect=fixed;imageAspect=0;image=data:image/svg+xml,PHN2ZyB4bWxucz0iaHR0cDovL3d3dy53My5vcmcvMjAwMC9zdmciIHhtbG5zOnhsaW5rPSJodHRwOi8vd3d3LnczLm9yZy8xOTk5L3hsaW5rIiB2aWV3Qm94PSIwIDAgNjUgNTciIGZpbGw9IiNmZmYiIGZpbGwtcnVsZT0iZXZlbm9kZCIgc3Ryb2tlPSIjMDAwIiBzdHJva2UtbGluZWNhcD0icm91bmQiIHN0cm9rZS1saW5lam9pbj0icm91bmQiPjx1c2UgeGxpbms6aHJlZj0iI0EiIHg9Ii41IiB5PSIuNSIvPjxzeW1ib2wgaWQ9IkEiIG92ZXJmbG93PSJ2aXNpYmxlIj48ZyBzdHJva2U9Im5vbmUiIGZpbGw9IiMwZDU5N2YiIGZpbGwtcnVsZT0ibm9uemVybyI+PHBhdGggZD0iTTIzLjI1MiAzNC41Mjd2LTYuNzQ1bC00Ljg1NSA0Ljg2NGMuNDc0LjMzMy45NjguNjM1IDEuNDguOTA2LjQ2My4yNDMuODcuNDM0IDEuMzAzLjU4YTcuOTcgNy45NyAwIDAgMCAxLjEzLjMwNGMuMzQ4LjA2NC42Ni4wOTMuOTUuMDk2bTI0LjgyMi0uNTYyYTEuMTcgMS4xNyAwIDAgMCAuMTQyLjFjLjEyMy4wNzguMjUyLjE0NS4zODUuMjAzYTIuOTMgMi45MyAwIDAgMCAuNjM3LjE5NGMuMjk2LjA2LjU5OC4wODguOS4wODdhNS44NCA1Ljg0IDAgMCAwIC45NTUtLjA4NyA3LjI0IDcuMjQgMCAwIDAgMS4xMzgtLjMwMWMuNDUzLS4xNi44OTUtLjM1NCAxLjMyLS41OC41Mi0uMjc0IDEuMDItLjU4IDEuNTAzLS45MThsLTMuNjg1LTMuNi0xMi4yLTEyLjI1OC01LjM1NiA1LjM1Ni03LjIzLTcuNDU1TDguNDQgMzIuNjQ3Yy40OC4zMzcuOTguNjQ0IDEuNS45MTguNDcuMjQ2LjkuNDM0IDEuMzE3LjU4YTcuMTggNy4xOCAwIDAgMCAxLjEzNS4zMDEgNS41MyA1LjUzIDAgMCAwIC45NTUuMDg3IDQuNTMgNC41MyAwIDAgMCAuOS0uMDg3IDMuMjkgMy4yOSAwIDAgMCAuNjM3LS4xOTRjLjEzNC0uMDU0LjI2My0uMTIuMzg1LS4xOTdsLjE0NS0uMTA0IDguMTkzLTguMTkzIDIuOTI0LTIuODA4IDguMTA2IDguMTA2IDIuODM3IDIuOTEyYy4wNDYuMDM3LjA5NC4wNy4xNDUuMS4xMjIuMDc4LjI1LjE0NS4zODUuMmEzLjQ5IDMuNDkgMCAwIDAgLjYzNy4xOTRjLjI1NS4wNTIuNTU2LjA4Ny45MDMuMDg3YTUuODQgNS44NCAwIDAgMCAuOTU1LS4wODdjLjM4Ny0uMDY4Ljc2OC0uMTY4IDEuMTM4LS4zYTkuOTQgOS45NCAwIDAgMCAxLjMyLS41NzljLjUyLS4yNzQgMS4wMi0uNTggMS41MDMtLjkxOGwtNi41MDgtNi4zNyAxLjItMS4yIDUuNjMgNS42MyAzLjI4MyAzLjI1NE00Ny45OTYuMDJsMTUuOTk4IDI3LjcxNC0xNS45OSAyNy42OTRIMTUuOTk4TDAgMjcuNzE0IDE1Ljk5OCAweiIvPjxwYXRoIGQ9Ik0zOC4wMjIgMjYuMzY3TDMzLjc2IDIyLjExbC4zMDQtLjMwNCA0LjMgNC4yNDR6Ii8+PC9nPjwvc3ltYm9sPjwvc3ZnPg==;fontColor=#001135;" parent="1" vertex="1">
          <mxGeometry x="768.89" y="305.78" width="11.71" height="10.27" as="geometry" />
        </mxCell>
        <mxCell id="9zTi3nsKfj2Z9hqAuiEz-429" value="eth1" style="whiteSpace=wrap;html=1;fontFamily=Manrope;fontSource=https%3A%2F%2Ffonts.googleapis.com%2Fcss%3Ffamily%3DManrope;fontSize=6;align=center;fillColor=#BEC8D2;fontColor=#FFFFFF;strokeColor=#98A2AE;perimeterSpacing=0;rounded=1;" parent="1" vertex="1">
          <mxGeometry x="768" y="296.58" width="14" height="6" as="geometry" />
        </mxCell>
        <mxCell id="9zTi3nsKfj2Z9hqAuiEz-430" value="" style="shape=image;editableCssRules=\.color;verticalLabelPosition=bottom;labelBackgroundColor=#ffffff;verticalAlign=top;aspect=fixed;imageAspect=0;image=data:image/svg+xml,PHN2ZyB4bWxucz0iaHR0cDovL3d3dy53My5vcmcvMjAwMC9zdmciIHhtbG5zOnhsaW5rPSJodHRwOi8vd3d3LnczLm9yZy8xOTk5L3hsaW5rIiB2aWV3Qm94PSIwIDAgMTMxIDgxIiBmaWxsPSIjZmZmIiBmaWxsLXJ1bGU9ImV2ZW5vZGQiIHN0cm9rZT0iIzAwMCIgc3Ryb2tlLWxpbmVjYXA9InJvdW5kIiBzdHJva2UtbGluZWpvaW49InJvdW5kIj48dXNlIHhsaW5rOmhyZWY9IiNBIiB4PSIuNSIgeT0iLjUiLz48c3ltYm9sIGlkPSJBIiBvdmVyZmxvdz0idmlzaWJsZSI+PHBhdGggY2xhc3M9ImNvbG9yIiBkPSJNMTE5LjA3OCA2Mi43MDNWNy4yNzVjMC0yLjc0Ni0yLjU0LTcuMjc1LTUuNTgtNy4yNzVIMTYuNDc1Yy0zLjA0IDAtNi4wOCA0LjUzLTYuMDggNy4yNzV2NTUuNDI3Qy0uNDk4IDc0LjI0NC4wMDQgNzQuMjQ0LjAwNCA3NC4yNDQuMDA0IDc3LjUxNiAzLjA0NCA4MCA2Ljg1MiA4MGgxMTYuM2MzLjgwOCAwIDYuODQ4LTIuNzQ3IDYuODQ4LTUuNzU2bC0xMC45MjItMTEuNTR6TTczLjk3NSA3NS4yMzdoLTIwLjI4Yy0xLjAwNCAwLTIuMDM3LS40OTctMi4wMzctLjk5M2wyLjI3My0zLjc3YzAtLjQ5Ny43NjctLjc2IDEuNzctLjc2SDcxLjkxYy43NjcgMCAxLjUzNS4yNjMgMS41MzUuNzZsMi41NCAzLjc3Yy4wMy43My0xLjAwNC45OTMtMi4wMDcuOTkzaDB6bTQwLjI5Mi0xMi43OThIMTUuMjA1VjcuNzcyYzAtMS4yNTYgMS4yNy0zLjAxIDIuNzc1LTMuMDFoOTMuNzVjMS41MzUgMCAyLjU0IDEuNzUzIDIuNTQgM1Y2Mi40NHoiIGZpbGw9IiMyYTMyODIiIHN0cm9rZT0ibm9uZSIvPjwvc3ltYm9sPjxzdHlsZSB0eXBlPSJ0ZXh0L2NzcyI+LmNvbG9yIHsgZmlsbDogcmdiKDAsIDE3LCA1Myk7IH0gPC9zdHlsZT48L3N2Zz4=;" parent="1" vertex="1">
          <mxGeometry x="759" y="302.14000000000004" width="31.197407407407447" height="19.290000000000017" as="geometry" />
        </mxCell>
        <mxCell id="9zTi3nsKfj2Z9hqAuiEz-431" value="" style="shape=image;verticalLabelPosition=bottom;labelBackgroundColor=#ffffff;verticalAlign=top;aspect=fixed;imageAspect=0;image=data:image/svg+xml,PHN2ZyB4bWxucz0iaHR0cDovL3d3dy53My5vcmcvMjAwMC9zdmciIHhtbG5zOnhsaW5rPSJodHRwOi8vd3d3LnczLm9yZy8xOTk5L3hsaW5rIiB2aWV3Qm94PSIwIDAgNjUgNTciIGZpbGw9IiNmZmYiIGZpbGwtcnVsZT0iZXZlbm9kZCIgc3Ryb2tlPSIjMDAwIiBzdHJva2UtbGluZWNhcD0icm91bmQiIHN0cm9rZS1saW5lam9pbj0icm91bmQiPjx1c2UgeGxpbms6aHJlZj0iI0EiIHg9Ii41IiB5PSIuNSIvPjxzeW1ib2wgaWQ9IkEiIG92ZXJmbG93PSJ2aXNpYmxlIj48ZyBzdHJva2U9Im5vbmUiIGZpbGw9IiMwZDU5N2YiIGZpbGwtcnVsZT0ibm9uemVybyI+PHBhdGggZD0iTTIzLjI1MiAzNC41Mjd2LTYuNzQ1bC00Ljg1NSA0Ljg2NGMuNDc0LjMzMy45NjguNjM1IDEuNDguOTA2LjQ2My4yNDMuODcuNDM0IDEuMzAzLjU4YTcuOTcgNy45NyAwIDAgMCAxLjEzLjMwNGMuMzQ4LjA2NC42Ni4wOTMuOTUuMDk2bTI0LjgyMi0uNTYyYTEuMTcgMS4xNyAwIDAgMCAuMTQyLjFjLjEyMy4wNzguMjUyLjE0NS4zODUuMjAzYTIuOTMgMi45MyAwIDAgMCAuNjM3LjE5NGMuMjk2LjA2LjU5OC4wODguOS4wODdhNS44NCA1Ljg0IDAgMCAwIC45NTUtLjA4NyA3LjI0IDcuMjQgMCAwIDAgMS4xMzgtLjMwMWMuNDUzLS4xNi44OTUtLjM1NCAxLjMyLS41OC41Mi0uMjc0IDEuMDItLjU4IDEuNTAzLS45MThsLTMuNjg1LTMuNi0xMi4yLTEyLjI1OC01LjM1NiA1LjM1Ni03LjIzLTcuNDU1TDguNDQgMzIuNjQ3Yy40OC4zMzcuOTguNjQ0IDEuNS45MTguNDcuMjQ2LjkuNDM0IDEuMzE3LjU4YTcuMTggNy4xOCAwIDAgMCAxLjEzNS4zMDEgNS41MyA1LjUzIDAgMCAwIC45NTUuMDg3IDQuNTMgNC41MyAwIDAgMCAuOS0uMDg3IDMuMjkgMy4yOSAwIDAgMCAuNjM3LS4xOTRjLjEzNC0uMDU0LjI2My0uMTIuMzg1LS4xOTdsLjE0NS0uMTA0IDguMTkzLTguMTkzIDIuOTI0LTIuODA4IDguMTA2IDguMTA2IDIuODM3IDIuOTEyYy4wNDYuMDM3LjA5NC4wNy4xNDUuMS4xMjIuMDc4LjI1LjE0NS4zODUuMmEzLjQ5IDMuNDkgMCAwIDAgLjYzNy4xOTRjLjI1NS4wNTIuNTU2LjA4Ny45MDMuMDg3YTUuODQgNS44NCAwIDAgMCAuOTU1LS4wODdjLjM4Ny0uMDY4Ljc2OC0uMTY4IDEuMTM4LS4zYTkuOTQgOS45NCAwIDAgMCAxLjMyLS41NzljLjUyLS4yNzQgMS4wMi0uNTggMS41MDMtLjkxOGwtNi41MDgtNi4zNyAxLjItMS4yIDUuNjMgNS42MyAzLjI4MyAzLjI1NE00Ny45OTYuMDJsMTUuOTk4IDI3LjcxNC0xNS45OSAyNy42OTRIMTUuOTk4TDAgMjcuNzE0IDE1Ljk5OCAweiIvPjxwYXRoIGQ9Ik0zOC4wMjIgMjYuMzY3TDMzLjc2IDIyLjExbC4zMDQtLjMwNCA0LjMgNC4yNDR6Ii8+PC9nPjwvc3ltYm9sPjwvc3ZnPg==;fontColor=#001135;" parent="1" vertex="1">
          <mxGeometry x="768.89" y="305.78" width="11.71" height="10.27" as="geometry" />
        </mxCell>
        <mxCell id="9zTi3nsKfj2Z9hqAuiEz-432" value="eth1" style="whiteSpace=wrap;html=1;fontFamily=Manrope;fontSource=https%3A%2F%2Ffonts.googleapis.com%2Fcss%3Ffamily%3DManrope;fontSize=6;align=center;fillColor=#BEC8D2;fontColor=#FFFFFF;strokeColor=#98A2AE;perimeterSpacing=0;rounded=1;" parent="1" vertex="1">
          <mxGeometry x="768" y="296.58" width="14" height="6" as="geometry" />
        </mxCell>
        <mxCell id="9zTi3nsKfj2Z9hqAuiEz-433" value="" style="rounded=1;whiteSpace=wrap;html=1;strokeColor=none;arcSize=2;" parent="1" vertex="1">
          <mxGeometry x="763" y="341.4100000000001" width="23" height="13.59" as="geometry" />
        </mxCell>
        <mxCell id="9zTi3nsKfj2Z9hqAuiEz-434" value="" style="shape=image;editableCssRules=\.color;verticalLabelPosition=bottom;labelBackgroundColor=#ffffff;verticalAlign=top;aspect=fixed;imageAspect=0;image=data:image/svg+xml,PHN2ZyB4bWxucz0iaHR0cDovL3d3dy53My5vcmcvMjAwMC9zdmciIHhtbG5zOnhsaW5rPSJodHRwOi8vd3d3LnczLm9yZy8xOTk5L3hsaW5rIiB2aWV3Qm94PSIwIDAgMTMxIDgxIiBmaWxsPSIjZmZmIiBmaWxsLXJ1bGU9ImV2ZW5vZGQiIHN0cm9rZT0iIzAwMCIgc3Ryb2tlLWxpbmVjYXA9InJvdW5kIiBzdHJva2UtbGluZWpvaW49InJvdW5kIj48dXNlIHhsaW5rOmhyZWY9IiNBIiB4PSIuNSIgeT0iLjUiLz48c3ltYm9sIGlkPSJBIiBvdmVyZmxvdz0idmlzaWJsZSI+PHBhdGggY2xhc3M9ImNvbG9yIiBkPSJNMTE5LjA3OCA2Mi43MDNWNy4yNzVjMC0yLjc0Ni0yLjU0LTcuMjc1LTUuNTgtNy4yNzVIMTYuNDc1Yy0zLjA0IDAtNi4wOCA0LjUzLTYuMDggNy4yNzV2NTUuNDI3Qy0uNDk4IDc0LjI0NC4wMDQgNzQuMjQ0LjAwNCA3NC4yNDQuMDA0IDc3LjUxNiAzLjA0NCA4MCA2Ljg1MiA4MGgxMTYuM2MzLjgwOCAwIDYuODQ4LTIuNzQ3IDYuODQ4LTUuNzU2bC0xMC45MjItMTEuNTR6TTczLjk3NSA3NS4yMzdoLTIwLjI4Yy0xLjAwNCAwLTIuMDM3LS40OTctMi4wMzctLjk5M2wyLjI3My0zLjc3YzAtLjQ5Ny43NjctLjc2IDEuNzctLjc2SDcxLjkxYy43NjcgMCAxLjUzNS4yNjMgMS41MzUuNzZsMi41NCAzLjc3Yy4wMy43My0xLjAwNC45OTMtMi4wMDcuOTkzaDB6bTQwLjI5Mi0xMi43OThIMTUuMjA1VjcuNzcyYzAtMS4yNTYgMS4yNy0zLjAxIDIuNzc1LTMuMDFoOTMuNzVjMS41MzUgMCAyLjU0IDEuNzUzIDIuNTQgM1Y2Mi40NHoiIGZpbGw9IiMyYTMyODIiIHN0cm9rZT0ibm9uZSIvPjwvc3ltYm9sPjxzdHlsZSB0eXBlPSJ0ZXh0L2NzcyI+LmNvbG9yIHsgZmlsbDogcmdiKDAsIDE3LCA1Myk7IH0gPC9zdHlsZT48L3N2Zz4=;" parent="1" vertex="1">
          <mxGeometry x="759" y="339.56000000000006" width="31.197407407407447" height="19.290000000000017" as="geometry" />
        </mxCell>
        <mxCell id="9zTi3nsKfj2Z9hqAuiEz-435" value="" style="shape=image;verticalLabelPosition=bottom;labelBackgroundColor=#ffffff;verticalAlign=top;aspect=fixed;imageAspect=0;image=data:image/svg+xml,PHN2ZyB4bWxucz0iaHR0cDovL3d3dy53My5vcmcvMjAwMC9zdmciIHhtbG5zOnhsaW5rPSJodHRwOi8vd3d3LnczLm9yZy8xOTk5L3hsaW5rIiB2aWV3Qm94PSIwIDAgNjUgNTciIGZpbGw9IiNmZmYiIGZpbGwtcnVsZT0iZXZlbm9kZCIgc3Ryb2tlPSIjMDAwIiBzdHJva2UtbGluZWNhcD0icm91bmQiIHN0cm9rZS1saW5lam9pbj0icm91bmQiPjx1c2UgeGxpbms6aHJlZj0iI0EiIHg9Ii41IiB5PSIuNSIvPjxzeW1ib2wgaWQ9IkEiIG92ZXJmbG93PSJ2aXNpYmxlIj48ZyBzdHJva2U9Im5vbmUiIGZpbGw9IiMwZDU5N2YiIGZpbGwtcnVsZT0ibm9uemVybyI+PHBhdGggZD0iTTIzLjI1MiAzNC41Mjd2LTYuNzQ1bC00Ljg1NSA0Ljg2NGMuNDc0LjMzMy45NjguNjM1IDEuNDguOTA2LjQ2My4yNDMuODcuNDM0IDEuMzAzLjU4YTcuOTcgNy45NyAwIDAgMCAxLjEzLjMwNGMuMzQ4LjA2NC42Ni4wOTMuOTUuMDk2bTI0LjgyMi0uNTYyYTEuMTcgMS4xNyAwIDAgMCAuMTQyLjFjLjEyMy4wNzguMjUyLjE0NS4zODUuMjAzYTIuOTMgMi45MyAwIDAgMCAuNjM3LjE5NGMuMjk2LjA2LjU5OC4wODguOS4wODdhNS44NCA1Ljg0IDAgMCAwIC45NTUtLjA4NyA3LjI0IDcuMjQgMCAwIDAgMS4xMzgtLjMwMWMuNDUzLS4xNi44OTUtLjM1NCAxLjMyLS41OC41Mi0uMjc0IDEuMDItLjU4IDEuNTAzLS45MThsLTMuNjg1LTMuNi0xMi4yLTEyLjI1OC01LjM1NiA1LjM1Ni03LjIzLTcuNDU1TDguNDQgMzIuNjQ3Yy40OC4zMzcuOTguNjQ0IDEuNS45MTguNDcuMjQ2LjkuNDM0IDEuMzE3LjU4YTcuMTggNy4xOCAwIDAgMCAxLjEzNS4zMDEgNS41MyA1LjUzIDAgMCAwIC45NTUuMDg3IDQuNTMgNC41MyAwIDAgMCAuOS0uMDg3IDMuMjkgMy4yOSAwIDAgMCAuNjM3LS4xOTRjLjEzNC0uMDU0LjI2My0uMTIuMzg1LS4xOTdsLjE0NS0uMTA0IDguMTkzLTguMTkzIDIuOTI0LTIuODA4IDguMTA2IDguMTA2IDIuODM3IDIuOTEyYy4wNDYuMDM3LjA5NC4wNy4xNDUuMS4xMjIuMDc4LjI1LjE0NS4zODUuMmEzLjQ5IDMuNDkgMCAwIDAgLjYzNy4xOTRjLjI1NS4wNTIuNTU2LjA4Ny45MDMuMDg3YTUuODQgNS44NCAwIDAgMCAuOTU1LS4wODdjLjM4Ny0uMDY4Ljc2OC0uMTY4IDEuMTM4LS4zYTkuOTQgOS45NCAwIDAgMCAxLjMyLS41NzljLjUyLS4yNzQgMS4wMi0uNTggMS41MDMtLjkxOGwtNi41MDgtNi4zNyAxLjItMS4yIDUuNjMgNS42MyAzLjI4MyAzLjI1NE00Ny45OTYuMDJsMTUuOTk4IDI3LjcxNC0xNS45OSAyNy42OTRIMTUuOTk4TDAgMjcuNzE0IDE1Ljk5OCAweiIvPjxwYXRoIGQ9Ik0zOC4wMjIgMjYuMzY3TDMzLjc2IDIyLjExbC4zMDQtLjMwNCA0LjMgNC4yNDR6Ii8+PC9nPjwvc3ltYm9sPjwvc3ZnPg==;fontColor=#001135;" parent="1" vertex="1">
          <mxGeometry x="768.89" y="343.2" width="11.71" height="10.27" as="geometry" />
        </mxCell>
        <mxCell id="9zTi3nsKfj2Z9hqAuiEz-436" value="eth1" style="whiteSpace=wrap;html=1;fontFamily=Manrope;fontSource=https%3A%2F%2Ffonts.googleapis.com%2Fcss%3Ffamily%3DManrope;fontSize=6;align=center;fillColor=#BEC8D2;fontColor=#FFFFFF;strokeColor=#98A2AE;perimeterSpacing=0;rounded=1;" parent="1" vertex="1">
          <mxGeometry x="768" y="334" width="14" height="6" as="geometry" />
        </mxCell>
        <mxCell id="9zTi3nsKfj2Z9hqAuiEz-437" value="" style="shape=image;editableCssRules=\.color;verticalLabelPosition=bottom;labelBackgroundColor=#ffffff;verticalAlign=top;aspect=fixed;imageAspect=0;image=data:image/svg+xml,PHN2ZyB4bWxucz0iaHR0cDovL3d3dy53My5vcmcvMjAwMC9zdmciIHhtbG5zOnhsaW5rPSJodHRwOi8vd3d3LnczLm9yZy8xOTk5L3hsaW5rIiB2aWV3Qm94PSIwIDAgMTMxIDgxIiBmaWxsPSIjZmZmIiBmaWxsLXJ1bGU9ImV2ZW5vZGQiIHN0cm9rZT0iIzAwMCIgc3Ryb2tlLWxpbmVjYXA9InJvdW5kIiBzdHJva2UtbGluZWpvaW49InJvdW5kIj48dXNlIHhsaW5rOmhyZWY9IiNBIiB4PSIuNSIgeT0iLjUiLz48c3ltYm9sIGlkPSJBIiBvdmVyZmxvdz0idmlzaWJsZSI+PHBhdGggY2xhc3M9ImNvbG9yIiBkPSJNMTE5LjA3OCA2Mi43MDNWNy4yNzVjMC0yLjc0Ni0yLjU0LTcuMjc1LTUuNTgtNy4yNzVIMTYuNDc1Yy0zLjA0IDAtNi4wOCA0LjUzLTYuMDggNy4yNzV2NTUuNDI3Qy0uNDk4IDc0LjI0NC4wMDQgNzQuMjQ0LjAwNCA3NC4yNDQuMDA0IDc3LjUxNiAzLjA0NCA4MCA2Ljg1MiA4MGgxMTYuM2MzLjgwOCAwIDYuODQ4LTIuNzQ3IDYuODQ4LTUuNzU2bC0xMC45MjItMTEuNTR6TTczLjk3NSA3NS4yMzdoLTIwLjI4Yy0xLjAwNCAwLTIuMDM3LS40OTctMi4wMzctLjk5M2wyLjI3My0zLjc3YzAtLjQ5Ny43NjctLjc2IDEuNzctLjc2SDcxLjkxYy43NjcgMCAxLjUzNS4yNjMgMS41MzUuNzZsMi41NCAzLjc3Yy4wMy43My0xLjAwNC45OTMtMi4wMDcuOTkzaDB6bTQwLjI5Mi0xMi43OThIMTUuMjA1VjcuNzcyYzAtMS4yNTYgMS4yNy0zLjAxIDIuNzc1LTMuMDFoOTMuNzVjMS41MzUgMCAyLjU0IDEuNzUzIDIuNTQgM1Y2Mi40NHoiIGZpbGw9IiMyYTMyODIiIHN0cm9rZT0ibm9uZSIvPjwvc3ltYm9sPjxzdHlsZSB0eXBlPSJ0ZXh0L2NzcyI+LmNvbG9yIHsgZmlsbDogcmdiKDAsIDE3LCA1Myk7IH0gPC9zdHlsZT48L3N2Zz4=;" parent="1" vertex="1">
          <mxGeometry x="759" y="339.56000000000006" width="31.197407407407447" height="19.290000000000017" as="geometry" />
        </mxCell>
        <mxCell id="9zTi3nsKfj2Z9hqAuiEz-438" value="" style="shape=image;verticalLabelPosition=bottom;labelBackgroundColor=#ffffff;verticalAlign=top;aspect=fixed;imageAspect=0;image=data:image/svg+xml,PHN2ZyB4bWxucz0iaHR0cDovL3d3dy53My5vcmcvMjAwMC9zdmciIHhtbG5zOnhsaW5rPSJodHRwOi8vd3d3LnczLm9yZy8xOTk5L3hsaW5rIiB2aWV3Qm94PSIwIDAgNjUgNTciIGZpbGw9IiNmZmYiIGZpbGwtcnVsZT0iZXZlbm9kZCIgc3Ryb2tlPSIjMDAwIiBzdHJva2UtbGluZWNhcD0icm91bmQiIHN0cm9rZS1saW5lam9pbj0icm91bmQiPjx1c2UgeGxpbms6aHJlZj0iI0EiIHg9Ii41IiB5PSIuNSIvPjxzeW1ib2wgaWQ9IkEiIG92ZXJmbG93PSJ2aXNpYmxlIj48ZyBzdHJva2U9Im5vbmUiIGZpbGw9IiMwZDU5N2YiIGZpbGwtcnVsZT0ibm9uemVybyI+PHBhdGggZD0iTTIzLjI1MiAzNC41Mjd2LTYuNzQ1bC00Ljg1NSA0Ljg2NGMuNDc0LjMzMy45NjguNjM1IDEuNDguOTA2LjQ2My4yNDMuODcuNDM0IDEuMzAzLjU4YTcuOTcgNy45NyAwIDAgMCAxLjEzLjMwNGMuMzQ4LjA2NC42Ni4wOTMuOTUuMDk2bTI0LjgyMi0uNTYyYTEuMTcgMS4xNyAwIDAgMCAuMTQyLjFjLjEyMy4wNzguMjUyLjE0NS4zODUuMjAzYTIuOTMgMi45MyAwIDAgMCAuNjM3LjE5NGMuMjk2LjA2LjU5OC4wODguOS4wODdhNS44NCA1Ljg0IDAgMCAwIC45NTUtLjA4NyA3LjI0IDcuMjQgMCAwIDAgMS4xMzgtLjMwMWMuNDUzLS4xNi44OTUtLjM1NCAxLjMyLS41OC41Mi0uMjc0IDEuMDItLjU4IDEuNTAzLS45MThsLTMuNjg1LTMuNi0xMi4yLTEyLjI1OC01LjM1NiA1LjM1Ni03LjIzLTcuNDU1TDguNDQgMzIuNjQ3Yy40OC4zMzcuOTguNjQ0IDEuNS45MTguNDcuMjQ2LjkuNDM0IDEuMzE3LjU4YTcuMTggNy4xOCAwIDAgMCAxLjEzNS4zMDEgNS41MyA1LjUzIDAgMCAwIC45NTUuMDg3IDQuNTMgNC41MyAwIDAgMCAuOS0uMDg3IDMuMjkgMy4yOSAwIDAgMCAuNjM3LS4xOTRjLjEzNC0uMDU0LjI2My0uMTIuMzg1LS4xOTdsLjE0NS0uMTA0IDguMTkzLTguMTkzIDIuOTI0LTIuODA4IDguMTA2IDguMTA2IDIuODM3IDIuOTEyYy4wNDYuMDM3LjA5NC4wNy4xNDUuMS4xMjIuMDc4LjI1LjE0NS4zODUuMmEzLjQ5IDMuNDkgMCAwIDAgLjYzNy4xOTRjLjI1NS4wNTIuNTU2LjA4Ny45MDMuMDg3YTUuODQgNS44NCAwIDAgMCAuOTU1LS4wODdjLjM4Ny0uMDY4Ljc2OC0uMTY4IDEuMTM4LS4zYTkuOTQgOS45NCAwIDAgMCAxLjMyLS41NzljLjUyLS4yNzQgMS4wMi0uNTggMS41MDMtLjkxOGwtNi41MDgtNi4zNyAxLjItMS4yIDUuNjMgNS42MyAzLjI4MyAzLjI1NE00Ny45OTYuMDJsMTUuOTk4IDI3LjcxNC0xNS45OSAyNy42OTRIMTUuOTk4TDAgMjcuNzE0IDE1Ljk5OCAweiIvPjxwYXRoIGQ9Ik0zOC4wMjIgMjYuMzY3TDMzLjc2IDIyLjExbC4zMDQtLjMwNCA0LjMgNC4yNDR6Ii8+PC9nPjwvc3ltYm9sPjwvc3ZnPg==;fontColor=#001135;" parent="1" vertex="1">
          <mxGeometry x="768.89" y="343.2" width="11.71" height="10.27" as="geometry" />
        </mxCell>
        <mxCell id="9zTi3nsKfj2Z9hqAuiEz-439" value="eth2" style="whiteSpace=wrap;html=1;fontFamily=Manrope;fontSource=https%3A%2F%2Ffonts.googleapis.com%2Fcss%3Ffamily%3DManrope;fontSize=6;align=center;fillColor=#BEC8D2;fontColor=#FFFFFF;strokeColor=#98A2AE;perimeterSpacing=0;rounded=1;" parent="1" vertex="1">
          <mxGeometry x="768" y="334" width="14" height="6" as="geometry" />
        </mxCell>
        <mxCell id="9zTi3nsKfj2Z9hqAuiEz-440" value="" style="shape=image;editableCssRules=\.color;verticalLabelPosition=bottom;labelBackgroundColor=#ffffff;verticalAlign=top;aspect=fixed;imageAspect=0;image=data:image/svg+xml,PHN2ZyB4bWxucz0iaHR0cDovL3d3dy53My5vcmcvMjAwMC9zdmciIHhtbG5zOnhsaW5rPSJodHRwOi8vd3d3LnczLm9yZy8xOTk5L3hsaW5rIiB2aWV3Qm94PSIwIDAgMTMxIDgxIiBmaWxsPSIjZmZmIiBmaWxsLXJ1bGU9ImV2ZW5vZGQiIHN0cm9rZT0iIzAwMCIgc3Ryb2tlLWxpbmVjYXA9InJvdW5kIiBzdHJva2UtbGluZWpvaW49InJvdW5kIj48dXNlIHhsaW5rOmhyZWY9IiNBIiB4PSIuNSIgeT0iLjUiLz48c3ltYm9sIGlkPSJBIiBvdmVyZmxvdz0idmlzaWJsZSI+PHBhdGggY2xhc3M9ImNvbG9yIiBkPSJNMTE5LjA3OCA2Mi43MDNWNy4yNzVjMC0yLjc0Ni0yLjU0LTcuMjc1LTUuNTgtNy4yNzVIMTYuNDc1Yy0zLjA0IDAtNi4wOCA0LjUzLTYuMDggNy4yNzV2NTUuNDI3Qy0uNDk4IDc0LjI0NC4wMDQgNzQuMjQ0LjAwNCA3NC4yNDQuMDA0IDc3LjUxNiAzLjA0NCA4MCA2Ljg1MiA4MGgxMTYuM2MzLjgwOCAwIDYuODQ4LTIuNzQ3IDYuODQ4LTUuNzU2bC0xMC45MjItMTEuNTR6TTczLjk3NSA3NS4yMzdoLTIwLjI4Yy0xLjAwNCAwLTIuMDM3LS40OTctMi4wMzctLjk5M2wyLjI3My0zLjc3YzAtLjQ5Ny43NjctLjc2IDEuNzctLjc2SDcxLjkxYy43NjcgMCAxLjUzNS4yNjMgMS41MzUuNzZsMi41NCAzLjc3Yy4wMy43My0xLjAwNC45OTMtMi4wMDcuOTkzaDB6bTQwLjI5Mi0xMi43OThIMTUuMjA1VjcuNzcyYzAtMS4yNTYgMS4yNy0zLjAxIDIuNzc1LTMuMDFoOTMuNzVjMS41MzUgMCAyLjU0IDEuNzUzIDIuNTQgM1Y2Mi40NHoiIGZpbGw9IiMyYTMyODIiIHN0cm9rZT0ibm9uZSIvPjwvc3ltYm9sPjxzdHlsZSB0eXBlPSJ0ZXh0L2NzcyI+LmNvbG9yIHsgZmlsbDogcmdiKDAsIDE3LCA1Myk7IH0gPC9zdHlsZT48L3N2Zz4=;" parent="1" vertex="1">
          <mxGeometry x="759" y="339.56000000000006" width="31.197407407407447" height="19.290000000000017" as="geometry" />
        </mxCell>
        <mxCell id="9zTi3nsKfj2Z9hqAuiEz-441" value="" style="shape=image;verticalLabelPosition=bottom;labelBackgroundColor=#ffffff;verticalAlign=top;aspect=fixed;imageAspect=0;image=data:image/svg+xml,PHN2ZyB4bWxucz0iaHR0cDovL3d3dy53My5vcmcvMjAwMC9zdmciIHhtbG5zOnhsaW5rPSJodHRwOi8vd3d3LnczLm9yZy8xOTk5L3hsaW5rIiB2aWV3Qm94PSIwIDAgNjUgNTciIGZpbGw9IiNmZmYiIGZpbGwtcnVsZT0iZXZlbm9kZCIgc3Ryb2tlPSIjMDAwIiBzdHJva2UtbGluZWNhcD0icm91bmQiIHN0cm9rZS1saW5lam9pbj0icm91bmQiPjx1c2UgeGxpbms6aHJlZj0iI0EiIHg9Ii41IiB5PSIuNSIvPjxzeW1ib2wgaWQ9IkEiIG92ZXJmbG93PSJ2aXNpYmxlIj48ZyBzdHJva2U9Im5vbmUiIGZpbGw9IiMwZDU5N2YiIGZpbGwtcnVsZT0ibm9uemVybyI+PHBhdGggZD0iTTIzLjI1MiAzNC41Mjd2LTYuNzQ1bC00Ljg1NSA0Ljg2NGMuNDc0LjMzMy45NjguNjM1IDEuNDguOTA2LjQ2My4yNDMuODcuNDM0IDEuMzAzLjU4YTcuOTcgNy45NyAwIDAgMCAxLjEzLjMwNGMuMzQ4LjA2NC42Ni4wOTMuOTUuMDk2bTI0LjgyMi0uNTYyYTEuMTcgMS4xNyAwIDAgMCAuMTQyLjFjLjEyMy4wNzguMjUyLjE0NS4zODUuMjAzYTIuOTMgMi45MyAwIDAgMCAuNjM3LjE5NGMuMjk2LjA2LjU5OC4wODguOS4wODdhNS44NCA1Ljg0IDAgMCAwIC45NTUtLjA4NyA3LjI0IDcuMjQgMCAwIDAgMS4xMzgtLjMwMWMuNDUzLS4xNi44OTUtLjM1NCAxLjMyLS41OC41Mi0uMjc0IDEuMDItLjU4IDEuNTAzLS45MThsLTMuNjg1LTMuNi0xMi4yLTEyLjI1OC01LjM1NiA1LjM1Ni03LjIzLTcuNDU1TDguNDQgMzIuNjQ3Yy40OC4zMzcuOTguNjQ0IDEuNS45MTguNDcuMjQ2LjkuNDM0IDEuMzE3LjU4YTcuMTggNy4xOCAwIDAgMCAxLjEzNS4zMDEgNS41MyA1LjUzIDAgMCAwIC45NTUuMDg3IDQuNTMgNC41MyAwIDAgMCAuOS0uMDg3IDMuMjkgMy4yOSAwIDAgMCAuNjM3LS4xOTRjLjEzNC0uMDU0LjI2My0uMTIuMzg1LS4xOTdsLjE0NS0uMTA0IDguMTkzLTguMTkzIDIuOTI0LTIuODA4IDguMTA2IDguMTA2IDIuODM3IDIuOTEyYy4wNDYuMDM3LjA5NC4wNy4xNDUuMS4xMjIuMDc4LjI1LjE0NS4zODUuMmEzLjQ5IDMuNDkgMCAwIDAgLjYzNy4xOTRjLjI1NS4wNTIuNTU2LjA4Ny45MDMuMDg3YTUuODQgNS44NCAwIDAgMCAuOTU1LS4wODdjLjM4Ny0uMDY4Ljc2OC0uMTY4IDEuMTM4LS4zYTkuOTQgOS45NCAwIDAgMCAxLjMyLS41NzljLjUyLS4yNzQgMS4wMi0uNTggMS41MDMtLjkxOGwtNi41MDgtNi4zNyAxLjItMS4yIDUuNjMgNS42MyAzLjI4MyAzLjI1NE00Ny45OTYuMDJsMTUuOTk4IDI3LjcxNC0xNS45OSAyNy42OTRIMTUuOTk4TDAgMjcuNzE0IDE1Ljk5OCAweiIvPjxwYXRoIGQ9Ik0zOC4wMjIgMjYuMzY3TDMzLjc2IDIyLjExbC4zMDQtLjMwNCA0LjMgNC4yNDR6Ii8+PC9nPjwvc3ltYm9sPjwvc3ZnPg==;fontColor=#001135;" parent="1" vertex="1">
          <mxGeometry x="768.89" y="343.2" width="11.71" height="10.27" as="geometry" />
        </mxCell>
        <mxCell id="9zTi3nsKfj2Z9hqAuiEz-442" value="" style="rounded=1;whiteSpace=wrap;html=1;strokeColor=none;arcSize=2;" parent="1" vertex="1">
          <mxGeometry x="763" y="379.4800000000001" width="23" height="13.59" as="geometry" />
        </mxCell>
        <mxCell id="9zTi3nsKfj2Z9hqAuiEz-443" value="" style="shape=image;editableCssRules=\.color;verticalLabelPosition=bottom;labelBackgroundColor=#ffffff;verticalAlign=top;aspect=fixed;imageAspect=0;image=data:image/svg+xml,PHN2ZyB4bWxucz0iaHR0cDovL3d3dy53My5vcmcvMjAwMC9zdmciIHhtbG5zOnhsaW5rPSJodHRwOi8vd3d3LnczLm9yZy8xOTk5L3hsaW5rIiB2aWV3Qm94PSIwIDAgMTMxIDgxIiBmaWxsPSIjZmZmIiBmaWxsLXJ1bGU9ImV2ZW5vZGQiIHN0cm9rZT0iIzAwMCIgc3Ryb2tlLWxpbmVjYXA9InJvdW5kIiBzdHJva2UtbGluZWpvaW49InJvdW5kIj48dXNlIHhsaW5rOmhyZWY9IiNBIiB4PSIuNSIgeT0iLjUiLz48c3ltYm9sIGlkPSJBIiBvdmVyZmxvdz0idmlzaWJsZSI+PHBhdGggY2xhc3M9ImNvbG9yIiBkPSJNMTE5LjA3OCA2Mi43MDNWNy4yNzVjMC0yLjc0Ni0yLjU0LTcuMjc1LTUuNTgtNy4yNzVIMTYuNDc1Yy0zLjA0IDAtNi4wOCA0LjUzLTYuMDggNy4yNzV2NTUuNDI3Qy0uNDk4IDc0LjI0NC4wMDQgNzQuMjQ0LjAwNCA3NC4yNDQuMDA0IDc3LjUxNiAzLjA0NCA4MCA2Ljg1MiA4MGgxMTYuM2MzLjgwOCAwIDYuODQ4LTIuNzQ3IDYuODQ4LTUuNzU2bC0xMC45MjItMTEuNTR6TTczLjk3NSA3NS4yMzdoLTIwLjI4Yy0xLjAwNCAwLTIuMDM3LS40OTctMi4wMzctLjk5M2wyLjI3My0zLjc3YzAtLjQ5Ny43NjctLjc2IDEuNzctLjc2SDcxLjkxYy43NjcgMCAxLjUzNS4yNjMgMS41MzUuNzZsMi41NCAzLjc3Yy4wMy43My0xLjAwNC45OTMtMi4wMDcuOTkzaDB6bTQwLjI5Mi0xMi43OThIMTUuMjA1VjcuNzcyYzAtMS4yNTYgMS4yNy0zLjAxIDIuNzc1LTMuMDFoOTMuNzVjMS41MzUgMCAyLjU0IDEuNzUzIDIuNTQgM1Y2Mi40NHoiIGZpbGw9IiMyYTMyODIiIHN0cm9rZT0ibm9uZSIvPjwvc3ltYm9sPjxzdHlsZSB0eXBlPSJ0ZXh0L2NzcyI+LmNvbG9yIHsgZmlsbDogcmdiKDAsIDE3LCA1Myk7IH0gPC9zdHlsZT48L3N2Zz4=;" parent="1" vertex="1">
          <mxGeometry x="759" y="377.63000000000005" width="31.197407407407447" height="19.290000000000017" as="geometry" />
        </mxCell>
        <mxCell id="9zTi3nsKfj2Z9hqAuiEz-444" value="" style="shape=image;verticalLabelPosition=bottom;labelBackgroundColor=#ffffff;verticalAlign=top;aspect=fixed;imageAspect=0;image=data:image/svg+xml,PHN2ZyB4bWxucz0iaHR0cDovL3d3dy53My5vcmcvMjAwMC9zdmciIHhtbG5zOnhsaW5rPSJodHRwOi8vd3d3LnczLm9yZy8xOTk5L3hsaW5rIiB2aWV3Qm94PSIwIDAgNjUgNTciIGZpbGw9IiNmZmYiIGZpbGwtcnVsZT0iZXZlbm9kZCIgc3Ryb2tlPSIjMDAwIiBzdHJva2UtbGluZWNhcD0icm91bmQiIHN0cm9rZS1saW5lam9pbj0icm91bmQiPjx1c2UgeGxpbms6aHJlZj0iI0EiIHg9Ii41IiB5PSIuNSIvPjxzeW1ib2wgaWQ9IkEiIG92ZXJmbG93PSJ2aXNpYmxlIj48ZyBzdHJva2U9Im5vbmUiIGZpbGw9IiMwZDU5N2YiIGZpbGwtcnVsZT0ibm9uemVybyI+PHBhdGggZD0iTTIzLjI1MiAzNC41Mjd2LTYuNzQ1bC00Ljg1NSA0Ljg2NGMuNDc0LjMzMy45NjguNjM1IDEuNDguOTA2LjQ2My4yNDMuODcuNDM0IDEuMzAzLjU4YTcuOTcgNy45NyAwIDAgMCAxLjEzLjMwNGMuMzQ4LjA2NC42Ni4wOTMuOTUuMDk2bTI0LjgyMi0uNTYyYTEuMTcgMS4xNyAwIDAgMCAuMTQyLjFjLjEyMy4wNzguMjUyLjE0NS4zODUuMjAzYTIuOTMgMi45MyAwIDAgMCAuNjM3LjE5NGMuMjk2LjA2LjU5OC4wODguOS4wODdhNS44NCA1Ljg0IDAgMCAwIC45NTUtLjA4NyA3LjI0IDcuMjQgMCAwIDAgMS4xMzgtLjMwMWMuNDUzLS4xNi44OTUtLjM1NCAxLjMyLS41OC41Mi0uMjc0IDEuMDItLjU4IDEuNTAzLS45MThsLTMuNjg1LTMuNi0xMi4yLTEyLjI1OC01LjM1NiA1LjM1Ni03LjIzLTcuNDU1TDguNDQgMzIuNjQ3Yy40OC4zMzcuOTguNjQ0IDEuNS45MTguNDcuMjQ2LjkuNDM0IDEuMzE3LjU4YTcuMTggNy4xOCAwIDAgMCAxLjEzNS4zMDEgNS41MyA1LjUzIDAgMCAwIC45NTUuMDg3IDQuNTMgNC41MyAwIDAgMCAuOS0uMDg3IDMuMjkgMy4yOSAwIDAgMCAuNjM3LS4xOTRjLjEzNC0uMDU0LjI2My0uMTIuMzg1LS4xOTdsLjE0NS0uMTA0IDguMTkzLTguMTkzIDIuOTI0LTIuODA4IDguMTA2IDguMTA2IDIuODM3IDIuOTEyYy4wNDYuMDM3LjA5NC4wNy4xNDUuMS4xMjIuMDc4LjI1LjE0NS4zODUuMmEzLjQ5IDMuNDkgMCAwIDAgLjYzNy4xOTRjLjI1NS4wNTIuNTU2LjA4Ny45MDMuMDg3YTUuODQgNS44NCAwIDAgMCAuOTU1LS4wODdjLjM4Ny0uMDY4Ljc2OC0uMTY4IDEuMTM4LS4zYTkuOTQgOS45NCAwIDAgMCAxLjMyLS41NzljLjUyLS4yNzQgMS4wMi0uNTggMS41MDMtLjkxOGwtNi41MDgtNi4zNyAxLjItMS4yIDUuNjMgNS42MyAzLjI4MyAzLjI1NE00Ny45OTYuMDJsMTUuOTk4IDI3LjcxNC0xNS45OSAyNy42OTRIMTUuOTk4TDAgMjcuNzE0IDE1Ljk5OCAweiIvPjxwYXRoIGQ9Ik0zOC4wMjIgMjYuMzY3TDMzLjc2IDIyLjExbC4zMDQtLjMwNCA0LjMgNC4yNDR6Ii8+PC9nPjwvc3ltYm9sPjwvc3ZnPg==;fontColor=#001135;" parent="1" vertex="1">
          <mxGeometry x="768.89" y="381.27" width="11.71" height="10.27" as="geometry" />
        </mxCell>
        <mxCell id="9zTi3nsKfj2Z9hqAuiEz-445" value="eth1" style="whiteSpace=wrap;html=1;fontFamily=Manrope;fontSource=https%3A%2F%2Ffonts.googleapis.com%2Fcss%3Ffamily%3DManrope;fontSize=6;align=center;fillColor=#BEC8D2;fontColor=#FFFFFF;strokeColor=#98A2AE;perimeterSpacing=0;rounded=1;" parent="1" vertex="1">
          <mxGeometry x="768" y="372.07" width="14" height="6" as="geometry" />
        </mxCell>
        <mxCell id="9zTi3nsKfj2Z9hqAuiEz-446" value="" style="shape=image;editableCssRules=\.color;verticalLabelPosition=bottom;labelBackgroundColor=#ffffff;verticalAlign=top;aspect=fixed;imageAspect=0;image=data:image/svg+xml,PHN2ZyB4bWxucz0iaHR0cDovL3d3dy53My5vcmcvMjAwMC9zdmciIHhtbG5zOnhsaW5rPSJodHRwOi8vd3d3LnczLm9yZy8xOTk5L3hsaW5rIiB2aWV3Qm94PSIwIDAgMTMxIDgxIiBmaWxsPSIjZmZmIiBmaWxsLXJ1bGU9ImV2ZW5vZGQiIHN0cm9rZT0iIzAwMCIgc3Ryb2tlLWxpbmVjYXA9InJvdW5kIiBzdHJva2UtbGluZWpvaW49InJvdW5kIj48dXNlIHhsaW5rOmhyZWY9IiNBIiB4PSIuNSIgeT0iLjUiLz48c3ltYm9sIGlkPSJBIiBvdmVyZmxvdz0idmlzaWJsZSI+PHBhdGggY2xhc3M9ImNvbG9yIiBkPSJNMTE5LjA3OCA2Mi43MDNWNy4yNzVjMC0yLjc0Ni0yLjU0LTcuMjc1LTUuNTgtNy4yNzVIMTYuNDc1Yy0zLjA0IDAtNi4wOCA0LjUzLTYuMDggNy4yNzV2NTUuNDI3Qy0uNDk4IDc0LjI0NC4wMDQgNzQuMjQ0LjAwNCA3NC4yNDQuMDA0IDc3LjUxNiAzLjA0NCA4MCA2Ljg1MiA4MGgxMTYuM2MzLjgwOCAwIDYuODQ4LTIuNzQ3IDYuODQ4LTUuNzU2bC0xMC45MjItMTEuNTR6TTczLjk3NSA3NS4yMzdoLTIwLjI4Yy0xLjAwNCAwLTIuMDM3LS40OTctMi4wMzctLjk5M2wyLjI3My0zLjc3YzAtLjQ5Ny43NjctLjc2IDEuNzctLjc2SDcxLjkxYy43NjcgMCAxLjUzNS4yNjMgMS41MzUuNzZsMi41NCAzLjc3Yy4wMy43My0xLjAwNC45OTMtMi4wMDcuOTkzaDB6bTQwLjI5Mi0xMi43OThIMTUuMjA1VjcuNzcyYzAtMS4yNTYgMS4yNy0zLjAxIDIuNzc1LTMuMDFoOTMuNzVjMS41MzUgMCAyLjU0IDEuNzUzIDIuNTQgM1Y2Mi40NHoiIGZpbGw9IiMyYTMyODIiIHN0cm9rZT0ibm9uZSIvPjwvc3ltYm9sPjxzdHlsZSB0eXBlPSJ0ZXh0L2NzcyI+LmNvbG9yIHsgZmlsbDogcmdiKDAsIDE3LCA1Myk7IH0gPC9zdHlsZT48L3N2Zz4=;" parent="1" vertex="1">
          <mxGeometry x="759" y="377.63000000000005" width="31.197407407407447" height="19.290000000000017" as="geometry" />
        </mxCell>
        <mxCell id="9zTi3nsKfj2Z9hqAuiEz-447" value="" style="shape=image;verticalLabelPosition=bottom;labelBackgroundColor=#ffffff;verticalAlign=top;aspect=fixed;imageAspect=0;image=data:image/svg+xml,PHN2ZyB4bWxucz0iaHR0cDovL3d3dy53My5vcmcvMjAwMC9zdmciIHhtbG5zOnhsaW5rPSJodHRwOi8vd3d3LnczLm9yZy8xOTk5L3hsaW5rIiB2aWV3Qm94PSIwIDAgNjUgNTciIGZpbGw9IiNmZmYiIGZpbGwtcnVsZT0iZXZlbm9kZCIgc3Ryb2tlPSIjMDAwIiBzdHJva2UtbGluZWNhcD0icm91bmQiIHN0cm9rZS1saW5lam9pbj0icm91bmQiPjx1c2UgeGxpbms6aHJlZj0iI0EiIHg9Ii41IiB5PSIuNSIvPjxzeW1ib2wgaWQ9IkEiIG92ZXJmbG93PSJ2aXNpYmxlIj48ZyBzdHJva2U9Im5vbmUiIGZpbGw9IiMwZDU5N2YiIGZpbGwtcnVsZT0ibm9uemVybyI+PHBhdGggZD0iTTIzLjI1MiAzNC41Mjd2LTYuNzQ1bC00Ljg1NSA0Ljg2NGMuNDc0LjMzMy45NjguNjM1IDEuNDguOTA2LjQ2My4yNDMuODcuNDM0IDEuMzAzLjU4YTcuOTcgNy45NyAwIDAgMCAxLjEzLjMwNGMuMzQ4LjA2NC42Ni4wOTMuOTUuMDk2bTI0LjgyMi0uNTYyYTEuMTcgMS4xNyAwIDAgMCAuMTQyLjFjLjEyMy4wNzguMjUyLjE0NS4zODUuMjAzYTIuOTMgMi45MyAwIDAgMCAuNjM3LjE5NGMuMjk2LjA2LjU5OC4wODguOS4wODdhNS44NCA1Ljg0IDAgMCAwIC45NTUtLjA4NyA3LjI0IDcuMjQgMCAwIDAgMS4xMzgtLjMwMWMuNDUzLS4xNi44OTUtLjM1NCAxLjMyLS41OC41Mi0uMjc0IDEuMDItLjU4IDEuNTAzLS45MThsLTMuNjg1LTMuNi0xMi4yLTEyLjI1OC01LjM1NiA1LjM1Ni03LjIzLTcuNDU1TDguNDQgMzIuNjQ3Yy40OC4zMzcuOTguNjQ0IDEuNS45MTguNDcuMjQ2LjkuNDM0IDEuMzE3LjU4YTcuMTggNy4xOCAwIDAgMCAxLjEzNS4zMDEgNS41MyA1LjUzIDAgMCAwIC45NTUuMDg3IDQuNTMgNC41MyAwIDAgMCAuOS0uMDg3IDMuMjkgMy4yOSAwIDAgMCAuNjM3LS4xOTRjLjEzNC0uMDU0LjI2My0uMTIuMzg1LS4xOTdsLjE0NS0uMTA0IDguMTkzLTguMTkzIDIuOTI0LTIuODA4IDguMTA2IDguMTA2IDIuODM3IDIuOTEyYy4wNDYuMDM3LjA5NC4wNy4xNDUuMS4xMjIuMDc4LjI1LjE0NS4zODUuMmEzLjQ5IDMuNDkgMCAwIDAgLjYzNy4xOTRjLjI1NS4wNTIuNTU2LjA4Ny45MDMuMDg3YTUuODQgNS44NCAwIDAgMCAuOTU1LS4wODdjLjM4Ny0uMDY4Ljc2OC0uMTY4IDEuMTM4LS4zYTkuOTQgOS45NCAwIDAgMCAxLjMyLS41NzljLjUyLS4yNzQgMS4wMi0uNTggMS41MDMtLjkxOGwtNi41MDgtNi4zNyAxLjItMS4yIDUuNjMgNS42MyAzLjI4MyAzLjI1NE00Ny45OTYuMDJsMTUuOTk4IDI3LjcxNC0xNS45OSAyNy42OTRIMTUuOTk4TDAgMjcuNzE0IDE1Ljk5OCAweiIvPjxwYXRoIGQ9Ik0zOC4wMjIgMjYuMzY3TDMzLjc2IDIyLjExbC4zMDQtLjMwNCA0LjMgNC4yNDR6Ii8+PC9nPjwvc3ltYm9sPjwvc3ZnPg==;fontColor=#001135;" parent="1" vertex="1">
          <mxGeometry x="768.89" y="381.27" width="11.71" height="10.27" as="geometry" />
        </mxCell>
        <mxCell id="9zTi3nsKfj2Z9hqAuiEz-448" value="eth1" style="whiteSpace=wrap;html=1;fontFamily=Manrope;fontSource=https%3A%2F%2Ffonts.googleapis.com%2Fcss%3Ffamily%3DManrope;fontSize=6;align=center;fillColor=#BEC8D2;fontColor=#FFFFFF;strokeColor=#98A2AE;perimeterSpacing=0;rounded=1;" parent="1" vertex="1">
          <mxGeometry x="768" y="372.07" width="14" height="6" as="geometry" />
        </mxCell>
        <mxCell id="9zTi3nsKfj2Z9hqAuiEz-449" value="" style="shape=image;editableCssRules=\.color;verticalLabelPosition=bottom;labelBackgroundColor=#ffffff;verticalAlign=top;aspect=fixed;imageAspect=0;image=data:image/svg+xml,PHN2ZyB4bWxucz0iaHR0cDovL3d3dy53My5vcmcvMjAwMC9zdmciIHhtbG5zOnhsaW5rPSJodHRwOi8vd3d3LnczLm9yZy8xOTk5L3hsaW5rIiB2aWV3Qm94PSIwIDAgMTMxIDgxIiBmaWxsPSIjZmZmIiBmaWxsLXJ1bGU9ImV2ZW5vZGQiIHN0cm9rZT0iIzAwMCIgc3Ryb2tlLWxpbmVjYXA9InJvdW5kIiBzdHJva2UtbGluZWpvaW49InJvdW5kIj48dXNlIHhsaW5rOmhyZWY9IiNBIiB4PSIuNSIgeT0iLjUiLz48c3ltYm9sIGlkPSJBIiBvdmVyZmxvdz0idmlzaWJsZSI+PHBhdGggY2xhc3M9ImNvbG9yIiBkPSJNMTE5LjA3OCA2Mi43MDNWNy4yNzVjMC0yLjc0Ni0yLjU0LTcuMjc1LTUuNTgtNy4yNzVIMTYuNDc1Yy0zLjA0IDAtNi4wOCA0LjUzLTYuMDggNy4yNzV2NTUuNDI3Qy0uNDk4IDc0LjI0NC4wMDQgNzQuMjQ0LjAwNCA3NC4yNDQuMDA0IDc3LjUxNiAzLjA0NCA4MCA2Ljg1MiA4MGgxMTYuM2MzLjgwOCAwIDYuODQ4LTIuNzQ3IDYuODQ4LTUuNzU2bC0xMC45MjItMTEuNTR6TTczLjk3NSA3NS4yMzdoLTIwLjI4Yy0xLjAwNCAwLTIuMDM3LS40OTctMi4wMzctLjk5M2wyLjI3My0zLjc3YzAtLjQ5Ny43NjctLjc2IDEuNzctLjc2SDcxLjkxYy43NjcgMCAxLjUzNS4yNjMgMS41MzUuNzZsMi41NCAzLjc3Yy4wMy43My0xLjAwNC45OTMtMi4wMDcuOTkzaDB6bTQwLjI5Mi0xMi43OThIMTUuMjA1VjcuNzcyYzAtMS4yNTYgMS4yNy0zLjAxIDIuNzc1LTMuMDFoOTMuNzVjMS41MzUgMCAyLjU0IDEuNzUzIDIuNTQgM1Y2Mi40NHoiIGZpbGw9IiMyYTMyODIiIHN0cm9rZT0ibm9uZSIvPjwvc3ltYm9sPjxzdHlsZSB0eXBlPSJ0ZXh0L2NzcyI+LmNvbG9yIHsgZmlsbDogcmdiKDAsIDE3LCA1Myk7IH0gPC9zdHlsZT48L3N2Zz4=;" parent="1" vertex="1">
          <mxGeometry x="759" y="377.63000000000005" width="31.197407407407447" height="19.290000000000017" as="geometry" />
        </mxCell>
        <mxCell id="9zTi3nsKfj2Z9hqAuiEz-450" value="" style="shape=image;verticalLabelPosition=bottom;labelBackgroundColor=#ffffff;verticalAlign=top;aspect=fixed;imageAspect=0;image=data:image/svg+xml,PHN2ZyB4bWxucz0iaHR0cDovL3d3dy53My5vcmcvMjAwMC9zdmciIHhtbG5zOnhsaW5rPSJodHRwOi8vd3d3LnczLm9yZy8xOTk5L3hsaW5rIiB2aWV3Qm94PSIwIDAgNjUgNTciIGZpbGw9IiNmZmYiIGZpbGwtcnVsZT0iZXZlbm9kZCIgc3Ryb2tlPSIjMDAwIiBzdHJva2UtbGluZWNhcD0icm91bmQiIHN0cm9rZS1saW5lam9pbj0icm91bmQiPjx1c2UgeGxpbms6aHJlZj0iI0EiIHg9Ii41IiB5PSIuNSIvPjxzeW1ib2wgaWQ9IkEiIG92ZXJmbG93PSJ2aXNpYmxlIj48ZyBzdHJva2U9Im5vbmUiIGZpbGw9IiMwZDU5N2YiIGZpbGwtcnVsZT0ibm9uemVybyI+PHBhdGggZD0iTTIzLjI1MiAzNC41Mjd2LTYuNzQ1bC00Ljg1NSA0Ljg2NGMuNDc0LjMzMy45NjguNjM1IDEuNDguOTA2LjQ2My4yNDMuODcuNDM0IDEuMzAzLjU4YTcuOTcgNy45NyAwIDAgMCAxLjEzLjMwNGMuMzQ4LjA2NC42Ni4wOTMuOTUuMDk2bTI0LjgyMi0uNTYyYTEuMTcgMS4xNyAwIDAgMCAuMTQyLjFjLjEyMy4wNzguMjUyLjE0NS4zODUuMjAzYTIuOTMgMi45MyAwIDAgMCAuNjM3LjE5NGMuMjk2LjA2LjU5OC4wODguOS4wODdhNS44NCA1Ljg0IDAgMCAwIC45NTUtLjA4NyA3LjI0IDcuMjQgMCAwIDAgMS4xMzgtLjMwMWMuNDUzLS4xNi44OTUtLjM1NCAxLjMyLS41OC41Mi0uMjc0IDEuMDItLjU4IDEuNTAzLS45MThsLTMuNjg1LTMuNi0xMi4yLTEyLjI1OC01LjM1NiA1LjM1Ni03LjIzLTcuNDU1TDguNDQgMzIuNjQ3Yy40OC4zMzcuOTguNjQ0IDEuNS45MTguNDcuMjQ2LjkuNDM0IDEuMzE3LjU4YTcuMTggNy4xOCAwIDAgMCAxLjEzNS4zMDEgNS41MyA1LjUzIDAgMCAwIC45NTUuMDg3IDQuNTMgNC41MyAwIDAgMCAuOS0uMDg3IDMuMjkgMy4yOSAwIDAgMCAuNjM3LS4xOTRjLjEzNC0uMDU0LjI2My0uMTIuMzg1LS4xOTdsLjE0NS0uMTA0IDguMTkzLTguMTkzIDIuOTI0LTIuODA4IDguMTA2IDguMTA2IDIuODM3IDIuOTEyYy4wNDYuMDM3LjA5NC4wNy4xNDUuMS4xMjIuMDc4LjI1LjE0NS4zODUuMmEzLjQ5IDMuNDkgMCAwIDAgLjYzNy4xOTRjLjI1NS4wNTIuNTU2LjA4Ny45MDMuMDg3YTUuODQgNS44NCAwIDAgMCAuOTU1LS4wODdjLjM4Ny0uMDY4Ljc2OC0uMTY4IDEuMTM4LS4zYTkuOTQgOS45NCAwIDAgMCAxLjMyLS41NzljLjUyLS4yNzQgMS4wMi0uNTggMS41MDMtLjkxOGwtNi41MDgtNi4zNyAxLjItMS4yIDUuNjMgNS42MyAzLjI4MyAzLjI1NE00Ny45OTYuMDJsMTUuOTk4IDI3LjcxNC0xNS45OSAyNy42OTRIMTUuOTk4TDAgMjcuNzE0IDE1Ljk5OCAweiIvPjxwYXRoIGQ9Ik0zOC4wMjIgMjYuMzY3TDMzLjc2IDIyLjExbC4zMDQtLjMwNCA0LjMgNC4yNDR6Ii8+PC9nPjwvc3ltYm9sPjwvc3ZnPg==;fontColor=#001135;" parent="1" vertex="1">
          <mxGeometry x="768.89" y="381.27" width="11.71" height="10.27" as="geometry" />
        </mxCell>
        <mxCell id="9zTi3nsKfj2Z9hqAuiEz-451" value="eth3" style="whiteSpace=wrap;html=1;fontFamily=Manrope;fontSource=https%3A%2F%2Ffonts.googleapis.com%2Fcss%3Ffamily%3DManrope;fontSize=6;align=center;fillColor=#BEC8D2;fontColor=#FFFFFF;strokeColor=#98A2AE;perimeterSpacing=0;rounded=1;" parent="1" vertex="1">
          <mxGeometry x="768" y="372.07" width="14" height="6" as="geometry" />
        </mxCell>
        <mxCell id="9zTi3nsKfj2Z9hqAuiEz-359" value="" style="rounded=0;whiteSpace=wrap;html=1;" parent="1" vertex="1">
          <mxGeometry x="502" y="292.72999999999996" width="60" height="111" as="geometry" />
        </mxCell>
        <mxCell id="9zTi3nsKfj2Z9hqAuiEz-343" value="" style="rounded=0;whiteSpace=wrap;html=1;" parent="1" vertex="1">
          <mxGeometry x="249" y="292.5" width="60" height="111" as="geometry" />
        </mxCell>
        <mxCell id="9zTi3nsKfj2Z9hqAuiEz-334" value="" style="rounded=0;whiteSpace=wrap;html=1;" parent="1" vertex="1">
          <mxGeometry x="17" y="292" width="60" height="111" as="geometry" />
        </mxCell>
        <mxCell id="9zTi3nsKfj2Z9hqAuiEz-321" value="eth1" style="whiteSpace=wrap;html=1;fontFamily=Manrope;fontSource=https%3A%2F%2Ffonts.googleapis.com%2Fcss%3Ffamily%3DManrope;fontSize=6;align=center;fillColor=#BEC8D2;fontColor=#FFFFFF;strokeColor=#98A2AE;perimeterSpacing=0;rounded=1;" parent="1" vertex="1">
          <mxGeometry x="34.99999999999997" y="335" width="14" height="6" as="geometry" />
        </mxCell>
        <mxCell id="285" value="" style="edgeStyle=none;rounded=0;orthogonalLoop=1;jettySize=auto;html=1;exitX=1;exitY=0.5;exitDx=0;exitDy=0;entryX=0;entryY=0.5;entryDx=0;entryDy=0;endArrow=blockThin;endFill=1;strokeColor=#98A2AE;fontSize=5;fontFamily=Manrope;fontSource=https%3A%2F%2Ffonts.googleapis.com%2Fcss%3Ffamily%3DManrope;labelBackgroundColor=#4D5766;fontColor=#FFFFFF;endSize=0;startSize=0;strokeWidth=2;" parent="1" source="9zTi3nsKfj2Z9hqAuiEz-307" edge="1">
          <mxGeometry relative="1" as="geometry">
            <mxPoint x="58.400000000000006" y="312.62" as="sourcePoint" />
            <mxPoint x="118.4" y="312.62" as="targetPoint" />
          </mxGeometry>
        </mxCell>
        <mxCell id="286" style="edgeStyle=none;rounded=0;orthogonalLoop=1;jettySize=auto;html=1;endArrow=none;endFill=0;strokeColor=#98A2AE;startArrow=blockThin;startFill=1;fontSize=5;fontFamily=Manrope;fontSource=https%3A%2F%2Ffonts.googleapis.com%2Fcss%3Ffamily%3DManrope;labelBackgroundColor=#4D5766;fontColor=#FFFFFF;endSize=0;startSize=0;strokeWidth=2;exitX=1;exitY=0.5;exitDx=0;exitDy=0;" parent="1" source="9zTi3nsKfj2Z9hqAuiEz-384" edge="1">
          <mxGeometry relative="1" as="geometry">
            <mxPoint x="704" y="387" as="sourcePoint" />
            <mxPoint x="761" y="387" as="targetPoint" />
          </mxGeometry>
        </mxCell>
        <mxCell id="79" style="edgeStyle=none;rounded=0;orthogonalLoop=1;jettySize=auto;html=1;entryX=0;entryY=0.5;entryDx=0;entryDy=0;endArrow=none;endFill=0;strokeColor=#98A2AE;startArrow=blockThin;startFill=1;fontSize=5;fontFamily=Manrope;fontSource=https%3A%2F%2Ffonts.googleapis.com%2Fcss%3Ffamily%3DManrope;labelBackgroundColor=#4D5766;fontColor=#FFFFFF;endSize=0;startSize=0;strokeWidth=2;" parent="1" source="9zTi3nsKfj2Z9hqAuiEz-363" target="54" edge="1">
          <mxGeometry relative="1" as="geometry">
            <mxPoint x="474" y="257" as="sourcePoint" />
          </mxGeometry>
        </mxCell>
        <mxCell id="93" value="" style="edgeStyle=none;rounded=0;orthogonalLoop=1;jettySize=auto;html=1;exitX=1.031;exitY=0.321;exitDx=0;exitDy=0;entryX=0;entryY=1;entryDx=0;entryDy=0;endArrow=blockThin;endFill=1;strokeColor=#98A2AE;fontSize=5;fontFamily=Manrope;fontSource=https%3A%2F%2Ffonts.googleapis.com%2Fcss%3Ffamily%3DManrope;labelBackgroundColor=#4D5766;fontColor=#FFFFFF;endSize=0;startSize=0;strokeWidth=2;exitPerimeter=0;" parent="1" source="47" target="92" edge="1">
          <mxGeometry relative="1" as="geometry">
            <mxPoint x="326.99999999997135" y="326.43" as="sourcePoint" />
            <mxPoint x="386.49999999991246" y="326.43" as="targetPoint" />
          </mxGeometry>
        </mxCell>
        <mxCell id="51" value="" style="shape=image;verticalLabelPosition=bottom;labelBackgroundColor=default;verticalAlign=top;aspect=fixed;imageAspect=0;image=data:image/png,iVBORw0KGgoAAAANSUhEUgAAAFgAAABYCAYAAABxlTA0AAAAAXNSR0IArs4c6QAAAARnQU1BAACxjwv8YQUAAAAJcEhZcwAAFxEAABcRAcom8z8AAAikSURBVHhe7ZwJbBRVGMe3pUBrASkUlVMpV6EUQSlCCqhEjbYiIQEUETFyVEAr3hDwquCFVE2EYoTWCBTk8KgmiBfGqDEoRbkE5JByWW9UtJTC5/d/MwPD8na7OzOvu4vvS35pd3bezPS337735r039flSskijiKZZf2nBKtGCFaMFK0YLVowWrBgtWDFasGK0YMVowYrRghUTlYIbX8IX1lv+XqwRVYKb9SFfYiYlpPYlX1IP+T6xRtQIhlxfF2rf4wbasHE7jc57lF+nyfeVgYyPS+cyncWHJI4n26+uiQrBpty0jFzavfcAIU6cOEE33jY1NMnnXkoJLfrSkFH308hx0ykzeyT5knvK961rIi7YytxuOSz3oJBrxQlm+JiHapfcqCc1aXcFVR2tFuUK5y7hMh3l+9Y1ERV8WuaeLtcKSB5Rm2QW3Ljt5VT582+izKw5xbx/J/m+dU3EBFtyOXP3VBwSYhBHzSw8Wm38tCKoZC3YjwDVwosvv04LFr0tft+6fQ/d9eBs8TsCdXLA6kILtgG5cWa1UHFK7qLlq1lKGyoqXiVe7913iHz1utJtEx8TrxGoLqQNnxZsg7tQPfuNoH0HK4UMxOIV75GvQQZLuYhKSt8V2yr2/0gNL8jmbe1ofP5Msc2K2yc/Tr6G3U8dUwu2kdCVcoffLUQgFiNzIfeci1lKOhUveUdsh+DElv2N7hZnrF3yHPQSErrxxZt3e1qwDVH/duL+6gx6lbPVl8RiIdesl88Q3KiXIdLXge6Z/jy9ULRUVB3o+548phYsoSHfbTXgrznGHSAX2wIJxnuQjP2R7Xa5QAuW0BT4DegEEyzK8P7+ZYAWHCK1CQ6EFhwiWrBiIi0YjafV4Mred4IWbMLnzhkxhdp1v150JT2T/L8XzI1mHN/8jJ1cIMpu2rqTUtsMNLLZC8laMAvmu8LSVe+LsojyjdupuVeSdRXBNO5F8Uk9xC27FetZsshkt9WFFsxAIBo3vomxSy7fZEp2k8lasEkzBrftfLfon8muqgvHgnGyZL4gliImGj3h/JPDlW4Ez5hZxMdK9Tt2qFzItKEX5y+j48ePi+OJ6qKtQ8mOBfMnnX3tOCopfYezrswTFrLcHbsqxB/lRvD6b7fR3KKl4sMKm5I36CUuO2/hSvrn3ypxPAQavgsuGmRUJbJrCIRjwb6ONPn+Z8zTex8/saxwBDdhwX/+fcQsrSY+W7eREs7pceZgUzAcC45Pp+FjptL+A5Ui27xkHx/zy683GQPu3MJLz2+H90luPZDLbKadu/fR9/wtcAyX37FzL33DDVx19TFTLdERzubcYfkUl5QJafLrkOFYMPcf66VeRkmt+otM85IkRsiVnTcI9VL7ivURWBnkCC5bD3UsN5AYe64+Zgg+8k8VDcrN4+0dpOcNimPB4NzexldYBRgnlp0zGE24DMo5AWXF7MmFNOm+p4VYBORemTPemVzgSvDZBOpVXxrlP/ScqZZEIzcod4JzuUCJ4EAD49EKrpUl2uUa1YJLucBzwWgAMOPrPx0UrWAsIjGTpj8xz1RrNGhX5nggF3gqWGRCGk3i7hsWkPgSuUuDuk22b7RgCn7ltbeEXKNaMBs03N3JyoSDZ4JNuWPueFRcKGLB4jKKwyQl3pOViRaQBPytw6LBwSPv9SZzLTwRbModnfewqdaIcXcWGNVFOP3GSIBMbcKNHG6Fcb1eVmuuBZtyb817xNRqRMhre6MJFd80V4ItubZqARGTclXhWLAkc7H0dOjN9/H2tkanvZEb+GZDdt5giJsU2bE8wGl2OxJsyrU3aFVV1TQ2f6aYfsHIlluSMQYrO3cA4rgebcRlZMfyAtxKO5IctmA+CaZX8qbMMtUagYGRXXv2U+VPv4phQ7fgQRgxHhFKJnOGQe6Wbbulx/KCy9F1QyMoO38wwhbMNw+JKb1py/Y9plo1gQ8KAz+hCkaW/XH4L7O09zH4JnTfusjPHwxHVQRncOsOV9Fmzhgr0EF/oaiUZheWUCH/LJzngMJXafN3u8TxMGwZrmBkGgID7oW4Dtk5HNIla5izZ/ccCUY/MT6dWrYfRJtMIZhewSyAaOAEnZiOYdKC5hW7nzKaNaeEj9Xc79guQUPnpH/sSDAwJWMaxZKMWFH2EdfRmcanHe4FeTTpiYwLe9JTFY4FA0syZ7K9ulhZ9rEx8h+uZC1YgpDcVZrJDTDdE8qUj4UWHAB7dbHtlOQlK9dQXH3bsxS1oQUHwZSMhg9T7zU1x+n6YfnGg9my/WVowbUAydwZb99ziFgzIRZy6DrYQ8EAQtG41c8ITy7QghWjBStGC1ZMqIIxxW7vmYQi2L9MXRFTglGn4zWWmWJC1RIWTDDKYGwahNOj8YqYEoyV6Cxq+Zsf0LSCubx/B3N1UQDBkNsgg5LP60erP/yCRk14mLeH2bNxS8wIxjh0w+60jOVacecDz3KZNLGk9EzBLBJyWebaz9aL7Yhrhk42HiT3P7cqYkkw1i9MvOcp8b4VhuR2lNx6wEnBz+OBcV9rSm7ehz75vFxsQ2CNb1rX68Jf4+uGmKoiMP3vNw+ImDBllni4/FDlL+J1wewFFJ/YidZ+fipz123YSs1a8fGQvbqKCCAYoGFjybdwfWqPaQUv0e4fjH8JNr9kFa0oWyt+R6wr30opLbPrXi6IOcHAlDzaT3JNTY34if/vY8VXG76LnFwQrYKxyj2gYBBAsj2MzI1AtWAnugR3ptJVa4ScX38/HFwwsKqL8WdKRp0b0cy1iCrBLDOj3410NXelBuSMp/jmlxkSZftamJLtDd+68i2UEokGTUZUCYYM3G3FpxtyQl00aEqeMOVJ+vSLDZSCRSvRIBdElWA3QDKGSTHm4GTCVRVnjWAAyViGKnsvUpxVgqMRLVgxWrBitGDFaMGK0YIVowUrRgtWjBasGC1YMU2zjviEZY0isn78D43o8OjRWGtOAAAAAElFTkSuQmCC;" parent="1" vertex="1">
          <mxGeometry x="509" y="321.65" width="50" height="50" as="geometry" />
        </mxCell>
        <mxCell id="52" value="2" style="ellipse;whiteSpace=wrap;html=1;aspect=fixed;fontColor=#FFFFFF;fontSize=8;strokeColor=#98A2AE;fontFamily=Manrope;fontSource=https://fonts.googleapis.com/css?family=Manrope;fillColor=#BEC8D2;strokeWidth=1;" parent="1" vertex="1">
          <mxGeometry x="509" y="402.73" width="10" height="10" as="geometry" />
        </mxCell>
        <mxCell id="54" value="1" style="ellipse;whiteSpace=wrap;html=1;aspect=fixed;fontColor=#FFFFFF;fontSize=8;strokeColor=#98A2AE;fontFamily=Manrope;fontSource=https://fonts.googleapis.com/css?family=Manrope;fillColor=#BEC8D2;strokeWidth=1;" parent="1" vertex="1">
          <mxGeometry x="507" y="282" width="10" height="10" as="geometry" />
        </mxCell>
        <mxCell id="202" style="edgeStyle=none;rounded=0;orthogonalLoop=1;jettySize=auto;html=1;entryX=0.5;entryY=1;entryDx=0;entryDy=0;endArrow=none;endFill=0;strokeColor=#98A2AE;startArrow=blockThin;startFill=1;fontSize=5;fontFamily=Manrope;fontSource=https%3A%2F%2Ffonts.googleapis.com%2Fcss%3Ffamily%3DManrope;labelBackgroundColor=#4D5766;fontColor=#FFFFFF;endSize=0;startSize=0;strokeWidth=2;exitX=0.5;exitY=0;exitDx=0;exitDy=0;" parent="1" source="205" target="9zTi3nsKfj2Z9hqAuiEz-296" edge="1">
          <mxGeometry relative="1" as="geometry">
            <mxPoint x="405" y="392" as="sourcePoint" />
          </mxGeometry>
        </mxCell>
        <mxCell id="203" value="&lt;font style=&quot;font-size: 8px;&quot;&gt;P4&lt;br&gt;4.4.4.4&lt;/font&gt;" style="text;html=1;align=center;verticalAlign=middle;resizable=0;points=[];autosize=1;fontSize=14;fontFamily=Manrope;fontStyle=0;fontColor=#FFFFFF;" parent="1" vertex="1">
          <mxGeometry x="386" y="479" width="40" height="46" as="geometry" />
        </mxCell>
        <mxCell id="204" value="&lt;font style=&quot;font-size: 8px;&quot;&gt;P3&lt;br&gt;10.0.0.3&lt;/font&gt;" style="text;html=1;align=center;verticalAlign=middle;resizable=0;points=[];autosize=1;fontSize=14;fontFamily=Manrope;fontStyle=0;fontColor=#FFFFFF;" parent="1" vertex="1">
          <mxGeometry x="379" y="177" width="44" height="46" as="geometry" />
        </mxCell>
        <mxCell id="205" value="" style="ellipse;whiteSpace=wrap;html=1;aspect=fixed;fontColor=#FFFFFF;fontSize=6;fontFamily=Manrope;fontSource=https%3A%2F%2Ffonts.googleapis.com%2Fcss%3Ffamily%3DManrope;fillColor=#BEC8D2;strokeColor=none;" parent="1" vertex="1">
          <mxGeometry x="402" y="351" width="4" height="4" as="geometry" />
        </mxCell>
        <mxCell id="206" value="" style="edgeStyle=none;rounded=0;orthogonalLoop=1;jettySize=auto;html=1;exitX=0.5;exitY=0;exitDx=0;exitDy=0;endArrow=blockThin;endFill=1;strokeColor=#98A2AE;fontSize=5;fontFamily=Manrope;fontSource=https%3A%2F%2Ffonts.googleapis.com%2Fcss%3Ffamily%3DManrope;labelBackgroundColor=#4D5766;fontColor=#FFFFFF;endSize=0;startSize=0;strokeWidth=2;entryX=0.5;entryY=1;entryDx=0;entryDy=0;" parent="1" source="9zTi3nsKfj2Z9hqAuiEz-298" target="205" edge="1">
          <mxGeometry relative="1" as="geometry">
            <mxPoint x="397" y="527" as="sourcePoint" />
            <mxPoint x="401" y="397" as="targetPoint" />
          </mxGeometry>
        </mxCell>
        <mxCell id="207" value="" style="shape=image;verticalLabelPosition=bottom;labelBackgroundColor=default;verticalAlign=top;aspect=fixed;imageAspect=0;image=data:image/png,iVBORw0KGgoAAAANSUhEUgAAAFgAAABYCAYAAABxlTA0AAAAAXNSR0IArs4c6QAAAARnQU1BAACxjwv8YQUAAAAJcEhZcwAAFxEAABcRAcom8z8AAAikSURBVHhe7ZwJbBRVGMe3pUBrASkUlVMpV6EUQSlCCqhEjbYiIQEUETFyVEAr3hDwquCFVE2EYoTWCBTk8KgmiBfGqDEoRbkE5JByWW9UtJTC5/d/MwPD8na7OzOvu4vvS35pd3bezPS337735r039flSskijiKZZf2nBKtGCFaMFK0YLVowWrBgtWDFasGK0YMVowYrRghUTlYIbX8IX1lv+XqwRVYKb9SFfYiYlpPYlX1IP+T6xRtQIhlxfF2rf4wbasHE7jc57lF+nyfeVgYyPS+cyncWHJI4n26+uiQrBpty0jFzavfcAIU6cOEE33jY1NMnnXkoJLfrSkFH308hx0ykzeyT5knvK961rIi7YytxuOSz3oJBrxQlm+JiHapfcqCc1aXcFVR2tFuUK5y7hMh3l+9Y1ERV8WuaeLtcKSB5Rm2QW3Ljt5VT582+izKw5xbx/J/m+dU3EBFtyOXP3VBwSYhBHzSw8Wm38tCKoZC3YjwDVwosvv04LFr0tft+6fQ/d9eBs8TsCdXLA6kILtgG5cWa1UHFK7qLlq1lKGyoqXiVe7913iHz1utJtEx8TrxGoLqQNnxZsg7tQPfuNoH0HK4UMxOIV75GvQQZLuYhKSt8V2yr2/0gNL8jmbe1ofP5Msc2K2yc/Tr6G3U8dUwu2kdCVcoffLUQgFiNzIfeci1lKOhUveUdsh+DElv2N7hZnrF3yHPQSErrxxZt3e1qwDVH/duL+6gx6lbPVl8RiIdesl88Q3KiXIdLXge6Z/jy9ULRUVB3o+548phYsoSHfbTXgrznGHSAX2wIJxnuQjP2R7Xa5QAuW0BT4DegEEyzK8P7+ZYAWHCK1CQ6EFhwiWrBiIi0YjafV4Mred4IWbMLnzhkxhdp1v150JT2T/L8XzI1mHN/8jJ1cIMpu2rqTUtsMNLLZC8laMAvmu8LSVe+LsojyjdupuVeSdRXBNO5F8Uk9xC27FetZsshkt9WFFsxAIBo3vomxSy7fZEp2k8lasEkzBrftfLfon8muqgvHgnGyZL4gliImGj3h/JPDlW4Ez5hZxMdK9Tt2qFzItKEX5y+j48ePi+OJ6qKtQ8mOBfMnnX3tOCopfYezrswTFrLcHbsqxB/lRvD6b7fR3KKl4sMKm5I36CUuO2/hSvrn3ypxPAQavgsuGmRUJbJrCIRjwb6ONPn+Z8zTex8/saxwBDdhwX/+fcQsrSY+W7eREs7pceZgUzAcC45Pp+FjptL+A5Ui27xkHx/zy683GQPu3MJLz2+H90luPZDLbKadu/fR9/wtcAyX37FzL33DDVx19TFTLdERzubcYfkUl5QJafLrkOFYMPcf66VeRkmt+otM85IkRsiVnTcI9VL7ivURWBnkCC5bD3UsN5AYe64+Zgg+8k8VDcrN4+0dpOcNimPB4NzexldYBRgnlp0zGE24DMo5AWXF7MmFNOm+p4VYBORemTPemVzgSvDZBOpVXxrlP/ScqZZEIzcod4JzuUCJ4EAD49EKrpUl2uUa1YJLucBzwWgAMOPrPx0UrWAsIjGTpj8xz1RrNGhX5nggF3gqWGRCGk3i7hsWkPgSuUuDuk22b7RgCn7ltbeEXKNaMBs03N3JyoSDZ4JNuWPueFRcKGLB4jKKwyQl3pOViRaQBPytw6LBwSPv9SZzLTwRbModnfewqdaIcXcWGNVFOP3GSIBMbcKNHG6Fcb1eVmuuBZtyb817xNRqRMhre6MJFd80V4ItubZqARGTclXhWLAkc7H0dOjN9/H2tkanvZEb+GZDdt5giJsU2bE8wGl2OxJsyrU3aFVV1TQ2f6aYfsHIlluSMQYrO3cA4rgebcRlZMfyAtxKO5IctmA+CaZX8qbMMtUagYGRXXv2U+VPv4phQ7fgQRgxHhFKJnOGQe6Wbbulx/KCy9F1QyMoO38wwhbMNw+JKb1py/Y9plo1gQ8KAz+hCkaW/XH4L7O09zH4JnTfusjPHwxHVQRncOsOV9Fmzhgr0EF/oaiUZheWUCH/LJzngMJXafN3u8TxMGwZrmBkGgID7oW4Dtk5HNIla5izZ/ccCUY/MT6dWrYfRJtMIZhewSyAaOAEnZiOYdKC5hW7nzKaNaeEj9Xc79guQUPnpH/sSDAwJWMaxZKMWFH2EdfRmcanHe4FeTTpiYwLe9JTFY4FA0syZ7K9ulhZ9rEx8h+uZC1YgpDcVZrJDTDdE8qUj4UWHAB7dbHtlOQlK9dQXH3bsxS1oQUHwZSMhg9T7zU1x+n6YfnGg9my/WVowbUAydwZb99ziFgzIRZy6DrYQ8EAQtG41c8ITy7QghWjBStGC1ZMqIIxxW7vmYQi2L9MXRFTglGn4zWWmWJC1RIWTDDKYGwahNOj8YqYEoyV6Cxq+Zsf0LSCubx/B3N1UQDBkNsgg5LP60erP/yCRk14mLeH2bNxS8wIxjh0w+60jOVacecDz3KZNLGk9EzBLBJyWebaz9aL7Yhrhk42HiT3P7cqYkkw1i9MvOcp8b4VhuR2lNx6wEnBz+OBcV9rSm7ehz75vFxsQ2CNb1rX68Jf4+uGmKoiMP3vNw+ImDBllni4/FDlL+J1wewFFJ/YidZ+fipz123YSs1a8fGQvbqKCCAYoGFjybdwfWqPaQUv0e4fjH8JNr9kFa0oWyt+R6wr30opLbPrXi6IOcHAlDzaT3JNTY34if/vY8VXG76LnFwQrYKxyj2gYBBAsj2MzI1AtWAnugR3ptJVa4ScX38/HFwwsKqL8WdKRp0b0cy1iCrBLDOj3410NXelBuSMp/jmlxkSZftamJLtDd+68i2UEokGTUZUCYYM3G3FpxtyQl00aEqeMOVJ+vSLDZSCRSvRIBdElWA3QDKGSTHm4GTCVRVnjWAAyViGKnsvUpxVgqMRLVgxWrBitGDFaMGK0YIVowUrRgtWjBasGC1YMU2zjviEZY0isn78D43o8OjRWGtOAAAAAElFTkSuQmCC;" parent="1" vertex="1">
          <mxGeometry x="379" y="223" width="50" height="50" as="geometry" />
        </mxCell>
        <mxCell id="208" value="2" style="ellipse;whiteSpace=wrap;html=1;aspect=fixed;fontColor=#FFFFFF;fontSize=8;strokeColor=#98A2AE;fontFamily=Manrope;fontSource=https://fonts.googleapis.com/css?family=Manrope;fillColor=#BEC8D2;strokeWidth=1;" parent="1" vertex="1">
          <mxGeometry x="369" y="250.5" width="10" height="10" as="geometry" />
        </mxCell>
        <mxCell id="209" value="3" style="ellipse;whiteSpace=wrap;html=1;aspect=fixed;fontColor=#FFFFFF;fontSize=8;strokeColor=#98A2AE;fontFamily=Manrope;fontSource=https://fonts.googleapis.com/css?family=Manrope;fillColor=#BEC8D2;strokeWidth=1;" parent="1" vertex="1">
          <mxGeometry x="429" y="250.5" width="10" height="10" as="geometry" />
        </mxCell>
        <mxCell id="218" value="&lt;font style=&quot;font-size: 8px;&quot;&gt;1.1.1.1&lt;/font&gt;" style="text;html=1;align=center;verticalAlign=middle;resizable=0;points=[];autosize=1;fontSize=14;fontFamily=Manrope;fontStyle=0;fontColor=#FFFFFF;" parent="1" vertex="1">
          <mxGeometry x="267" y="371" width="40" height="29" as="geometry" />
        </mxCell>
        <mxCell id="219" value="&lt;font style=&quot;font-size: 8px;&quot;&gt;PE2&lt;br&gt;10.0.0.2&lt;/font&gt;" style="text;html=1;align=center;verticalAlign=middle;resizable=0;points=[];autosize=1;fontSize=14;fontFamily=Manrope;fontStyle=0;fontColor=#FFFFFF;" parent="1" vertex="1">
          <mxGeometry x="522" y="245.73" width="44" height="46" as="geometry" />
        </mxCell>
        <mxCell id="223" value="" style="edgeStyle=none;rounded=0;orthogonalLoop=1;jettySize=auto;html=1;entryX=1;entryY=1;entryDx=0;entryDy=0;endArrow=blockThin;endFill=1;strokeColor=#98A2AE;fontSize=5;fontFamily=Manrope;fontSource=https%3A%2F%2Ffonts.googleapis.com%2Fcss%3Ffamily%3DManrope;labelBackgroundColor=#4D5766;fontColor=#FFFFFF;endSize=0;startSize=0;strokeWidth=2;exitX=0;exitY=0.5;exitDx=0;exitDy=0;" parent="1" source="200" target="220" edge="1">
          <mxGeometry relative="1" as="geometry">
            <mxPoint x="374" y="453" as="sourcePoint" />
            <mxPoint x="338.4142135623731" y="430.414213562373" as="targetPoint" />
          </mxGeometry>
        </mxCell>
        <mxCell id="225" value="" style="edgeStyle=none;rounded=0;orthogonalLoop=1;jettySize=auto;html=1;exitX=0;exitY=1;exitDx=0;exitDy=0;endArrow=blockThin;endFill=1;strokeColor=#98A2AE;fontSize=5;fontFamily=Manrope;fontSource=https%3A%2F%2Ffonts.googleapis.com%2Fcss%3Ffamily%3DManrope;labelBackgroundColor=#4D5766;fontColor=#FFFFFF;endSize=0;startSize=0;strokeWidth=2;entryX=1;entryY=0.5;entryDx=0;entryDy=0;" parent="1" source="52" target="224" edge="1">
          <mxGeometry relative="1" as="geometry">
            <mxPoint x="598" y="455" as="sourcePoint" />
            <mxPoint x="468.0000000000007" y="433.5" as="targetPoint" />
          </mxGeometry>
        </mxCell>
        <mxCell id="226" value="" style="edgeStyle=none;rounded=0;orthogonalLoop=1;jettySize=auto;html=1;endArrow=blockThin;endFill=1;strokeColor=#98A2AE;fontSize=5;fontFamily=Manrope;fontSource=https%3A%2F%2Ffonts.googleapis.com%2Fcss%3Ffamily%3DManrope;labelBackgroundColor=#4D5766;fontColor=#FFFFFF;endSize=0;startSize=0;strokeWidth=2;exitX=1;exitY=0.5;exitDx=0;exitDy=0;entryX=0;entryY=0.5;entryDx=0;entryDy=0;" parent="1" source="209" target="9zTi3nsKfj2Z9hqAuiEz-363" edge="1">
          <mxGeometry relative="1" as="geometry">
            <mxPoint x="466" y="338.73" as="sourcePoint" />
            <mxPoint x="442" y="312.73" as="targetPoint" />
          </mxGeometry>
        </mxCell>
        <mxCell id="265" value="" style="rounded=1;whiteSpace=wrap;html=1;strokeColor=none;arcSize=2;" parent="1" vertex="1">
          <mxGeometry x="29.99999999999997" y="304.99000000000007" width="23" height="13.59" as="geometry" />
        </mxCell>
        <mxCell id="266" value="" style="shape=image;editableCssRules=\.color;verticalLabelPosition=bottom;labelBackgroundColor=#ffffff;verticalAlign=top;aspect=fixed;imageAspect=0;image=data:image/svg+xml,PHN2ZyB4bWxucz0iaHR0cDovL3d3dy53My5vcmcvMjAwMC9zdmciIHhtbG5zOnhsaW5rPSJodHRwOi8vd3d3LnczLm9yZy8xOTk5L3hsaW5rIiB2aWV3Qm94PSIwIDAgMTMxIDgxIiBmaWxsPSIjZmZmIiBmaWxsLXJ1bGU9ImV2ZW5vZGQiIHN0cm9rZT0iIzAwMCIgc3Ryb2tlLWxpbmVjYXA9InJvdW5kIiBzdHJva2UtbGluZWpvaW49InJvdW5kIj48dXNlIHhsaW5rOmhyZWY9IiNBIiB4PSIuNSIgeT0iLjUiLz48c3ltYm9sIGlkPSJBIiBvdmVyZmxvdz0idmlzaWJsZSI+PHBhdGggY2xhc3M9ImNvbG9yIiBkPSJNMTE5LjA3OCA2Mi43MDNWNy4yNzVjMC0yLjc0Ni0yLjU0LTcuMjc1LTUuNTgtNy4yNzVIMTYuNDc1Yy0zLjA0IDAtNi4wOCA0LjUzLTYuMDggNy4yNzV2NTUuNDI3Qy0uNDk4IDc0LjI0NC4wMDQgNzQuMjQ0LjAwNCA3NC4yNDQuMDA0IDc3LjUxNiAzLjA0NCA4MCA2Ljg1MiA4MGgxMTYuM2MzLjgwOCAwIDYuODQ4LTIuNzQ3IDYuODQ4LTUuNzU2bC0xMC45MjItMTEuNTR6TTczLjk3NSA3NS4yMzdoLTIwLjI4Yy0xLjAwNCAwLTIuMDM3LS40OTctMi4wMzctLjk5M2wyLjI3My0zLjc3YzAtLjQ5Ny43NjctLjc2IDEuNzctLjc2SDcxLjkxYy43NjcgMCAxLjUzNS4yNjMgMS41MzUuNzZsMi41NCAzLjc3Yy4wMy43My0xLjAwNC45OTMtMi4wMDcuOTkzaDB6bTQwLjI5Mi0xMi43OThIMTUuMjA1VjcuNzcyYzAtMS4yNTYgMS4yNy0zLjAxIDIuNzc1LTMuMDFoOTMuNzVjMS41MzUgMCAyLjU0IDEuNzUzIDIuNTQgM1Y2Mi40NHoiIGZpbGw9IiMyYTMyODIiIHN0cm9rZT0ibm9uZSIvPjwvc3ltYm9sPjxzdHlsZSB0eXBlPSJ0ZXh0L2NzcyI+LmNvbG9yIHsgZmlsbDogcmdiKDAsIDE3LCA1Myk7IH0gPC9zdHlsZT48L3N2Zz4=;" parent="1" vertex="1">
          <mxGeometry x="25.99999999999997" y="303.14000000000004" width="31.197407407407447" height="19.290000000000017" as="geometry" />
        </mxCell>
        <mxCell id="267" value="" style="shape=image;verticalLabelPosition=bottom;labelBackgroundColor=#ffffff;verticalAlign=top;aspect=fixed;imageAspect=0;image=data:image/svg+xml,PHN2ZyB4bWxucz0iaHR0cDovL3d3dy53My5vcmcvMjAwMC9zdmciIHhtbG5zOnhsaW5rPSJodHRwOi8vd3d3LnczLm9yZy8xOTk5L3hsaW5rIiB2aWV3Qm94PSIwIDAgNjUgNTciIGZpbGw9IiNmZmYiIGZpbGwtcnVsZT0iZXZlbm9kZCIgc3Ryb2tlPSIjMDAwIiBzdHJva2UtbGluZWNhcD0icm91bmQiIHN0cm9rZS1saW5lam9pbj0icm91bmQiPjx1c2UgeGxpbms6aHJlZj0iI0EiIHg9Ii41IiB5PSIuNSIvPjxzeW1ib2wgaWQ9IkEiIG92ZXJmbG93PSJ2aXNpYmxlIj48ZyBzdHJva2U9Im5vbmUiIGZpbGw9IiMwZDU5N2YiIGZpbGwtcnVsZT0ibm9uemVybyI+PHBhdGggZD0iTTIzLjI1MiAzNC41Mjd2LTYuNzQ1bC00Ljg1NSA0Ljg2NGMuNDc0LjMzMy45NjguNjM1IDEuNDguOTA2LjQ2My4yNDMuODcuNDM0IDEuMzAzLjU4YTcuOTcgNy45NyAwIDAgMCAxLjEzLjMwNGMuMzQ4LjA2NC42Ni4wOTMuOTUuMDk2bTI0LjgyMi0uNTYyYTEuMTcgMS4xNyAwIDAgMCAuMTQyLjFjLjEyMy4wNzguMjUyLjE0NS4zODUuMjAzYTIuOTMgMi45MyAwIDAgMCAuNjM3LjE5NGMuMjk2LjA2LjU5OC4wODguOS4wODdhNS44NCA1Ljg0IDAgMCAwIC45NTUtLjA4NyA3LjI0IDcuMjQgMCAwIDAgMS4xMzgtLjMwMWMuNDUzLS4xNi44OTUtLjM1NCAxLjMyLS41OC41Mi0uMjc0IDEuMDItLjU4IDEuNTAzLS45MThsLTMuNjg1LTMuNi0xMi4yLTEyLjI1OC01LjM1NiA1LjM1Ni03LjIzLTcuNDU1TDguNDQgMzIuNjQ3Yy40OC4zMzcuOTguNjQ0IDEuNS45MTguNDcuMjQ2LjkuNDM0IDEuMzE3LjU4YTcuMTggNy4xOCAwIDAgMCAxLjEzNS4zMDEgNS41MyA1LjUzIDAgMCAwIC45NTUuMDg3IDQuNTMgNC41MyAwIDAgMCAuOS0uMDg3IDMuMjkgMy4yOSAwIDAgMCAuNjM3LS4xOTRjLjEzNC0uMDU0LjI2My0uMTIuMzg1LS4xOTdsLjE0NS0uMTA0IDguMTkzLTguMTkzIDIuOTI0LTIuODA4IDguMTA2IDguMTA2IDIuODM3IDIuOTEyYy4wNDYuMDM3LjA5NC4wNy4xNDUuMS4xMjIuMDc4LjI1LjE0NS4zODUuMmEzLjQ5IDMuNDkgMCAwIDAgLjYzNy4xOTRjLjI1NS4wNTIuNTU2LjA4Ny45MDMuMDg3YTUuODQgNS44NCAwIDAgMCAuOTU1LS4wODdjLjM4Ny0uMDY4Ljc2OC0uMTY4IDEuMTM4LS4zYTkuOTQgOS45NCAwIDAgMCAxLjMyLS41NzljLjUyLS4yNzQgMS4wMi0uNTggMS41MDMtLjkxOGwtNi41MDgtNi4zNyAxLjItMS4yIDUuNjMgNS42MyAzLjI4MyAzLjI1NE00Ny45OTYuMDJsMTUuOTk4IDI3LjcxNC0xNS45OSAyNy42OTRIMTUuOTk4TDAgMjcuNzE0IDE1Ljk5OCAweiIvPjxwYXRoIGQ9Ik0zOC4wMjIgMjYuMzY3TDMzLjc2IDIyLjExbC4zMDQtLjMwNCA0LjMgNC4yNDR6Ii8+PC9nPjwvc3ltYm9sPjwvc3ZnPg==;fontColor=#001135;" parent="1" vertex="1">
          <mxGeometry x="35.88999999999996" y="306.78" width="11.71" height="10.27" as="geometry" />
        </mxCell>
        <mxCell id="268" value="eth1" style="whiteSpace=wrap;html=1;fontFamily=Manrope;fontSource=https%3A%2F%2Ffonts.googleapis.com%2Fcss%3Ffamily%3DManrope;fontSize=6;align=center;fillColor=#BEC8D2;fontColor=#FFFFFF;strokeColor=#98A2AE;perimeterSpacing=0;rounded=1;" parent="1" vertex="1">
          <mxGeometry x="34.99999999999997" y="297.58" width="14" height="6" as="geometry" />
        </mxCell>
        <mxCell id="269" value="" style="shape=image;editableCssRules=\.color;verticalLabelPosition=bottom;labelBackgroundColor=#ffffff;verticalAlign=top;aspect=fixed;imageAspect=0;image=data:image/svg+xml,PHN2ZyB4bWxucz0iaHR0cDovL3d3dy53My5vcmcvMjAwMC9zdmciIHhtbG5zOnhsaW5rPSJodHRwOi8vd3d3LnczLm9yZy8xOTk5L3hsaW5rIiB2aWV3Qm94PSIwIDAgMTMxIDgxIiBmaWxsPSIjZmZmIiBmaWxsLXJ1bGU9ImV2ZW5vZGQiIHN0cm9rZT0iIzAwMCIgc3Ryb2tlLWxpbmVjYXA9InJvdW5kIiBzdHJva2UtbGluZWpvaW49InJvdW5kIj48dXNlIHhsaW5rOmhyZWY9IiNBIiB4PSIuNSIgeT0iLjUiLz48c3ltYm9sIGlkPSJBIiBvdmVyZmxvdz0idmlzaWJsZSI+PHBhdGggY2xhc3M9ImNvbG9yIiBkPSJNMTE5LjA3OCA2Mi43MDNWNy4yNzVjMC0yLjc0Ni0yLjU0LTcuMjc1LTUuNTgtNy4yNzVIMTYuNDc1Yy0zLjA0IDAtNi4wOCA0LjUzLTYuMDggNy4yNzV2NTUuNDI3Qy0uNDk4IDc0LjI0NC4wMDQgNzQuMjQ0LjAwNCA3NC4yNDQuMDA0IDc3LjUxNiAzLjA0NCA4MCA2Ljg1MiA4MGgxMTYuM2MzLjgwOCAwIDYuODQ4LTIuNzQ3IDYuODQ4LTUuNzU2bC0xMC45MjItMTEuNTR6TTczLjk3NSA3NS4yMzdoLTIwLjI4Yy0xLjAwNCAwLTIuMDM3LS40OTctMi4wMzctLjk5M2wyLjI3My0zLjc3YzAtLjQ5Ny43NjctLjc2IDEuNzctLjc2SDcxLjkxYy43NjcgMCAxLjUzNS4yNjMgMS41MzUuNzZsMi41NCAzLjc3Yy4wMy43My0xLjAwNC45OTMtMi4wMDcuOTkzaDB6bTQwLjI5Mi0xMi43OThIMTUuMjA1VjcuNzcyYzAtMS4yNTYgMS4yNy0zLjAxIDIuNzc1LTMuMDFoOTMuNzVjMS41MzUgMCAyLjU0IDEuNzUzIDIuNTQgM1Y2Mi40NHoiIGZpbGw9IiMyYTMyODIiIHN0cm9rZT0ibm9uZSIvPjwvc3ltYm9sPjxzdHlsZSB0eXBlPSJ0ZXh0L2NzcyI+LmNvbG9yIHsgZmlsbDogcmdiKDAsIDE3LCA1Myk7IH0gPC9zdHlsZT48L3N2Zz4=;" parent="1" vertex="1">
          <mxGeometry x="25.99999999999997" y="303.14000000000004" width="31.197407407407447" height="19.290000000000017" as="geometry" />
        </mxCell>
        <mxCell id="270" value="" style="shape=image;verticalLabelPosition=bottom;labelBackgroundColor=#ffffff;verticalAlign=top;aspect=fixed;imageAspect=0;image=data:image/svg+xml,PHN2ZyB4bWxucz0iaHR0cDovL3d3dy53My5vcmcvMjAwMC9zdmciIHhtbG5zOnhsaW5rPSJodHRwOi8vd3d3LnczLm9yZy8xOTk5L3hsaW5rIiB2aWV3Qm94PSIwIDAgNjUgNTciIGZpbGw9IiNmZmYiIGZpbGwtcnVsZT0iZXZlbm9kZCIgc3Ryb2tlPSIjMDAwIiBzdHJva2UtbGluZWNhcD0icm91bmQiIHN0cm9rZS1saW5lam9pbj0icm91bmQiPjx1c2UgeGxpbms6aHJlZj0iI0EiIHg9Ii41IiB5PSIuNSIvPjxzeW1ib2wgaWQ9IkEiIG92ZXJmbG93PSJ2aXNpYmxlIj48ZyBzdHJva2U9Im5vbmUiIGZpbGw9IiMwZDU5N2YiIGZpbGwtcnVsZT0ibm9uemVybyI+PHBhdGggZD0iTTIzLjI1MiAzNC41Mjd2LTYuNzQ1bC00Ljg1NSA0Ljg2NGMuNDc0LjMzMy45NjguNjM1IDEuNDguOTA2LjQ2My4yNDMuODcuNDM0IDEuMzAzLjU4YTcuOTcgNy45NyAwIDAgMCAxLjEzLjMwNGMuMzQ4LjA2NC42Ni4wOTMuOTUuMDk2bTI0LjgyMi0uNTYyYTEuMTcgMS4xNyAwIDAgMCAuMTQyLjFjLjEyMy4wNzguMjUyLjE0NS4zODUuMjAzYTIuOTMgMi45MyAwIDAgMCAuNjM3LjE5NGMuMjk2LjA2LjU5OC4wODguOS4wODdhNS44NCA1Ljg0IDAgMCAwIC45NTUtLjA4NyA3LjI0IDcuMjQgMCAwIDAgMS4xMzgtLjMwMWMuNDUzLS4xNi44OTUtLjM1NCAxLjMyLS41OC41Mi0uMjc0IDEuMDItLjU4IDEuNTAzLS45MThsLTMuNjg1LTMuNi0xMi4yLTEyLjI1OC01LjM1NiA1LjM1Ni03LjIzLTcuNDU1TDguNDQgMzIuNjQ3Yy40OC4zMzcuOTguNjQ0IDEuNS45MTguNDcuMjQ2LjkuNDM0IDEuMzE3LjU4YTcuMTggNy4xOCAwIDAgMCAxLjEzNS4zMDEgNS41MyA1LjUzIDAgMCAwIC45NTUuMDg3IDQuNTMgNC41MyAwIDAgMCAuOS0uMDg3IDMuMjkgMy4yOSAwIDAgMCAuNjM3LS4xOTRjLjEzNC0uMDU0LjI2My0uMTIuMzg1LS4xOTdsLjE0NS0uMTA0IDguMTkzLTguMTkzIDIuOTI0LTIuODA4IDguMTA2IDguMTA2IDIuODM3IDIuOTEyYy4wNDYuMDM3LjA5NC4wNy4xNDUuMS4xMjIuMDc4LjI1LjE0NS4zODUuMmEzLjQ5IDMuNDkgMCAwIDAgLjYzNy4xOTRjLjI1NS4wNTIuNTU2LjA4Ny45MDMuMDg3YTUuODQgNS44NCAwIDAgMCAuOTU1LS4wODdjLjM4Ny0uMDY4Ljc2OC0uMTY4IDEuMTM4LS4zYTkuOTQgOS45NCAwIDAgMCAxLjMyLS41NzljLjUyLS4yNzQgMS4wMi0uNTggMS41MDMtLjkxOGwtNi41MDgtNi4zNyAxLjItMS4yIDUuNjMgNS42MyAzLjI4MyAzLjI1NE00Ny45OTYuMDJsMTUuOTk4IDI3LjcxNC0xNS45OSAyNy42OTRIMTUuOTk4TDAgMjcuNzE0IDE1Ljk5OCAweiIvPjxwYXRoIGQ9Ik0zOC4wMjIgMjYuMzY3TDMzLjc2IDIyLjExbC4zMDQtLjMwNCA0LjMgNC4yNDR6Ii8+PC9nPjwvc3ltYm9sPjwvc3ZnPg==;fontColor=#001135;" parent="1" vertex="1">
          <mxGeometry x="35.88999999999996" y="306.78" width="11.71" height="10.27" as="geometry" />
        </mxCell>
        <mxCell id="271" value="eth1" style="whiteSpace=wrap;html=1;fontFamily=Manrope;fontSource=https%3A%2F%2Ffonts.googleapis.com%2Fcss%3Ffamily%3DManrope;fontSize=6;align=center;fillColor=#BEC8D2;fontColor=#FFFFFF;strokeColor=#98A2AE;perimeterSpacing=0;rounded=1;" parent="1" vertex="1">
          <mxGeometry x="34.99999999999997" y="297.58" width="14" height="6" as="geometry" />
        </mxCell>
        <mxCell id="272" value="" style="shape=image;editableCssRules=\.color;verticalLabelPosition=bottom;labelBackgroundColor=#ffffff;verticalAlign=top;aspect=fixed;imageAspect=0;image=data:image/svg+xml,PHN2ZyB4bWxucz0iaHR0cDovL3d3dy53My5vcmcvMjAwMC9zdmciIHhtbG5zOnhsaW5rPSJodHRwOi8vd3d3LnczLm9yZy8xOTk5L3hsaW5rIiB2aWV3Qm94PSIwIDAgMTMxIDgxIiBmaWxsPSIjZmZmIiBmaWxsLXJ1bGU9ImV2ZW5vZGQiIHN0cm9rZT0iIzAwMCIgc3Ryb2tlLWxpbmVjYXA9InJvdW5kIiBzdHJva2UtbGluZWpvaW49InJvdW5kIj48dXNlIHhsaW5rOmhyZWY9IiNBIiB4PSIuNSIgeT0iLjUiLz48c3ltYm9sIGlkPSJBIiBvdmVyZmxvdz0idmlzaWJsZSI+PHBhdGggY2xhc3M9ImNvbG9yIiBkPSJNMTE5LjA3OCA2Mi43MDNWNy4yNzVjMC0yLjc0Ni0yLjU0LTcuMjc1LTUuNTgtNy4yNzVIMTYuNDc1Yy0zLjA0IDAtNi4wOCA0LjUzLTYuMDggNy4yNzV2NTUuNDI3Qy0uNDk4IDc0LjI0NC4wMDQgNzQuMjQ0LjAwNCA3NC4yNDQuMDA0IDc3LjUxNiAzLjA0NCA4MCA2Ljg1MiA4MGgxMTYuM2MzLjgwOCAwIDYuODQ4LTIuNzQ3IDYuODQ4LTUuNzU2bC0xMC45MjItMTEuNTR6TTczLjk3NSA3NS4yMzdoLTIwLjI4Yy0xLjAwNCAwLTIuMDM3LS40OTctMi4wMzctLjk5M2wyLjI3My0zLjc3YzAtLjQ5Ny43NjctLjc2IDEuNzctLjc2SDcxLjkxYy43NjcgMCAxLjUzNS4yNjMgMS41MzUuNzZsMi41NCAzLjc3Yy4wMy43My0xLjAwNC45OTMtMi4wMDcuOTkzaDB6bTQwLjI5Mi0xMi43OThIMTUuMjA1VjcuNzcyYzAtMS4yNTYgMS4yNy0zLjAxIDIuNzc1LTMuMDFoOTMuNzVjMS41MzUgMCAyLjU0IDEuNzUzIDIuNTQgM1Y2Mi40NHoiIGZpbGw9IiMyYTMyODIiIHN0cm9rZT0ibm9uZSIvPjwvc3ltYm9sPjxzdHlsZSB0eXBlPSJ0ZXh0L2NzcyI+LmNvbG9yIHsgZmlsbDogcmdiKDAsIDE3LCA1Myk7IH0gPC9zdHlsZT48L3N2Zz4=;" parent="1" vertex="1">
          <mxGeometry x="25.99999999999997" y="303.14000000000004" width="31.197407407407447" height="19.290000000000017" as="geometry" />
        </mxCell>
        <mxCell id="273" value="" style="shape=image;verticalLabelPosition=bottom;labelBackgroundColor=#ffffff;verticalAlign=top;aspect=fixed;imageAspect=0;image=data:image/svg+xml,PHN2ZyB4bWxucz0iaHR0cDovL3d3dy53My5vcmcvMjAwMC9zdmciIHhtbG5zOnhsaW5rPSJodHRwOi8vd3d3LnczLm9yZy8xOTk5L3hsaW5rIiB2aWV3Qm94PSIwIDAgNjUgNTciIGZpbGw9IiNmZmYiIGZpbGwtcnVsZT0iZXZlbm9kZCIgc3Ryb2tlPSIjMDAwIiBzdHJva2UtbGluZWNhcD0icm91bmQiIHN0cm9rZS1saW5lam9pbj0icm91bmQiPjx1c2UgeGxpbms6aHJlZj0iI0EiIHg9Ii41IiB5PSIuNSIvPjxzeW1ib2wgaWQ9IkEiIG92ZXJmbG93PSJ2aXNpYmxlIj48ZyBzdHJva2U9Im5vbmUiIGZpbGw9IiMwZDU5N2YiIGZpbGwtcnVsZT0ibm9uemVybyI+PHBhdGggZD0iTTIzLjI1MiAzNC41Mjd2LTYuNzQ1bC00Ljg1NSA0Ljg2NGMuNDc0LjMzMy45NjguNjM1IDEuNDguOTA2LjQ2My4yNDMuODcuNDM0IDEuMzAzLjU4YTcuOTcgNy45NyAwIDAgMCAxLjEzLjMwNGMuMzQ4LjA2NC42Ni4wOTMuOTUuMDk2bTI0LjgyMi0uNTYyYTEuMTcgMS4xNyAwIDAgMCAuMTQyLjFjLjEyMy4wNzguMjUyLjE0NS4zODUuMjAzYTIuOTMgMi45MyAwIDAgMCAuNjM3LjE5NGMuMjk2LjA2LjU5OC4wODguOS4wODdhNS44NCA1Ljg0IDAgMCAwIC45NTUtLjA4NyA3LjI0IDcuMjQgMCAwIDAgMS4xMzgtLjMwMWMuNDUzLS4xNi44OTUtLjM1NCAxLjMyLS41OC41Mi0uMjc0IDEuMDItLjU4IDEuNTAzLS45MThsLTMuNjg1LTMuNi0xMi4yLTEyLjI1OC01LjM1NiA1LjM1Ni03LjIzLTcuNDU1TDguNDQgMzIuNjQ3Yy40OC4zMzcuOTguNjQ0IDEuNS45MTguNDcuMjQ2LjkuNDM0IDEuMzE3LjU4YTcuMTggNy4xOCAwIDAgMCAxLjEzNS4zMDEgNS41MyA1LjUzIDAgMCAwIC45NTUuMDg3IDQuNTMgNC41MyAwIDAgMCAuOS0uMDg3IDMuMjkgMy4yOSAwIDAgMCAuNjM3LS4xOTRjLjEzNC0uMDU0LjI2My0uMTIuMzg1LS4xOTdsLjE0NS0uMTA0IDguMTkzLTguMTkzIDIuOTI0LTIuODA4IDguMTA2IDguMTA2IDIuODM3IDIuOTEyYy4wNDYuMDM3LjA5NC4wNy4xNDUuMS4xMjIuMDc4LjI1LjE0NS4zODUuMmEzLjQ5IDMuNDkgMCAwIDAgLjYzNy4xOTRjLjI1NS4wNTIuNTU2LjA4Ny45MDMuMDg3YTUuODQgNS44NCAwIDAgMCAuOTU1LS4wODdjLjM4Ny0uMDY4Ljc2OC0uMTY4IDEuMTM4LS4zYTkuOTQgOS45NCAwIDAgMCAxLjMyLS41NzljLjUyLS4yNzQgMS4wMi0uNTggMS41MDMtLjkxOGwtNi41MDgtNi4zNyAxLjItMS4yIDUuNjMgNS42MyAzLjI4MyAzLjI1NE00Ny45OTYuMDJsMTUuOTk4IDI3LjcxNC0xNS45OSAyNy42OTRIMTUuOTk4TDAgMjcuNzE0IDE1Ljk5OCAweiIvPjxwYXRoIGQ9Ik0zOC4wMjIgMjYuMzY3TDMzLjc2IDIyLjExbC4zMDQtLjMwNCA0LjMgNC4yNDR6Ii8+PC9nPjwvc3ltYm9sPjwvc3ZnPg==;fontColor=#001135;" parent="1" vertex="1">
          <mxGeometry x="35.88999999999996" y="306.78" width="11.71" height="10.27" as="geometry" />
        </mxCell>
        <mxCell id="274" value="eth1" style="whiteSpace=wrap;html=1;fontFamily=Manrope;fontSource=https%3A%2F%2Ffonts.googleapis.com%2Fcss%3Ffamily%3DManrope;fontSize=6;align=center;fillColor=#BEC8D2;fontColor=#FFFFFF;strokeColor=#98A2AE;perimeterSpacing=0;rounded=1;" parent="1" vertex="1">
          <mxGeometry x="34.99999999999997" y="297.58" width="14" height="6" as="geometry" />
        </mxCell>
        <mxCell id="9zTi3nsKfj2Z9hqAuiEz-296" value="1" style="ellipse;whiteSpace=wrap;html=1;aspect=fixed;fontColor=#FFFFFF;fontSize=8;strokeColor=#98A2AE;fontFamily=Manrope;fontSource=https://fonts.googleapis.com/css?family=Manrope;fillColor=#BEC8D2;strokeWidth=1;" parent="1" vertex="1">
          <mxGeometry x="399" y="273" width="10" height="10" as="geometry" />
        </mxCell>
        <mxCell id="9zTi3nsKfj2Z9hqAuiEz-298" value="1" style="ellipse;whiteSpace=wrap;html=1;aspect=fixed;fontColor=#FFFFFF;fontSize=8;strokeColor=#98A2AE;fontFamily=Manrope;fontSource=https://fonts.googleapis.com/css?family=Manrope;fillColor=#BEC8D2;strokeWidth=1;" parent="1" vertex="1">
          <mxGeometry x="399" y="423.5" width="10" height="10" as="geometry" />
        </mxCell>
        <mxCell id="199" value="3" style="ellipse;whiteSpace=wrap;html=1;aspect=fixed;fontColor=#FFFFFF;fontSize=8;strokeColor=#98A2AE;fontFamily=Manrope;fontSource=https://fonts.googleapis.com/css?family=Manrope;fillColor=#BEC8D2;strokeWidth=1;" parent="1" vertex="1">
          <mxGeometry x="429" y="451.5" width="10" height="10" as="geometry" />
        </mxCell>
        <mxCell id="198" value="" style="shape=image;verticalLabelPosition=bottom;labelBackgroundColor=default;verticalAlign=top;aspect=fixed;imageAspect=0;image=data:image/png,iVBORw0KGgoAAAANSUhEUgAAAFgAAABYCAYAAABxlTA0AAAAAXNSR0IArs4c6QAAAARnQU1BAACxjwv8YQUAAAAJcEhZcwAAFxEAABcRAcom8z8AAAikSURBVHhe7ZwJbBRVGMe3pUBrASkUlVMpV6EUQSlCCqhEjbYiIQEUETFyVEAr3hDwquCFVE2EYoTWCBTk8KgmiBfGqDEoRbkE5JByWW9UtJTC5/d/MwPD8na7OzOvu4vvS35pd3bezPS337735r039flSskijiKZZf2nBKtGCFaMFK0YLVowWrBgtWDFasGK0YMVowYrRghUTlYIbX8IX1lv+XqwRVYKb9SFfYiYlpPYlX1IP+T6xRtQIhlxfF2rf4wbasHE7jc57lF+nyfeVgYyPS+cyncWHJI4n26+uiQrBpty0jFzavfcAIU6cOEE33jY1NMnnXkoJLfrSkFH308hx0ykzeyT5knvK961rIi7YytxuOSz3oJBrxQlm+JiHapfcqCc1aXcFVR2tFuUK5y7hMh3l+9Y1ERV8WuaeLtcKSB5Rm2QW3Ljt5VT582+izKw5xbx/J/m+dU3EBFtyOXP3VBwSYhBHzSw8Wm38tCKoZC3YjwDVwosvv04LFr0tft+6fQ/d9eBs8TsCdXLA6kILtgG5cWa1UHFK7qLlq1lKGyoqXiVe7913iHz1utJtEx8TrxGoLqQNnxZsg7tQPfuNoH0HK4UMxOIV75GvQQZLuYhKSt8V2yr2/0gNL8jmbe1ofP5Msc2K2yc/Tr6G3U8dUwu2kdCVcoffLUQgFiNzIfeci1lKOhUveUdsh+DElv2N7hZnrF3yHPQSErrxxZt3e1qwDVH/duL+6gx6lbPVl8RiIdesl88Q3KiXIdLXge6Z/jy9ULRUVB3o+548phYsoSHfbTXgrznGHSAX2wIJxnuQjP2R7Xa5QAuW0BT4DegEEyzK8P7+ZYAWHCK1CQ6EFhwiWrBiIi0YjafV4Mred4IWbMLnzhkxhdp1v150JT2T/L8XzI1mHN/8jJ1cIMpu2rqTUtsMNLLZC8laMAvmu8LSVe+LsojyjdupuVeSdRXBNO5F8Uk9xC27FetZsshkt9WFFsxAIBo3vomxSy7fZEp2k8lasEkzBrftfLfon8muqgvHgnGyZL4gliImGj3h/JPDlW4Ez5hZxMdK9Tt2qFzItKEX5y+j48ePi+OJ6qKtQ8mOBfMnnX3tOCopfYezrswTFrLcHbsqxB/lRvD6b7fR3KKl4sMKm5I36CUuO2/hSvrn3ypxPAQavgsuGmRUJbJrCIRjwb6ONPn+Z8zTex8/saxwBDdhwX/+fcQsrSY+W7eREs7pceZgUzAcC45Pp+FjptL+A5Ui27xkHx/zy683GQPu3MJLz2+H90luPZDLbKadu/fR9/wtcAyX37FzL33DDVx19TFTLdERzubcYfkUl5QJafLrkOFYMPcf66VeRkmt+otM85IkRsiVnTcI9VL7ivURWBnkCC5bD3UsN5AYe64+Zgg+8k8VDcrN4+0dpOcNimPB4NzexldYBRgnlp0zGE24DMo5AWXF7MmFNOm+p4VYBORemTPemVzgSvDZBOpVXxrlP/ScqZZEIzcod4JzuUCJ4EAD49EKrpUl2uUa1YJLucBzwWgAMOPrPx0UrWAsIjGTpj8xz1RrNGhX5nggF3gqWGRCGk3i7hsWkPgSuUuDuk22b7RgCn7ltbeEXKNaMBs03N3JyoSDZ4JNuWPueFRcKGLB4jKKwyQl3pOViRaQBPytw6LBwSPv9SZzLTwRbModnfewqdaIcXcWGNVFOP3GSIBMbcKNHG6Fcb1eVmuuBZtyb817xNRqRMhre6MJFd80V4ItubZqARGTclXhWLAkc7H0dOjN9/H2tkanvZEb+GZDdt5giJsU2bE8wGl2OxJsyrU3aFVV1TQ2f6aYfsHIlluSMQYrO3cA4rgebcRlZMfyAtxKO5IctmA+CaZX8qbMMtUagYGRXXv2U+VPv4phQ7fgQRgxHhFKJnOGQe6Wbbulx/KCy9F1QyMoO38wwhbMNw+JKb1py/Y9plo1gQ8KAz+hCkaW/XH4L7O09zH4JnTfusjPHwxHVQRncOsOV9Fmzhgr0EF/oaiUZheWUCH/LJzngMJXafN3u8TxMGwZrmBkGgID7oW4Dtk5HNIla5izZ/ccCUY/MT6dWrYfRJtMIZhewSyAaOAEnZiOYdKC5hW7nzKaNaeEj9Xc79guQUPnpH/sSDAwJWMaxZKMWFH2EdfRmcanHe4FeTTpiYwLe9JTFY4FA0syZ7K9ulhZ9rEx8h+uZC1YgpDcVZrJDTDdE8qUj4UWHAB7dbHtlOQlK9dQXH3bsxS1oQUHwZSMhg9T7zU1x+n6YfnGg9my/WVowbUAydwZb99ziFgzIRZy6DrYQ8EAQtG41c8ITy7QghWjBStGC1ZMqIIxxW7vmYQi2L9MXRFTglGn4zWWmWJC1RIWTDDKYGwahNOj8YqYEoyV6Cxq+Zsf0LSCubx/B3N1UQDBkNsgg5LP60erP/yCRk14mLeH2bNxS8wIxjh0w+60jOVacecDz3KZNLGk9EzBLBJyWebaz9aL7Yhrhk42HiT3P7cqYkkw1i9MvOcp8b4VhuR2lNx6wEnBz+OBcV9rSm7ehz75vFxsQ2CNb1rX68Jf4+uGmKoiMP3vNw+ImDBllni4/FDlL+J1wewFFJ/YidZ+fipz123YSs1a8fGQvbqKCCAYoGFjybdwfWqPaQUv0e4fjH8JNr9kFa0oWyt+R6wr30opLbPrXi6IOcHAlDzaT3JNTY34if/vY8VXG76LnFwQrYKxyj2gYBBAsj2MzI1AtWAnugR3ptJVa4ScX38/HFwwsKqL8WdKRp0b0cy1iCrBLDOj3410NXelBuSMp/jmlxkSZftamJLtDd+68i2UEokGTUZUCYYM3G3FpxtyQl00aEqeMOVJ+vSLDZSCRSvRIBdElWA3QDKGSTHm4GTCVRVnjWAAyViGKnsvUpxVgqMRLVgxWrBitGDFaMGK0YIVowUrRgtWjBasGC1YMU2zjviEZY0isn78D43o8OjRWGtOAAAAAElFTkSuQmCC;" parent="1" vertex="1">
          <mxGeometry x="379" y="433.5" width="50" height="50" as="geometry" />
        </mxCell>
        <mxCell id="200" value="2" style="ellipse;whiteSpace=wrap;html=1;aspect=fixed;fontColor=#FFFFFF;fontSize=8;strokeColor=#98A2AE;fontFamily=Manrope;fontSource=https://fonts.googleapis.com/css?family=Manrope;fillColor=#BEC8D2;strokeWidth=1;" parent="1" vertex="1">
          <mxGeometry x="374" y="448" width="10" height="10" as="geometry" />
        </mxCell>
        <mxCell id="46" value="" style="shape=image;verticalLabelPosition=bottom;labelBackgroundColor=default;verticalAlign=top;aspect=fixed;imageAspect=0;image=data:image/png,iVBORw0KGgoAAAANSUhEUgAAAFgAAABYCAYAAABxlTA0AAAAAXNSR0IArs4c6QAAAARnQU1BAACxjwv8YQUAAAAJcEhZcwAAFxEAABcRAcom8z8AAAikSURBVHhe7ZwJbBRVGMe3pUBrASkUlVMpV6EUQSlCCqhEjbYiIQEUETFyVEAr3hDwquCFVE2EYoTWCBTk8KgmiBfGqDEoRbkE5JByWW9UtJTC5/d/MwPD8na7OzOvu4vvS35pd3bezPS337735r039flSskijiKZZf2nBKtGCFaMFK0YLVowWrBgtWDFasGK0YMVowYrRghUTlYIbX8IX1lv+XqwRVYKb9SFfYiYlpPYlX1IP+T6xRtQIhlxfF2rf4wbasHE7jc57lF+nyfeVgYyPS+cyncWHJI4n26+uiQrBpty0jFzavfcAIU6cOEE33jY1NMnnXkoJLfrSkFH308hx0ykzeyT5knvK961rIi7YytxuOSz3oJBrxQlm+JiHapfcqCc1aXcFVR2tFuUK5y7hMh3l+9Y1ERV8WuaeLtcKSB5Rm2QW3Ljt5VT582+izKw5xbx/J/m+dU3EBFtyOXP3VBwSYhBHzSw8Wm38tCKoZC3YjwDVwosvv04LFr0tft+6fQ/d9eBs8TsCdXLA6kILtgG5cWa1UHFK7qLlq1lKGyoqXiVe7913iHz1utJtEx8TrxGoLqQNnxZsg7tQPfuNoH0HK4UMxOIV75GvQQZLuYhKSt8V2yr2/0gNL8jmbe1ofP5Msc2K2yc/Tr6G3U8dUwu2kdCVcoffLUQgFiNzIfeci1lKOhUveUdsh+DElv2N7hZnrF3yHPQSErrxxZt3e1qwDVH/duL+6gx6lbPVl8RiIdesl88Q3KiXIdLXge6Z/jy9ULRUVB3o+548phYsoSHfbTXgrznGHSAX2wIJxnuQjP2R7Xa5QAuW0BT4DegEEyzK8P7+ZYAWHCK1CQ6EFhwiWrBiIi0YjafV4Mred4IWbMLnzhkxhdp1v150JT2T/L8XzI1mHN/8jJ1cIMpu2rqTUtsMNLLZC8laMAvmu8LSVe+LsojyjdupuVeSdRXBNO5F8Uk9xC27FetZsshkt9WFFsxAIBo3vomxSy7fZEp2k8lasEkzBrftfLfon8muqgvHgnGyZL4gliImGj3h/JPDlW4Ez5hZxMdK9Tt2qFzItKEX5y+j48ePi+OJ6qKtQ8mOBfMnnX3tOCopfYezrswTFrLcHbsqxB/lRvD6b7fR3KKl4sMKm5I36CUuO2/hSvrn3ypxPAQavgsuGmRUJbJrCIRjwb6ONPn+Z8zTex8/saxwBDdhwX/+fcQsrSY+W7eREs7pceZgUzAcC45Pp+FjptL+A5Ui27xkHx/zy683GQPu3MJLz2+H90luPZDLbKadu/fR9/wtcAyX37FzL33DDVx19TFTLdERzubcYfkUl5QJafLrkOFYMPcf66VeRkmt+otM85IkRsiVnTcI9VL7ivURWBnkCC5bD3UsN5AYe64+Zgg+8k8VDcrN4+0dpOcNimPB4NzexldYBRgnlp0zGE24DMo5AWXF7MmFNOm+p4VYBORemTPemVzgSvDZBOpVXxrlP/ScqZZEIzcod4JzuUCJ4EAD49EKrpUl2uUa1YJLucBzwWgAMOPrPx0UrWAsIjGTpj8xz1RrNGhX5nggF3gqWGRCGk3i7hsWkPgSuUuDuk22b7RgCn7ltbeEXKNaMBs03N3JyoSDZ4JNuWPueFRcKGLB4jKKwyQl3pOViRaQBPytw6LBwSPv9SZzLTwRbModnfewqdaIcXcWGNVFOP3GSIBMbcKNHG6Fcb1eVmuuBZtyb817xNRqRMhre6MJFd80V4ItubZqARGTclXhWLAkc7H0dOjN9/H2tkanvZEb+GZDdt5giJsU2bE8wGl2OxJsyrU3aFVV1TQ2f6aYfsHIlluSMQYrO3cA4rgebcRlZMfyAtxKO5IctmA+CaZX8qbMMtUagYGRXXv2U+VPv4phQ7fgQRgxHhFKJnOGQe6Wbbulx/KCy9F1QyMoO38wwhbMNw+JKb1py/Y9plo1gQ8KAz+hCkaW/XH4L7O09zH4JnTfusjPHwxHVQRncOsOV9Fmzhgr0EF/oaiUZheWUCH/LJzngMJXafN3u8TxMGwZrmBkGgID7oW4Dtk5HNIla5izZ/ccCUY/MT6dWrYfRJtMIZhewSyAaOAEnZiOYdKC5hW7nzKaNaeEj9Xc79guQUPnpH/sSDAwJWMaxZKMWFH2EdfRmcanHe4FeTTpiYwLe9JTFY4FA0syZ7K9ulhZ9rEx8h+uZC1YgpDcVZrJDTDdE8qUj4UWHAB7dbHtlOQlK9dQXH3bsxS1oQUHwZSMhg9T7zU1x+n6YfnGg9my/WVowbUAydwZb99ziFgzIRZy6DrYQ8EAQtG41c8ITy7QghWjBStGC1ZMqIIxxW7vmYQi2L9MXRFTglGn4zWWmWJC1RIWTDDKYGwahNOj8YqYEoyV6Cxq+Zsf0LSCubx/B3N1UQDBkNsgg5LP60erP/yCRk14mLeH2bNxS8wIxjh0w+60jOVacecDz3KZNLGk9EzBLBJyWebaz9aL7Yhrhk42HiT3P7cqYkkw1i9MvOcp8b4VhuR2lNx6wEnBz+OBcV9rSm7ehz75vFxsQ2CNb1rX68Jf4+uGmKoiMP3vNw+ImDBllni4/FDlL+J1wewFFJ/YidZ+fipz123YSs1a8fGQvbqKCCAYoGFjybdwfWqPaQUv0e4fjH8JNr9kFa0oWyt+R6wr30opLbPrXi6IOcHAlDzaT3JNTY34if/vY8VXG76LnFwQrYKxyj2gYBBAsj2MzI1AtWAnugR3ptJVa4ScX38/HFwwsKqL8WdKRp0b0cy1iCrBLDOj3410NXelBuSMp/jmlxkSZftamJLtDd+68i2UEokGTUZUCYYM3G3FpxtyQl00aEqeMOVJ+vSLDZSCRSvRIBdElWA3QDKGSTHm4GTCVRVnjWAAyViGKnsvUpxVgqMRLVgxWrBitGDFaMGK0YIVowUrRgtWjBasGC1YMU2zjviEZY0isn78D43o8OjRWGtOAAAAAElFTkSuQmCC;" parent="1" vertex="1">
          <mxGeometry x="254" y="322.58" width="50" height="50" as="geometry" />
        </mxCell>
        <mxCell id="47" value="1" style="ellipse;whiteSpace=wrap;html=1;aspect=fixed;fontColor=#FFFFFF;fontSize=8;strokeColor=#98A2AE;fontFamily=Manrope;fontSource=https://fonts.googleapis.com/css?family=Manrope;fillColor=#BEC8D2;strokeWidth=1;" parent="1" vertex="1">
          <mxGeometry x="297" y="282.05" width="10" height="10" as="geometry" />
        </mxCell>
        <mxCell id="49" value="2" style="ellipse;whiteSpace=wrap;html=1;aspect=fixed;fontColor=#FFFFFF;fontSize=8;strokeColor=#98A2AE;fontFamily=Manrope;fontSource=https://fonts.googleapis.com/css?family=Manrope;fillColor=#BEC8D2;strokeWidth=1;" parent="1" vertex="1">
          <mxGeometry x="296" y="403" width="10" height="10" as="geometry" />
        </mxCell>
        <mxCell id="174" value="&lt;font color=&quot;#1a1a1a&quot;&gt;Access L2&lt;/font&gt;" style="rounded=1;whiteSpace=wrap;html=1;fontSize=8;strokeWidth=1;fillColor=#DAE8FC;strokeColor=none;fontColor=#FFFFFF;fontFamily=Manrope;fontSource=https%3A%2F%2Ffonts.googleapis.com%2Fcss%3Ffamily%3DManrope;spacing=0;" parent="1" vertex="1">
          <mxGeometry x="17" y="561" width="238" height="12" as="geometry" />
        </mxCell>
        <mxCell id="9zTi3nsKfj2Z9hqAuiEz-311" value="" style="edgeStyle=none;rounded=0;orthogonalLoop=1;jettySize=auto;html=1;exitX=1;exitY=0.5;exitDx=0;exitDy=0;entryX=0;entryY=0.5;entryDx=0;entryDy=0;endArrow=blockThin;endFill=1;strokeColor=#98A2AE;fontSize=5;fontFamily=Manrope;fontSource=https%3A%2F%2Ffonts.googleapis.com%2Fcss%3Ffamily%3DManrope;labelBackgroundColor=#4D5766;fontColor=#FFFFFF;endSize=0;startSize=0;strokeWidth=2;" parent="1" source="261" edge="1">
          <mxGeometry relative="1" as="geometry">
            <mxPoint x="58.400000000000006" y="350.04" as="sourcePoint" />
            <mxPoint x="118.4" y="350.04" as="targetPoint" />
          </mxGeometry>
        </mxCell>
        <mxCell id="9zTi3nsKfj2Z9hqAuiEz-312" value="" style="rounded=1;whiteSpace=wrap;html=1;strokeColor=none;arcSize=2;" parent="1" vertex="1">
          <mxGeometry x="29.99999999999997" y="342.4100000000001" width="23" height="13.59" as="geometry" />
        </mxCell>
        <mxCell id="9zTi3nsKfj2Z9hqAuiEz-313" value="" style="shape=image;editableCssRules=\.color;verticalLabelPosition=bottom;labelBackgroundColor=#ffffff;verticalAlign=top;aspect=fixed;imageAspect=0;image=data:image/svg+xml,PHN2ZyB4bWxucz0iaHR0cDovL3d3dy53My5vcmcvMjAwMC9zdmciIHhtbG5zOnhsaW5rPSJodHRwOi8vd3d3LnczLm9yZy8xOTk5L3hsaW5rIiB2aWV3Qm94PSIwIDAgMTMxIDgxIiBmaWxsPSIjZmZmIiBmaWxsLXJ1bGU9ImV2ZW5vZGQiIHN0cm9rZT0iIzAwMCIgc3Ryb2tlLWxpbmVjYXA9InJvdW5kIiBzdHJva2UtbGluZWpvaW49InJvdW5kIj48dXNlIHhsaW5rOmhyZWY9IiNBIiB4PSIuNSIgeT0iLjUiLz48c3ltYm9sIGlkPSJBIiBvdmVyZmxvdz0idmlzaWJsZSI+PHBhdGggY2xhc3M9ImNvbG9yIiBkPSJNMTE5LjA3OCA2Mi43MDNWNy4yNzVjMC0yLjc0Ni0yLjU0LTcuMjc1LTUuNTgtNy4yNzVIMTYuNDc1Yy0zLjA0IDAtNi4wOCA0LjUzLTYuMDggNy4yNzV2NTUuNDI3Qy0uNDk4IDc0LjI0NC4wMDQgNzQuMjQ0LjAwNCA3NC4yNDQuMDA0IDc3LjUxNiAzLjA0NCA4MCA2Ljg1MiA4MGgxMTYuM2MzLjgwOCAwIDYuODQ4LTIuNzQ3IDYuODQ4LTUuNzU2bC0xMC45MjItMTEuNTR6TTczLjk3NSA3NS4yMzdoLTIwLjI4Yy0xLjAwNCAwLTIuMDM3LS40OTctMi4wMzctLjk5M2wyLjI3My0zLjc3YzAtLjQ5Ny43NjctLjc2IDEuNzctLjc2SDcxLjkxYy43NjcgMCAxLjUzNS4yNjMgMS41MzUuNzZsMi41NCAzLjc3Yy4wMy43My0xLjAwNC45OTMtMi4wMDcuOTkzaDB6bTQwLjI5Mi0xMi43OThIMTUuMjA1VjcuNzcyYzAtMS4yNTYgMS4yNy0zLjAxIDIuNzc1LTMuMDFoOTMuNzVjMS41MzUgMCAyLjU0IDEuNzUzIDIuNTQgM1Y2Mi40NHoiIGZpbGw9IiMyYTMyODIiIHN0cm9rZT0ibm9uZSIvPjwvc3ltYm9sPjxzdHlsZSB0eXBlPSJ0ZXh0L2NzcyI+LmNvbG9yIHsgZmlsbDogcmdiKDAsIDE3LCA1Myk7IH0gPC9zdHlsZT48L3N2Zz4=;" parent="1" vertex="1">
          <mxGeometry x="25.99999999999997" y="340.56000000000006" width="31.197407407407447" height="19.290000000000017" as="geometry" />
        </mxCell>
        <mxCell id="9zTi3nsKfj2Z9hqAuiEz-314" value="" style="shape=image;verticalLabelPosition=bottom;labelBackgroundColor=#ffffff;verticalAlign=top;aspect=fixed;imageAspect=0;image=data:image/svg+xml,PHN2ZyB4bWxucz0iaHR0cDovL3d3dy53My5vcmcvMjAwMC9zdmciIHhtbG5zOnhsaW5rPSJodHRwOi8vd3d3LnczLm9yZy8xOTk5L3hsaW5rIiB2aWV3Qm94PSIwIDAgNjUgNTciIGZpbGw9IiNmZmYiIGZpbGwtcnVsZT0iZXZlbm9kZCIgc3Ryb2tlPSIjMDAwIiBzdHJva2UtbGluZWNhcD0icm91bmQiIHN0cm9rZS1saW5lam9pbj0icm91bmQiPjx1c2UgeGxpbms6aHJlZj0iI0EiIHg9Ii41IiB5PSIuNSIvPjxzeW1ib2wgaWQ9IkEiIG92ZXJmbG93PSJ2aXNpYmxlIj48ZyBzdHJva2U9Im5vbmUiIGZpbGw9IiMwZDU5N2YiIGZpbGwtcnVsZT0ibm9uemVybyI+PHBhdGggZD0iTTIzLjI1MiAzNC41Mjd2LTYuNzQ1bC00Ljg1NSA0Ljg2NGMuNDc0LjMzMy45NjguNjM1IDEuNDguOTA2LjQ2My4yNDMuODcuNDM0IDEuMzAzLjU4YTcuOTcgNy45NyAwIDAgMCAxLjEzLjMwNGMuMzQ4LjA2NC42Ni4wOTMuOTUuMDk2bTI0LjgyMi0uNTYyYTEuMTcgMS4xNyAwIDAgMCAuMTQyLjFjLjEyMy4wNzguMjUyLjE0NS4zODUuMjAzYTIuOTMgMi45MyAwIDAgMCAuNjM3LjE5NGMuMjk2LjA2LjU5OC4wODguOS4wODdhNS44NCA1Ljg0IDAgMCAwIC45NTUtLjA4NyA3LjI0IDcuMjQgMCAwIDAgMS4xMzgtLjMwMWMuNDUzLS4xNi44OTUtLjM1NCAxLjMyLS41OC41Mi0uMjc0IDEuMDItLjU4IDEuNTAzLS45MThsLTMuNjg1LTMuNi0xMi4yLTEyLjI1OC01LjM1NiA1LjM1Ni03LjIzLTcuNDU1TDguNDQgMzIuNjQ3Yy40OC4zMzcuOTguNjQ0IDEuNS45MTguNDcuMjQ2LjkuNDM0IDEuMzE3LjU4YTcuMTggNy4xOCAwIDAgMCAxLjEzNS4zMDEgNS41MyA1LjUzIDAgMCAwIC45NTUuMDg3IDQuNTMgNC41MyAwIDAgMCAuOS0uMDg3IDMuMjkgMy4yOSAwIDAgMCAuNjM3LS4xOTRjLjEzNC0uMDU0LjI2My0uMTIuMzg1LS4xOTdsLjE0NS0uMTA0IDguMTkzLTguMTkzIDIuOTI0LTIuODA4IDguMTA2IDguMTA2IDIuODM3IDIuOTEyYy4wNDYuMDM3LjA5NC4wNy4xNDUuMS4xMjIuMDc4LjI1LjE0NS4zODUuMmEzLjQ5IDMuNDkgMCAwIDAgLjYzNy4xOTRjLjI1NS4wNTIuNTU2LjA4Ny45MDMuMDg3YTUuODQgNS44NCAwIDAgMCAuOTU1LS4wODdjLjM4Ny0uMDY4Ljc2OC0uMTY4IDEuMTM4LS4zYTkuOTQgOS45NCAwIDAgMCAxLjMyLS41NzljLjUyLS4yNzQgMS4wMi0uNTggMS41MDMtLjkxOGwtNi41MDgtNi4zNyAxLjItMS4yIDUuNjMgNS42MyAzLjI4MyAzLjI1NE00Ny45OTYuMDJsMTUuOTk4IDI3LjcxNC0xNS45OSAyNy42OTRIMTUuOTk4TDAgMjcuNzE0IDE1Ljk5OCAweiIvPjxwYXRoIGQ9Ik0zOC4wMjIgMjYuMzY3TDMzLjc2IDIyLjExbC4zMDQtLjMwNCA0LjMgNC4yNDR6Ii8+PC9nPjwvc3ltYm9sPjwvc3ZnPg==;fontColor=#001135;" parent="1" vertex="1">
          <mxGeometry x="35.88999999999996" y="344.2" width="11.71" height="10.27" as="geometry" />
        </mxCell>
        <mxCell id="9zTi3nsKfj2Z9hqAuiEz-315" value="eth1" style="whiteSpace=wrap;html=1;fontFamily=Manrope;fontSource=https%3A%2F%2Ffonts.googleapis.com%2Fcss%3Ffamily%3DManrope;fontSize=6;align=center;fillColor=#BEC8D2;fontColor=#FFFFFF;strokeColor=#98A2AE;perimeterSpacing=0;rounded=1;" parent="1" vertex="1">
          <mxGeometry x="34.99999999999997" y="335" width="14" height="6" as="geometry" />
        </mxCell>
        <mxCell id="9zTi3nsKfj2Z9hqAuiEz-316" value="" style="shape=image;editableCssRules=\.color;verticalLabelPosition=bottom;labelBackgroundColor=#ffffff;verticalAlign=top;aspect=fixed;imageAspect=0;image=data:image/svg+xml,PHN2ZyB4bWxucz0iaHR0cDovL3d3dy53My5vcmcvMjAwMC9zdmciIHhtbG5zOnhsaW5rPSJodHRwOi8vd3d3LnczLm9yZy8xOTk5L3hsaW5rIiB2aWV3Qm94PSIwIDAgMTMxIDgxIiBmaWxsPSIjZmZmIiBmaWxsLXJ1bGU9ImV2ZW5vZGQiIHN0cm9rZT0iIzAwMCIgc3Ryb2tlLWxpbmVjYXA9InJvdW5kIiBzdHJva2UtbGluZWpvaW49InJvdW5kIj48dXNlIHhsaW5rOmhyZWY9IiNBIiB4PSIuNSIgeT0iLjUiLz48c3ltYm9sIGlkPSJBIiBvdmVyZmxvdz0idmlzaWJsZSI+PHBhdGggY2xhc3M9ImNvbG9yIiBkPSJNMTE5LjA3OCA2Mi43MDNWNy4yNzVjMC0yLjc0Ni0yLjU0LTcuMjc1LTUuNTgtNy4yNzVIMTYuNDc1Yy0zLjA0IDAtNi4wOCA0LjUzLTYuMDggNy4yNzV2NTUuNDI3Qy0uNDk4IDc0LjI0NC4wMDQgNzQuMjQ0LjAwNCA3NC4yNDQuMDA0IDc3LjUxNiAzLjA0NCA4MCA2Ljg1MiA4MGgxMTYuM2MzLjgwOCAwIDYuODQ4LTIuNzQ3IDYuODQ4LTUuNzU2bC0xMC45MjItMTEuNTR6TTczLjk3NSA3NS4yMzdoLTIwLjI4Yy0xLjAwNCAwLTIuMDM3LS40OTctMi4wMzctLjk5M2wyLjI3My0zLjc3YzAtLjQ5Ny43NjctLjc2IDEuNzctLjc2SDcxLjkxYy43NjcgMCAxLjUzNS4yNjMgMS41MzUuNzZsMi41NCAzLjc3Yy4wMy43My0xLjAwNC45OTMtMi4wMDcuOTkzaDB6bTQwLjI5Mi0xMi43OThIMTUuMjA1VjcuNzcyYzAtMS4yNTYgMS4yNy0zLjAxIDIuNzc1LTMuMDFoOTMuNzVjMS41MzUgMCAyLjU0IDEuNzUzIDIuNTQgM1Y2Mi40NHoiIGZpbGw9IiMyYTMyODIiIHN0cm9rZT0ibm9uZSIvPjwvc3ltYm9sPjxzdHlsZSB0eXBlPSJ0ZXh0L2NzcyI+LmNvbG9yIHsgZmlsbDogcmdiKDAsIDE3LCA1Myk7IH0gPC9zdHlsZT48L3N2Zz4=;" parent="1" vertex="1">
          <mxGeometry x="25.99999999999997" y="340.56000000000006" width="31.197407407407447" height="19.290000000000017" as="geometry" />
        </mxCell>
        <mxCell id="9zTi3nsKfj2Z9hqAuiEz-317" value="" style="shape=image;verticalLabelPosition=bottom;labelBackgroundColor=#ffffff;verticalAlign=top;aspect=fixed;imageAspect=0;image=data:image/svg+xml,PHN2ZyB4bWxucz0iaHR0cDovL3d3dy53My5vcmcvMjAwMC9zdmciIHhtbG5zOnhsaW5rPSJodHRwOi8vd3d3LnczLm9yZy8xOTk5L3hsaW5rIiB2aWV3Qm94PSIwIDAgNjUgNTciIGZpbGw9IiNmZmYiIGZpbGwtcnVsZT0iZXZlbm9kZCIgc3Ryb2tlPSIjMDAwIiBzdHJva2UtbGluZWNhcD0icm91bmQiIHN0cm9rZS1saW5lam9pbj0icm91bmQiPjx1c2UgeGxpbms6aHJlZj0iI0EiIHg9Ii41IiB5PSIuNSIvPjxzeW1ib2wgaWQ9IkEiIG92ZXJmbG93PSJ2aXNpYmxlIj48ZyBzdHJva2U9Im5vbmUiIGZpbGw9IiMwZDU5N2YiIGZpbGwtcnVsZT0ibm9uemVybyI+PHBhdGggZD0iTTIzLjI1MiAzNC41Mjd2LTYuNzQ1bC00Ljg1NSA0Ljg2NGMuNDc0LjMzMy45NjguNjM1IDEuNDguOTA2LjQ2My4yNDMuODcuNDM0IDEuMzAzLjU4YTcuOTcgNy45NyAwIDAgMCAxLjEzLjMwNGMuMzQ4LjA2NC42Ni4wOTMuOTUuMDk2bTI0LjgyMi0uNTYyYTEuMTcgMS4xNyAwIDAgMCAuMTQyLjFjLjEyMy4wNzguMjUyLjE0NS4zODUuMjAzYTIuOTMgMi45MyAwIDAgMCAuNjM3LjE5NGMuMjk2LjA2LjU5OC4wODguOS4wODdhNS44NCA1Ljg0IDAgMCAwIC45NTUtLjA4NyA3LjI0IDcuMjQgMCAwIDAgMS4xMzgtLjMwMWMuNDUzLS4xNi44OTUtLjM1NCAxLjMyLS41OC41Mi0uMjc0IDEuMDItLjU4IDEuNTAzLS45MThsLTMuNjg1LTMuNi0xMi4yLTEyLjI1OC01LjM1NiA1LjM1Ni03LjIzLTcuNDU1TDguNDQgMzIuNjQ3Yy40OC4zMzcuOTguNjQ0IDEuNS45MTguNDcuMjQ2LjkuNDM0IDEuMzE3LjU4YTcuMTggNy4xOCAwIDAgMCAxLjEzNS4zMDEgNS41MyA1LjUzIDAgMCAwIC45NTUuMDg3IDQuNTMgNC41MyAwIDAgMCAuOS0uMDg3IDMuMjkgMy4yOSAwIDAgMCAuNjM3LS4xOTRjLjEzNC0uMDU0LjI2My0uMTIuMzg1LS4xOTdsLjE0NS0uMTA0IDguMTkzLTguMTkzIDIuOTI0LTIuODA4IDguMTA2IDguMTA2IDIuODM3IDIuOTEyYy4wNDYuMDM3LjA5NC4wNy4xNDUuMS4xMjIuMDc4LjI1LjE0NS4zODUuMmEzLjQ5IDMuNDkgMCAwIDAgLjYzNy4xOTRjLjI1NS4wNTIuNTU2LjA4Ny45MDMuMDg3YTUuODQgNS44NCAwIDAgMCAuOTU1LS4wODdjLjM4Ny0uMDY4Ljc2OC0uMTY4IDEuMTM4LS4zYTkuOTQgOS45NCAwIDAgMCAxLjMyLS41NzljLjUyLS4yNzQgMS4wMi0uNTggMS41MDMtLjkxOGwtNi41MDgtNi4zNyAxLjItMS4yIDUuNjMgNS42MyAzLjI4MyAzLjI1NE00Ny45OTYuMDJsMTUuOTk4IDI3LjcxNC0xNS45OSAyNy42OTRIMTUuOTk4TDAgMjcuNzE0IDE1Ljk5OCAweiIvPjxwYXRoIGQ9Ik0zOC4wMjIgMjYuMzY3TDMzLjc2IDIyLjExbC4zMDQtLjMwNCA0LjMgNC4yNDR6Ii8+PC9nPjwvc3ltYm9sPjwvc3ZnPg==;fontColor=#001135;" parent="1" vertex="1">
          <mxGeometry x="35.88999999999996" y="344.2" width="11.71" height="10.27" as="geometry" />
        </mxCell>
        <mxCell id="9zTi3nsKfj2Z9hqAuiEz-318" value="eth2" style="whiteSpace=wrap;html=1;fontFamily=Manrope;fontSource=https%3A%2F%2Ffonts.googleapis.com%2Fcss%3Ffamily%3DManrope;fontSize=6;align=center;fillColor=#BEC8D2;fontColor=#FFFFFF;strokeColor=#98A2AE;perimeterSpacing=0;rounded=1;" parent="1" vertex="1">
          <mxGeometry x="34.99999999999997" y="335" width="14" height="6" as="geometry" />
        </mxCell>
        <mxCell id="9zTi3nsKfj2Z9hqAuiEz-319" value="" style="shape=image;editableCssRules=\.color;verticalLabelPosition=bottom;labelBackgroundColor=#ffffff;verticalAlign=top;aspect=fixed;imageAspect=0;image=data:image/svg+xml,PHN2ZyB4bWxucz0iaHR0cDovL3d3dy53My5vcmcvMjAwMC9zdmciIHhtbG5zOnhsaW5rPSJodHRwOi8vd3d3LnczLm9yZy8xOTk5L3hsaW5rIiB2aWV3Qm94PSIwIDAgMTMxIDgxIiBmaWxsPSIjZmZmIiBmaWxsLXJ1bGU9ImV2ZW5vZGQiIHN0cm9rZT0iIzAwMCIgc3Ryb2tlLWxpbmVjYXA9InJvdW5kIiBzdHJva2UtbGluZWpvaW49InJvdW5kIj48dXNlIHhsaW5rOmhyZWY9IiNBIiB4PSIuNSIgeT0iLjUiLz48c3ltYm9sIGlkPSJBIiBvdmVyZmxvdz0idmlzaWJsZSI+PHBhdGggY2xhc3M9ImNvbG9yIiBkPSJNMTE5LjA3OCA2Mi43MDNWNy4yNzVjMC0yLjc0Ni0yLjU0LTcuMjc1LTUuNTgtNy4yNzVIMTYuNDc1Yy0zLjA0IDAtNi4wOCA0LjUzLTYuMDggNy4yNzV2NTUuNDI3Qy0uNDk4IDc0LjI0NC4wMDQgNzQuMjQ0LjAwNCA3NC4yNDQuMDA0IDc3LjUxNiAzLjA0NCA4MCA2Ljg1MiA4MGgxMTYuM2MzLjgwOCAwIDYuODQ4LTIuNzQ3IDYuODQ4LTUuNzU2bC0xMC45MjItMTEuNTR6TTczLjk3NSA3NS4yMzdoLTIwLjI4Yy0xLjAwNCAwLTIuMDM3LS40OTctMi4wMzctLjk5M2wyLjI3My0zLjc3YzAtLjQ5Ny43NjctLjc2IDEuNzctLjc2SDcxLjkxYy43NjcgMCAxLjUzNS4yNjMgMS41MzUuNzZsMi41NCAzLjc3Yy4wMy43My0xLjAwNC45OTMtMi4wMDcuOTkzaDB6bTQwLjI5Mi0xMi43OThIMTUuMjA1VjcuNzcyYzAtMS4yNTYgMS4yNy0zLjAxIDIuNzc1LTMuMDFoOTMuNzVjMS41MzUgMCAyLjU0IDEuNzUzIDIuNTQgM1Y2Mi40NHoiIGZpbGw9IiMyYTMyODIiIHN0cm9rZT0ibm9uZSIvPjwvc3ltYm9sPjxzdHlsZSB0eXBlPSJ0ZXh0L2NzcyI+LmNvbG9yIHsgZmlsbDogcmdiKDAsIDE3LCA1Myk7IH0gPC9zdHlsZT48L3N2Zz4=;" parent="1" vertex="1">
          <mxGeometry x="25.99999999999997" y="340.56000000000006" width="31.197407407407447" height="19.290000000000017" as="geometry" />
        </mxCell>
        <mxCell id="9zTi3nsKfj2Z9hqAuiEz-320" value="" style="shape=image;verticalLabelPosition=bottom;labelBackgroundColor=#ffffff;verticalAlign=top;aspect=fixed;imageAspect=0;image=data:image/svg+xml,PHN2ZyB4bWxucz0iaHR0cDovL3d3dy53My5vcmcvMjAwMC9zdmciIHhtbG5zOnhsaW5rPSJodHRwOi8vd3d3LnczLm9yZy8xOTk5L3hsaW5rIiB2aWV3Qm94PSIwIDAgNjUgNTciIGZpbGw9IiNmZmYiIGZpbGwtcnVsZT0iZXZlbm9kZCIgc3Ryb2tlPSIjMDAwIiBzdHJva2UtbGluZWNhcD0icm91bmQiIHN0cm9rZS1saW5lam9pbj0icm91bmQiPjx1c2UgeGxpbms6aHJlZj0iI0EiIHg9Ii41IiB5PSIuNSIvPjxzeW1ib2wgaWQ9IkEiIG92ZXJmbG93PSJ2aXNpYmxlIj48ZyBzdHJva2U9Im5vbmUiIGZpbGw9IiMwZDU5N2YiIGZpbGwtcnVsZT0ibm9uemVybyI+PHBhdGggZD0iTTIzLjI1MiAzNC41Mjd2LTYuNzQ1bC00Ljg1NSA0Ljg2NGMuNDc0LjMzMy45NjguNjM1IDEuNDguOTA2LjQ2My4yNDMuODcuNDM0IDEuMzAzLjU4YTcuOTcgNy45NyAwIDAgMCAxLjEzLjMwNGMuMzQ4LjA2NC42Ni4wOTMuOTUuMDk2bTI0LjgyMi0uNTYyYTEuMTcgMS4xNyAwIDAgMCAuMTQyLjFjLjEyMy4wNzguMjUyLjE0NS4zODUuMjAzYTIuOTMgMi45MyAwIDAgMCAuNjM3LjE5NGMuMjk2LjA2LjU5OC4wODguOS4wODdhNS44NCA1Ljg0IDAgMCAwIC45NTUtLjA4NyA3LjI0IDcuMjQgMCAwIDAgMS4xMzgtLjMwMWMuNDUzLS4xNi44OTUtLjM1NCAxLjMyLS41OC41Mi0uMjc0IDEuMDItLjU4IDEuNTAzLS45MThsLTMuNjg1LTMuNi0xMi4yLTEyLjI1OC01LjM1NiA1LjM1Ni03LjIzLTcuNDU1TDguNDQgMzIuNjQ3Yy40OC4zMzcuOTguNjQ0IDEuNS45MTguNDcuMjQ2LjkuNDM0IDEuMzE3LjU4YTcuMTggNy4xOCAwIDAgMCAxLjEzNS4zMDEgNS41MyA1LjUzIDAgMCAwIC45NTUuMDg3IDQuNTMgNC41MyAwIDAgMCAuOS0uMDg3IDMuMjkgMy4yOSAwIDAgMCAuNjM3LS4xOTRjLjEzNC0uMDU0LjI2My0uMTIuMzg1LS4xOTdsLjE0NS0uMTA0IDguMTkzLTguMTkzIDIuOTI0LTIuODA4IDguMTA2IDguMTA2IDIuODM3IDIuOTEyYy4wNDYuMDM3LjA5NC4wNy4xNDUuMS4xMjIuMDc4LjI1LjE0NS4zODUuMmEzLjQ5IDMuNDkgMCAwIDAgLjYzNy4xOTRjLjI1NS4wNTIuNTU2LjA4Ny45MDMuMDg3YTUuODQgNS44NCAwIDAgMCAuOTU1LS4wODdjLjM4Ny0uMDY4Ljc2OC0uMTY4IDEuMTM4LS4zYTkuOTQgOS45NCAwIDAgMCAxLjMyLS41NzljLjUyLS4yNzQgMS4wMi0uNTggMS41MDMtLjkxOGwtNi41MDgtNi4zNyAxLjItMS4yIDUuNjMgNS42MyAzLjI4MyAzLjI1NE00Ny45OTYuMDJsMTUuOTk4IDI3LjcxNC0xNS45OSAyNy42OTRIMTUuOTk4TDAgMjcuNzE0IDE1Ljk5OCAweiIvPjxwYXRoIGQ9Ik0zOC4wMjIgMjYuMzY3TDMzLjc2IDIyLjExbC4zMDQtLjMwNCA0LjMgNC4yNDR6Ii8+PC9nPjwvc3ltYm9sPjwvc3ZnPg==;fontColor=#001135;" parent="1" vertex="1">
          <mxGeometry x="35.88999999999996" y="344.2" width="11.71" height="10.27" as="geometry" />
        </mxCell>
        <mxCell id="9zTi3nsKfj2Z9hqAuiEz-322" value="" style="edgeStyle=none;rounded=0;orthogonalLoop=1;jettySize=auto;html=1;exitX=1;exitY=0.5;exitDx=0;exitDy=0;entryX=0;entryY=0.5;entryDx=0;entryDy=0;endArrow=blockThin;endFill=1;strokeColor=#98A2AE;fontSize=5;fontFamily=Manrope;fontSource=https%3A%2F%2Ffonts.googleapis.com%2Fcss%3Ffamily%3DManrope;labelBackgroundColor=#4D5766;fontColor=#FFFFFF;endSize=0;startSize=0;strokeWidth=2;" parent="1" source="9zTi3nsKfj2Z9hqAuiEz-310" edge="1">
          <mxGeometry relative="1" as="geometry">
            <mxPoint x="58.400000000000006" y="388.11" as="sourcePoint" />
            <mxPoint x="118.4" y="388.11" as="targetPoint" />
          </mxGeometry>
        </mxCell>
        <mxCell id="9zTi3nsKfj2Z9hqAuiEz-323" value="" style="rounded=1;whiteSpace=wrap;html=1;strokeColor=none;arcSize=2;" parent="1" vertex="1">
          <mxGeometry x="29.99999999999997" y="380.4800000000001" width="23" height="13.59" as="geometry" />
        </mxCell>
        <mxCell id="9zTi3nsKfj2Z9hqAuiEz-324" value="" style="shape=image;editableCssRules=\.color;verticalLabelPosition=bottom;labelBackgroundColor=#ffffff;verticalAlign=top;aspect=fixed;imageAspect=0;image=data:image/svg+xml,PHN2ZyB4bWxucz0iaHR0cDovL3d3dy53My5vcmcvMjAwMC9zdmciIHhtbG5zOnhsaW5rPSJodHRwOi8vd3d3LnczLm9yZy8xOTk5L3hsaW5rIiB2aWV3Qm94PSIwIDAgMTMxIDgxIiBmaWxsPSIjZmZmIiBmaWxsLXJ1bGU9ImV2ZW5vZGQiIHN0cm9rZT0iIzAwMCIgc3Ryb2tlLWxpbmVjYXA9InJvdW5kIiBzdHJva2UtbGluZWpvaW49InJvdW5kIj48dXNlIHhsaW5rOmhyZWY9IiNBIiB4PSIuNSIgeT0iLjUiLz48c3ltYm9sIGlkPSJBIiBvdmVyZmxvdz0idmlzaWJsZSI+PHBhdGggY2xhc3M9ImNvbG9yIiBkPSJNMTE5LjA3OCA2Mi43MDNWNy4yNzVjMC0yLjc0Ni0yLjU0LTcuMjc1LTUuNTgtNy4yNzVIMTYuNDc1Yy0zLjA0IDAtNi4wOCA0LjUzLTYuMDggNy4yNzV2NTUuNDI3Qy0uNDk4IDc0LjI0NC4wMDQgNzQuMjQ0LjAwNCA3NC4yNDQuMDA0IDc3LjUxNiAzLjA0NCA4MCA2Ljg1MiA4MGgxMTYuM2MzLjgwOCAwIDYuODQ4LTIuNzQ3IDYuODQ4LTUuNzU2bC0xMC45MjItMTEuNTR6TTczLjk3NSA3NS4yMzdoLTIwLjI4Yy0xLjAwNCAwLTIuMDM3LS40OTctMi4wMzctLjk5M2wyLjI3My0zLjc3YzAtLjQ5Ny43NjctLjc2IDEuNzctLjc2SDcxLjkxYy43NjcgMCAxLjUzNS4yNjMgMS41MzUuNzZsMi41NCAzLjc3Yy4wMy43My0xLjAwNC45OTMtMi4wMDcuOTkzaDB6bTQwLjI5Mi0xMi43OThIMTUuMjA1VjcuNzcyYzAtMS4yNTYgMS4yNy0zLjAxIDIuNzc1LTMuMDFoOTMuNzVjMS41MzUgMCAyLjU0IDEuNzUzIDIuNTQgM1Y2Mi40NHoiIGZpbGw9IiMyYTMyODIiIHN0cm9rZT0ibm9uZSIvPjwvc3ltYm9sPjxzdHlsZSB0eXBlPSJ0ZXh0L2NzcyI+LmNvbG9yIHsgZmlsbDogcmdiKDAsIDE3LCA1Myk7IH0gPC9zdHlsZT48L3N2Zz4=;" parent="1" vertex="1">
          <mxGeometry x="25.99999999999997" y="378.63000000000005" width="31.197407407407447" height="19.290000000000017" as="geometry" />
        </mxCell>
        <mxCell id="9zTi3nsKfj2Z9hqAuiEz-325" value="" style="shape=image;verticalLabelPosition=bottom;labelBackgroundColor=#ffffff;verticalAlign=top;aspect=fixed;imageAspect=0;image=data:image/svg+xml,PHN2ZyB4bWxucz0iaHR0cDovL3d3dy53My5vcmcvMjAwMC9zdmciIHhtbG5zOnhsaW5rPSJodHRwOi8vd3d3LnczLm9yZy8xOTk5L3hsaW5rIiB2aWV3Qm94PSIwIDAgNjUgNTciIGZpbGw9IiNmZmYiIGZpbGwtcnVsZT0iZXZlbm9kZCIgc3Ryb2tlPSIjMDAwIiBzdHJva2UtbGluZWNhcD0icm91bmQiIHN0cm9rZS1saW5lam9pbj0icm91bmQiPjx1c2UgeGxpbms6aHJlZj0iI0EiIHg9Ii41IiB5PSIuNSIvPjxzeW1ib2wgaWQ9IkEiIG92ZXJmbG93PSJ2aXNpYmxlIj48ZyBzdHJva2U9Im5vbmUiIGZpbGw9IiMwZDU5N2YiIGZpbGwtcnVsZT0ibm9uemVybyI+PHBhdGggZD0iTTIzLjI1MiAzNC41Mjd2LTYuNzQ1bC00Ljg1NSA0Ljg2NGMuNDc0LjMzMy45NjguNjM1IDEuNDguOTA2LjQ2My4yNDMuODcuNDM0IDEuMzAzLjU4YTcuOTcgNy45NyAwIDAgMCAxLjEzLjMwNGMuMzQ4LjA2NC42Ni4wOTMuOTUuMDk2bTI0LjgyMi0uNTYyYTEuMTcgMS4xNyAwIDAgMCAuMTQyLjFjLjEyMy4wNzguMjUyLjE0NS4zODUuMjAzYTIuOTMgMi45MyAwIDAgMCAuNjM3LjE5NGMuMjk2LjA2LjU5OC4wODguOS4wODdhNS44NCA1Ljg0IDAgMCAwIC45NTUtLjA4NyA3LjI0IDcuMjQgMCAwIDAgMS4xMzgtLjMwMWMuNDUzLS4xNi44OTUtLjM1NCAxLjMyLS41OC41Mi0uMjc0IDEuMDItLjU4IDEuNTAzLS45MThsLTMuNjg1LTMuNi0xMi4yLTEyLjI1OC01LjM1NiA1LjM1Ni03LjIzLTcuNDU1TDguNDQgMzIuNjQ3Yy40OC4zMzcuOTguNjQ0IDEuNS45MTguNDcuMjQ2LjkuNDM0IDEuMzE3LjU4YTcuMTggNy4xOCAwIDAgMCAxLjEzNS4zMDEgNS41MyA1LjUzIDAgMCAwIC45NTUuMDg3IDQuNTMgNC41MyAwIDAgMCAuOS0uMDg3IDMuMjkgMy4yOSAwIDAgMCAuNjM3LS4xOTRjLjEzNC0uMDU0LjI2My0uMTIuMzg1LS4xOTdsLjE0NS0uMTA0IDguMTkzLTguMTkzIDIuOTI0LTIuODA4IDguMTA2IDguMTA2IDIuODM3IDIuOTEyYy4wNDYuMDM3LjA5NC4wNy4xNDUuMS4xMjIuMDc4LjI1LjE0NS4zODUuMmEzLjQ5IDMuNDkgMCAwIDAgLjYzNy4xOTRjLjI1NS4wNTIuNTU2LjA4Ny45MDMuMDg3YTUuODQgNS44NCAwIDAgMCAuOTU1LS4wODdjLjM4Ny0uMDY4Ljc2OC0uMTY4IDEuMTM4LS4zYTkuOTQgOS45NCAwIDAgMCAxLjMyLS41NzljLjUyLS4yNzQgMS4wMi0uNTggMS41MDMtLjkxOGwtNi41MDgtNi4zNyAxLjItMS4yIDUuNjMgNS42MyAzLjI4MyAzLjI1NE00Ny45OTYuMDJsMTUuOTk4IDI3LjcxNC0xNS45OSAyNy42OTRIMTUuOTk4TDAgMjcuNzE0IDE1Ljk5OCAweiIvPjxwYXRoIGQ9Ik0zOC4wMjIgMjYuMzY3TDMzLjc2IDIyLjExbC4zMDQtLjMwNCA0LjMgNC4yNDR6Ii8+PC9nPjwvc3ltYm9sPjwvc3ZnPg==;fontColor=#001135;" parent="1" vertex="1">
          <mxGeometry x="35.88999999999996" y="382.27" width="11.71" height="10.27" as="geometry" />
        </mxCell>
        <mxCell id="9zTi3nsKfj2Z9hqAuiEz-326" value="eth1" style="whiteSpace=wrap;html=1;fontFamily=Manrope;fontSource=https%3A%2F%2Ffonts.googleapis.com%2Fcss%3Ffamily%3DManrope;fontSize=6;align=center;fillColor=#BEC8D2;fontColor=#FFFFFF;strokeColor=#98A2AE;perimeterSpacing=0;rounded=1;" parent="1" vertex="1">
          <mxGeometry x="34.99999999999997" y="373.07" width="14" height="6" as="geometry" />
        </mxCell>
        <mxCell id="9zTi3nsKfj2Z9hqAuiEz-327" value="" style="shape=image;editableCssRules=\.color;verticalLabelPosition=bottom;labelBackgroundColor=#ffffff;verticalAlign=top;aspect=fixed;imageAspect=0;image=data:image/svg+xml,PHN2ZyB4bWxucz0iaHR0cDovL3d3dy53My5vcmcvMjAwMC9zdmciIHhtbG5zOnhsaW5rPSJodHRwOi8vd3d3LnczLm9yZy8xOTk5L3hsaW5rIiB2aWV3Qm94PSIwIDAgMTMxIDgxIiBmaWxsPSIjZmZmIiBmaWxsLXJ1bGU9ImV2ZW5vZGQiIHN0cm9rZT0iIzAwMCIgc3Ryb2tlLWxpbmVjYXA9InJvdW5kIiBzdHJva2UtbGluZWpvaW49InJvdW5kIj48dXNlIHhsaW5rOmhyZWY9IiNBIiB4PSIuNSIgeT0iLjUiLz48c3ltYm9sIGlkPSJBIiBvdmVyZmxvdz0idmlzaWJsZSI+PHBhdGggY2xhc3M9ImNvbG9yIiBkPSJNMTE5LjA3OCA2Mi43MDNWNy4yNzVjMC0yLjc0Ni0yLjU0LTcuMjc1LTUuNTgtNy4yNzVIMTYuNDc1Yy0zLjA0IDAtNi4wOCA0LjUzLTYuMDggNy4yNzV2NTUuNDI3Qy0uNDk4IDc0LjI0NC4wMDQgNzQuMjQ0LjAwNCA3NC4yNDQuMDA0IDc3LjUxNiAzLjA0NCA4MCA2Ljg1MiA4MGgxMTYuM2MzLjgwOCAwIDYuODQ4LTIuNzQ3IDYuODQ4LTUuNzU2bC0xMC45MjItMTEuNTR6TTczLjk3NSA3NS4yMzdoLTIwLjI4Yy0xLjAwNCAwLTIuMDM3LS40OTctMi4wMzctLjk5M2wyLjI3My0zLjc3YzAtLjQ5Ny43NjctLjc2IDEuNzctLjc2SDcxLjkxYy43NjcgMCAxLjUzNS4yNjMgMS41MzUuNzZsMi41NCAzLjc3Yy4wMy43My0xLjAwNC45OTMtMi4wMDcuOTkzaDB6bTQwLjI5Mi0xMi43OThIMTUuMjA1VjcuNzcyYzAtMS4yNTYgMS4yNy0zLjAxIDIuNzc1LTMuMDFoOTMuNzVjMS41MzUgMCAyLjU0IDEuNzUzIDIuNTQgM1Y2Mi40NHoiIGZpbGw9IiMyYTMyODIiIHN0cm9rZT0ibm9uZSIvPjwvc3ltYm9sPjxzdHlsZSB0eXBlPSJ0ZXh0L2NzcyI+LmNvbG9yIHsgZmlsbDogcmdiKDAsIDE3LCA1Myk7IH0gPC9zdHlsZT48L3N2Zz4=;" parent="1" vertex="1">
          <mxGeometry x="25.99999999999997" y="378.63000000000005" width="31.197407407407447" height="19.290000000000017" as="geometry" />
        </mxCell>
        <mxCell id="9zTi3nsKfj2Z9hqAuiEz-328" value="" style="shape=image;verticalLabelPosition=bottom;labelBackgroundColor=#ffffff;verticalAlign=top;aspect=fixed;imageAspect=0;image=data:image/svg+xml,PHN2ZyB4bWxucz0iaHR0cDovL3d3dy53My5vcmcvMjAwMC9zdmciIHhtbG5zOnhsaW5rPSJodHRwOi8vd3d3LnczLm9yZy8xOTk5L3hsaW5rIiB2aWV3Qm94PSIwIDAgNjUgNTciIGZpbGw9IiNmZmYiIGZpbGwtcnVsZT0iZXZlbm9kZCIgc3Ryb2tlPSIjMDAwIiBzdHJva2UtbGluZWNhcD0icm91bmQiIHN0cm9rZS1saW5lam9pbj0icm91bmQiPjx1c2UgeGxpbms6aHJlZj0iI0EiIHg9Ii41IiB5PSIuNSIvPjxzeW1ib2wgaWQ9IkEiIG92ZXJmbG93PSJ2aXNpYmxlIj48ZyBzdHJva2U9Im5vbmUiIGZpbGw9IiMwZDU5N2YiIGZpbGwtcnVsZT0ibm9uemVybyI+PHBhdGggZD0iTTIzLjI1MiAzNC41Mjd2LTYuNzQ1bC00Ljg1NSA0Ljg2NGMuNDc0LjMzMy45NjguNjM1IDEuNDguOTA2LjQ2My4yNDMuODcuNDM0IDEuMzAzLjU4YTcuOTcgNy45NyAwIDAgMCAxLjEzLjMwNGMuMzQ4LjA2NC42Ni4wOTMuOTUuMDk2bTI0LjgyMi0uNTYyYTEuMTcgMS4xNyAwIDAgMCAuMTQyLjFjLjEyMy4wNzguMjUyLjE0NS4zODUuMjAzYTIuOTMgMi45MyAwIDAgMCAuNjM3LjE5NGMuMjk2LjA2LjU5OC4wODguOS4wODdhNS44NCA1Ljg0IDAgMCAwIC45NTUtLjA4NyA3LjI0IDcuMjQgMCAwIDAgMS4xMzgtLjMwMWMuNDUzLS4xNi44OTUtLjM1NCAxLjMyLS41OC41Mi0uMjc0IDEuMDItLjU4IDEuNTAzLS45MThsLTMuNjg1LTMuNi0xMi4yLTEyLjI1OC01LjM1NiA1LjM1Ni03LjIzLTcuNDU1TDguNDQgMzIuNjQ3Yy40OC4zMzcuOTguNjQ0IDEuNS45MTguNDcuMjQ2LjkuNDM0IDEuMzE3LjU4YTcuMTggNy4xOCAwIDAgMCAxLjEzNS4zMDEgNS41MyA1LjUzIDAgMCAwIC45NTUuMDg3IDQuNTMgNC41MyAwIDAgMCAuOS0uMDg3IDMuMjkgMy4yOSAwIDAgMCAuNjM3LS4xOTRjLjEzNC0uMDU0LjI2My0uMTIuMzg1LS4xOTdsLjE0NS0uMTA0IDguMTkzLTguMTkzIDIuOTI0LTIuODA4IDguMTA2IDguMTA2IDIuODM3IDIuOTEyYy4wNDYuMDM3LjA5NC4wNy4xNDUuMS4xMjIuMDc4LjI1LjE0NS4zODUuMmEzLjQ5IDMuNDkgMCAwIDAgLjYzNy4xOTRjLjI1NS4wNTIuNTU2LjA4Ny45MDMuMDg3YTUuODQgNS44NCAwIDAgMCAuOTU1LS4wODdjLjM4Ny0uMDY4Ljc2OC0uMTY4IDEuMTM4LS4zYTkuOTQgOS45NCAwIDAgMCAxLjMyLS41NzljLjUyLS4yNzQgMS4wMi0uNTggMS41MDMtLjkxOGwtNi41MDgtNi4zNyAxLjItMS4yIDUuNjMgNS42MyAzLjI4MyAzLjI1NE00Ny45OTYuMDJsMTUuOTk4IDI3LjcxNC0xNS45OSAyNy42OTRIMTUuOTk4TDAgMjcuNzE0IDE1Ljk5OCAweiIvPjxwYXRoIGQ9Ik0zOC4wMjIgMjYuMzY3TDMzLjc2IDIyLjExbC4zMDQtLjMwNCA0LjMgNC4yNDR6Ii8+PC9nPjwvc3ltYm9sPjwvc3ZnPg==;fontColor=#001135;" parent="1" vertex="1">
          <mxGeometry x="35.88999999999996" y="382.27" width="11.71" height="10.27" as="geometry" />
        </mxCell>
        <mxCell id="9zTi3nsKfj2Z9hqAuiEz-329" value="eth1" style="whiteSpace=wrap;html=1;fontFamily=Manrope;fontSource=https%3A%2F%2Ffonts.googleapis.com%2Fcss%3Ffamily%3DManrope;fontSize=6;align=center;fillColor=#BEC8D2;fontColor=#FFFFFF;strokeColor=#98A2AE;perimeterSpacing=0;rounded=1;" parent="1" vertex="1">
          <mxGeometry x="34.99999999999997" y="373.07" width="14" height="6" as="geometry" />
        </mxCell>
        <mxCell id="9zTi3nsKfj2Z9hqAuiEz-330" value="" style="shape=image;editableCssRules=\.color;verticalLabelPosition=bottom;labelBackgroundColor=#ffffff;verticalAlign=top;aspect=fixed;imageAspect=0;image=data:image/svg+xml,PHN2ZyB4bWxucz0iaHR0cDovL3d3dy53My5vcmcvMjAwMC9zdmciIHhtbG5zOnhsaW5rPSJodHRwOi8vd3d3LnczLm9yZy8xOTk5L3hsaW5rIiB2aWV3Qm94PSIwIDAgMTMxIDgxIiBmaWxsPSIjZmZmIiBmaWxsLXJ1bGU9ImV2ZW5vZGQiIHN0cm9rZT0iIzAwMCIgc3Ryb2tlLWxpbmVjYXA9InJvdW5kIiBzdHJva2UtbGluZWpvaW49InJvdW5kIj48dXNlIHhsaW5rOmhyZWY9IiNBIiB4PSIuNSIgeT0iLjUiLz48c3ltYm9sIGlkPSJBIiBvdmVyZmxvdz0idmlzaWJsZSI+PHBhdGggY2xhc3M9ImNvbG9yIiBkPSJNMTE5LjA3OCA2Mi43MDNWNy4yNzVjMC0yLjc0Ni0yLjU0LTcuMjc1LTUuNTgtNy4yNzVIMTYuNDc1Yy0zLjA0IDAtNi4wOCA0LjUzLTYuMDggNy4yNzV2NTUuNDI3Qy0uNDk4IDc0LjI0NC4wMDQgNzQuMjQ0LjAwNCA3NC4yNDQuMDA0IDc3LjUxNiAzLjA0NCA4MCA2Ljg1MiA4MGgxMTYuM2MzLjgwOCAwIDYuODQ4LTIuNzQ3IDYuODQ4LTUuNzU2bC0xMC45MjItMTEuNTR6TTczLjk3NSA3NS4yMzdoLTIwLjI4Yy0xLjAwNCAwLTIuMDM3LS40OTctMi4wMzctLjk5M2wyLjI3My0zLjc3YzAtLjQ5Ny43NjctLjc2IDEuNzctLjc2SDcxLjkxYy43NjcgMCAxLjUzNS4yNjMgMS41MzUuNzZsMi41NCAzLjc3Yy4wMy43My0xLjAwNC45OTMtMi4wMDcuOTkzaDB6bTQwLjI5Mi0xMi43OThIMTUuMjA1VjcuNzcyYzAtMS4yNTYgMS4yNy0zLjAxIDIuNzc1LTMuMDFoOTMuNzVjMS41MzUgMCAyLjU0IDEuNzUzIDIuNTQgM1Y2Mi40NHoiIGZpbGw9IiMyYTMyODIiIHN0cm9rZT0ibm9uZSIvPjwvc3ltYm9sPjxzdHlsZSB0eXBlPSJ0ZXh0L2NzcyI+LmNvbG9yIHsgZmlsbDogcmdiKDAsIDE3LCA1Myk7IH0gPC9zdHlsZT48L3N2Zz4=;" parent="1" vertex="1">
          <mxGeometry x="25.99999999999997" y="378.63000000000005" width="31.197407407407447" height="19.290000000000017" as="geometry" />
        </mxCell>
        <mxCell id="9zTi3nsKfj2Z9hqAuiEz-331" value="" style="shape=image;verticalLabelPosition=bottom;labelBackgroundColor=#ffffff;verticalAlign=top;aspect=fixed;imageAspect=0;image=data:image/svg+xml,PHN2ZyB4bWxucz0iaHR0cDovL3d3dy53My5vcmcvMjAwMC9zdmciIHhtbG5zOnhsaW5rPSJodHRwOi8vd3d3LnczLm9yZy8xOTk5L3hsaW5rIiB2aWV3Qm94PSIwIDAgNjUgNTciIGZpbGw9IiNmZmYiIGZpbGwtcnVsZT0iZXZlbm9kZCIgc3Ryb2tlPSIjMDAwIiBzdHJva2UtbGluZWNhcD0icm91bmQiIHN0cm9rZS1saW5lam9pbj0icm91bmQiPjx1c2UgeGxpbms6aHJlZj0iI0EiIHg9Ii41IiB5PSIuNSIvPjxzeW1ib2wgaWQ9IkEiIG92ZXJmbG93PSJ2aXNpYmxlIj48ZyBzdHJva2U9Im5vbmUiIGZpbGw9IiMwZDU5N2YiIGZpbGwtcnVsZT0ibm9uemVybyI+PHBhdGggZD0iTTIzLjI1MiAzNC41Mjd2LTYuNzQ1bC00Ljg1NSA0Ljg2NGMuNDc0LjMzMy45NjguNjM1IDEuNDguOTA2LjQ2My4yNDMuODcuNDM0IDEuMzAzLjU4YTcuOTcgNy45NyAwIDAgMCAxLjEzLjMwNGMuMzQ4LjA2NC42Ni4wOTMuOTUuMDk2bTI0LjgyMi0uNTYyYTEuMTcgMS4xNyAwIDAgMCAuMTQyLjFjLjEyMy4wNzguMjUyLjE0NS4zODUuMjAzYTIuOTMgMi45MyAwIDAgMCAuNjM3LjE5NGMuMjk2LjA2LjU5OC4wODguOS4wODdhNS44NCA1Ljg0IDAgMCAwIC45NTUtLjA4NyA3LjI0IDcuMjQgMCAwIDAgMS4xMzgtLjMwMWMuNDUzLS4xNi44OTUtLjM1NCAxLjMyLS41OC41Mi0uMjc0IDEuMDItLjU4IDEuNTAzLS45MThsLTMuNjg1LTMuNi0xMi4yLTEyLjI1OC01LjM1NiA1LjM1Ni03LjIzLTcuNDU1TDguNDQgMzIuNjQ3Yy40OC4zMzcuOTguNjQ0IDEuNS45MTguNDcuMjQ2LjkuNDM0IDEuMzE3LjU4YTcuMTggNy4xOCAwIDAgMCAxLjEzNS4zMDEgNS41MyA1LjUzIDAgMCAwIC45NTUuMDg3IDQuNTMgNC41MyAwIDAgMCAuOS0uMDg3IDMuMjkgMy4yOSAwIDAgMCAuNjM3LS4xOTRjLjEzNC0uMDU0LjI2My0uMTIuMzg1LS4xOTdsLjE0NS0uMTA0IDguMTkzLTguMTkzIDIuOTI0LTIuODA4IDguMTA2IDguMTA2IDIuODM3IDIuOTEyYy4wNDYuMDM3LjA5NC4wNy4xNDUuMS4xMjIuMDc4LjI1LjE0NS4zODUuMmEzLjQ5IDMuNDkgMCAwIDAgLjYzNy4xOTRjLjI1NS4wNTIuNTU2LjA4Ny45MDMuMDg3YTUuODQgNS44NCAwIDAgMCAuOTU1LS4wODdjLjM4Ny0uMDY4Ljc2OC0uMTY4IDEuMTM4LS4zYTkuOTQgOS45NCAwIDAgMCAxLjMyLS41NzljLjUyLS4yNzQgMS4wMi0uNTggMS41MDMtLjkxOGwtNi41MDgtNi4zNyAxLjItMS4yIDUuNjMgNS42MyAzLjI4MyAzLjI1NE00Ny45OTYuMDJsMTUuOTk4IDI3LjcxNC0xNS45OSAyNy42OTRIMTUuOTk4TDAgMjcuNzE0IDE1Ljk5OCAweiIvPjxwYXRoIGQ9Ik0zOC4wMjIgMjYuMzY3TDMzLjc2IDIyLjExbC4zMDQtLjMwNCA0LjMgNC4yNDR6Ii8+PC9nPjwvc3ltYm9sPjwvc3ZnPg==;fontColor=#001135;" parent="1" vertex="1">
          <mxGeometry x="35.88999999999996" y="382.27" width="11.71" height="10.27" as="geometry" />
        </mxCell>
        <mxCell id="9zTi3nsKfj2Z9hqAuiEz-332" value="eth3" style="whiteSpace=wrap;html=1;fontFamily=Manrope;fontSource=https%3A%2F%2Ffonts.googleapis.com%2Fcss%3Ffamily%3DManrope;fontSize=6;align=center;fillColor=#BEC8D2;fontColor=#FFFFFF;strokeColor=#98A2AE;perimeterSpacing=0;rounded=1;" parent="1" vertex="1">
          <mxGeometry x="34.99999999999997" y="373.07" width="14" height="6" as="geometry" />
        </mxCell>
        <mxCell id="9zTi3nsKfj2Z9hqAuiEz-335" value="&lt;span style=&quot;font-size: 8px;&quot;&gt;Client7&lt;/span&gt;" style="text;html=1;align=center;verticalAlign=middle;resizable=0;points=[];autosize=1;fontSize=14;fontFamily=Manrope;fontStyle=0;fontColor=#FFFFFF;" parent="1" vertex="1">
          <mxGeometry x="26" y="263" width="42" height="29" as="geometry" />
        </mxCell>
        <mxCell id="9zTi3nsKfj2Z9hqAuiEz-309" value="&lt;font color=&quot;#1a1a1a&quot;&gt;SR-ISIS 0, 1 &amp;amp; 2&lt;/font&gt;" style="rounded=1;whiteSpace=wrap;html=1;fontSize=8;strokeWidth=1;fillColor=#d5e8d4;strokeColor=#82b366;fontFamily=Manrope;fontSource=https%3A%2F%2Ffonts.googleapis.com%2Fcss%3Ffamily%3DManrope;spacing=0;" parent="1" vertex="1">
          <mxGeometry x="273.5" y="561" width="257" height="12" as="geometry" />
        </mxCell>
        <mxCell id="9zTi3nsKfj2Z9hqAuiEz-339" value="" style="edgeStyle=none;rounded=0;orthogonalLoop=1;jettySize=auto;html=1;exitX=1;exitY=0.5;exitDx=0;exitDy=0;entryX=0;entryY=0.5;entryDx=0;entryDy=0;endArrow=blockThin;endFill=1;strokeColor=#98A2AE;fontSize=5;fontFamily=Manrope;fontSource=https%3A%2F%2Ffonts.googleapis.com%2Fcss%3Ffamily%3DManrope;labelBackgroundColor=#4D5766;fontColor=#FFFFFF;endSize=0;startSize=0;strokeWidth=2;" parent="1" target="9zTi3nsKfj2Z9hqAuiEz-310" edge="1">
          <mxGeometry relative="1" as="geometry">
            <mxPoint x="54.400000000000006" y="388.11" as="sourcePoint" />
            <mxPoint x="114.4" y="388.11" as="targetPoint" />
          </mxGeometry>
        </mxCell>
        <mxCell id="9zTi3nsKfj2Z9hqAuiEz-310" value="3" style="ellipse;whiteSpace=wrap;html=1;aspect=fixed;fontColor=#FFFFFF;fontSize=8;strokeColor=#98A2AE;fontFamily=Manrope;fontSource=https://fonts.googleapis.com/css?family=Manrope;fillColor=#BEC8D2;strokeWidth=1;" parent="1" vertex="1">
          <mxGeometry x="117" y="382" width="10" height="10" as="geometry" />
        </mxCell>
        <mxCell id="9zTi3nsKfj2Z9hqAuiEz-340" value="" style="edgeStyle=none;rounded=0;orthogonalLoop=1;jettySize=auto;html=1;exitX=1;exitY=0.5;exitDx=0;exitDy=0;entryX=0;entryY=0.5;entryDx=0;entryDy=0;endArrow=blockThin;endFill=1;strokeColor=#98A2AE;fontSize=5;fontFamily=Manrope;fontSource=https%3A%2F%2Ffonts.googleapis.com%2Fcss%3Ffamily%3DManrope;labelBackgroundColor=#4D5766;fontColor=#FFFFFF;endSize=0;startSize=0;strokeWidth=2;" parent="1" target="261" edge="1">
          <mxGeometry relative="1" as="geometry">
            <mxPoint x="54.400000000000006" y="350.04" as="sourcePoint" />
            <mxPoint x="114.4" y="350.04" as="targetPoint" />
          </mxGeometry>
        </mxCell>
        <mxCell id="261" value="2" style="ellipse;whiteSpace=wrap;html=1;aspect=fixed;fontColor=#FFFFFF;fontSize=8;strokeColor=#98A2AE;fontFamily=Manrope;fontSource=https://fonts.googleapis.com/css?family=Manrope;fillColor=#BEC8D2;strokeWidth=1;" parent="1" vertex="1">
          <mxGeometry x="117" y="344.47" width="10" height="10" as="geometry" />
        </mxCell>
        <mxCell id="9zTi3nsKfj2Z9hqAuiEz-341" value="" style="edgeStyle=none;rounded=0;orthogonalLoop=1;jettySize=auto;html=1;exitX=1;exitY=0.5;exitDx=0;exitDy=0;entryX=0;entryY=0.5;entryDx=0;entryDy=0;endArrow=blockThin;endFill=1;strokeColor=#98A2AE;fontSize=5;fontFamily=Manrope;fontSource=https%3A%2F%2Ffonts.googleapis.com%2Fcss%3Ffamily%3DManrope;labelBackgroundColor=#4D5766;fontColor=#FFFFFF;endSize=0;startSize=0;strokeWidth=2;" parent="1" target="9zTi3nsKfj2Z9hqAuiEz-307" edge="1">
          <mxGeometry relative="1" as="geometry">
            <mxPoint x="54.400000000000006" y="312.62" as="sourcePoint" />
            <mxPoint x="114.4" y="312.62" as="targetPoint" />
          </mxGeometry>
        </mxCell>
        <mxCell id="9zTi3nsKfj2Z9hqAuiEz-307" value="1" style="ellipse;whiteSpace=wrap;html=1;aspect=fixed;fontColor=#FFFFFF;fontSize=8;strokeColor=#98A2AE;fontFamily=Manrope;fontSource=https://fonts.googleapis.com/css?family=Manrope;fillColor=#BEC8D2;strokeWidth=1;" parent="1" vertex="1">
          <mxGeometry x="117" y="306.78" width="10" height="10" as="geometry" />
        </mxCell>
        <mxCell id="9zTi3nsKfj2Z9hqAuiEz-342" value="&lt;span style=&quot;font-size: 8px;&quot;&gt;CE5&lt;br&gt;10.0.0.5&lt;br&gt;&lt;/span&gt;" style="text;html=1;align=center;verticalAlign=middle;resizable=0;points=[];autosize=1;fontSize=14;fontFamily=Manrope;fontStyle=0;fontColor=#FFFFFF;" parent="1" vertex="1">
          <mxGeometry x="136" y="246" width="44" height="46" as="geometry" />
        </mxCell>
        <mxCell id="9zTi3nsKfj2Z9hqAuiEz-344" value="3" style="ellipse;whiteSpace=wrap;html=1;aspect=fixed;fontColor=#FFFFFF;fontSize=8;strokeColor=#98A2AE;fontFamily=Manrope;fontSource=https://fonts.googleapis.com/css?family=Manrope;fillColor=#BEC8D2;strokeWidth=1;" parent="1" vertex="1">
          <mxGeometry x="240" y="394.58" width="10" height="10" as="geometry" />
        </mxCell>
        <mxCell id="9zTi3nsKfj2Z9hqAuiEz-345" value="" style="edgeStyle=none;rounded=0;orthogonalLoop=1;jettySize=auto;html=1;exitX=1;exitY=0.5;exitDx=0;exitDy=0;endArrow=blockThin;endFill=1;strokeColor=#98A2AE;fontSize=5;fontFamily=Manrope;fontSource=https%3A%2F%2Ffonts.googleapis.com%2Fcss%3Ffamily%3DManrope;labelBackgroundColor=#4D5766;fontColor=#FFFFFF;endSize=0;startSize=0;strokeWidth=2;" parent="1" source="9zTi3nsKfj2Z9hqAuiEz-346" edge="1">
          <mxGeometry relative="1" as="geometry">
            <mxPoint x="202" y="408" as="sourcePoint" />
            <mxPoint x="215" y="400" as="targetPoint" />
          </mxGeometry>
        </mxCell>
        <mxCell id="9zTi3nsKfj2Z9hqAuiEz-348" value="" style="edgeStyle=none;rounded=0;orthogonalLoop=1;jettySize=auto;html=1;exitX=1;exitY=0.5;exitDx=0;exitDy=0;endArrow=blockThin;endFill=1;strokeColor=#98A2AE;fontSize=5;fontFamily=Manrope;fontSource=https%3A%2F%2Ffonts.googleapis.com%2Fcss%3Ffamily%3DManrope;labelBackgroundColor=#4D5766;fontColor=#FFFFFF;endSize=0;startSize=0;strokeWidth=2;" parent="1" source="9zTi3nsKfj2Z9hqAuiEz-308" target="9zTi3nsKfj2Z9hqAuiEz-346" edge="1">
          <mxGeometry relative="1" as="geometry">
            <mxPoint x="197" y="400" as="sourcePoint" />
            <mxPoint x="215" y="400" as="targetPoint" />
          </mxGeometry>
        </mxCell>
        <mxCell id="9zTi3nsKfj2Z9hqAuiEz-346" value="" style="ellipse;whiteSpace=wrap;html=1;aspect=fixed;fontColor=#FFFFFF;fontSize=6;fontFamily=Manrope;fontSource=https%3A%2F%2Ffonts.googleapis.com%2Fcss%3Ffamily%3DManrope;fillColor=#BEC8D2;strokeColor=none;" parent="1" vertex="1">
          <mxGeometry x="216" y="397.58" width="4" height="4" as="geometry" />
        </mxCell>
        <mxCell id="9zTi3nsKfj2Z9hqAuiEz-349" value="" style="edgeStyle=none;rounded=0;orthogonalLoop=1;jettySize=auto;html=1;entryX=1;entryY=0.5;entryDx=0;entryDy=0;endArrow=blockThin;endFill=1;strokeColor=#98A2AE;fontSize=5;fontFamily=Manrope;fontSource=https%3A%2F%2Ffonts.googleapis.com%2Fcss%3Ffamily%3DManrope;labelBackgroundColor=#4D5766;fontColor=#FFFFFF;endSize=0;startSize=0;strokeWidth=2;exitX=0;exitY=0.5;exitDx=0;exitDy=0;" parent="1" source="9zTi3nsKfj2Z9hqAuiEz-344" target="9zTi3nsKfj2Z9hqAuiEz-346" edge="1">
          <mxGeometry relative="1" as="geometry">
            <mxPoint x="276.5" y="477.27" as="sourcePoint" />
            <mxPoint x="201.5" y="429.27" as="targetPoint" />
          </mxGeometry>
        </mxCell>
        <mxCell id="9zTi3nsKfj2Z9hqAuiEz-353" value="" style="edgeStyle=none;rounded=0;orthogonalLoop=1;jettySize=auto;html=1;endArrow=blockThin;endFill=1;strokeColor=#98A2AE;fontSize=5;fontFamily=Manrope;fontSource=https%3A%2F%2Ffonts.googleapis.com%2Fcss%3Ffamily%3DManrope;labelBackgroundColor=#4D5766;fontColor=#FFFFFF;endSize=0;startSize=0;strokeWidth=2;exitX=-0.008;exitY=0.626;exitDx=0;exitDy=0;entryX=1;entryY=0.5;entryDx=0;entryDy=0;exitPerimeter=0;" parent="1" source="208" target="92" edge="1">
          <mxGeometry relative="1" as="geometry">
            <mxPoint x="384" y="466" as="sourcePoint" />
            <mxPoint x="340" y="268.5799999999999" as="targetPoint" />
          </mxGeometry>
        </mxCell>
        <mxCell id="9zTi3nsKfj2Z9hqAuiEz-356" value="" style="edgeStyle=none;rounded=0;orthogonalLoop=1;jettySize=auto;html=1;exitX=1;exitY=1;exitDx=0;exitDy=0;endArrow=blockThin;endFill=1;strokeColor=#98A2AE;fontSize=5;fontFamily=Manrope;fontSource=https%3A%2F%2Ffonts.googleapis.com%2Fcss%3Ffamily%3DManrope;labelBackgroundColor=#4D5766;fontColor=#FFFFFF;endSize=0;startSize=0;strokeWidth=2;" parent="1" source="49" target="220" edge="1">
          <mxGeometry relative="1" as="geometry">
            <mxPoint x="311" y="383" as="sourcePoint" />
            <mxPoint x="345" y="434" as="targetPoint" />
          </mxGeometry>
        </mxCell>
        <mxCell id="220" value="" style="ellipse;whiteSpace=wrap;html=1;aspect=fixed;fontColor=#FFFFFF;fontSize=6;fontFamily=Manrope;fontSource=https%3A%2F%2Ffonts.googleapis.com%2Fcss%3Ffamily%3DManrope;fillColor=#BEC8D2;strokeColor=none;" parent="1" vertex="1">
          <mxGeometry x="335" y="430" width="4" height="4" as="geometry" />
        </mxCell>
        <mxCell id="92" value="" style="ellipse;whiteSpace=wrap;html=1;aspect=fixed;fontColor=#FFFFFF;fontSize=6;fontFamily=Manrope;fontSource=https%3A%2F%2Ffonts.googleapis.com%2Fcss%3Ffamily%3DManrope;fillColor=#BEC8D2;strokeColor=none;" parent="1" vertex="1">
          <mxGeometry x="336" y="268.58" width="4" height="4" as="geometry" />
        </mxCell>
        <mxCell id="9zTi3nsKfj2Z9hqAuiEz-358" value="&lt;font style=&quot;font-size: 8px;&quot;&gt;PE1&lt;br&gt;10.0.0.3&lt;/font&gt;" style="text;html=1;align=center;verticalAlign=middle;resizable=0;points=[];autosize=1;fontSize=14;fontFamily=Manrope;fontStyle=0;fontColor=#FFFFFF;" parent="1" vertex="1">
          <mxGeometry x="249" y="248.05" width="44" height="46" as="geometry" />
        </mxCell>
        <mxCell id="9zTi3nsKfj2Z9hqAuiEz-362" value="" style="edgeStyle=none;rounded=0;orthogonalLoop=1;jettySize=auto;html=1;endArrow=blockThin;endFill=1;strokeColor=#98A2AE;fontSize=5;fontFamily=Manrope;fontSource=https%3A%2F%2Ffonts.googleapis.com%2Fcss%3Ffamily%3DManrope;labelBackgroundColor=#4D5766;fontColor=#FFFFFF;endSize=0;startSize=0;strokeWidth=2;exitX=1;exitY=0.5;exitDx=0;exitDy=0;entryX=0;entryY=1;entryDx=0;entryDy=0;" parent="1" source="199" target="224" edge="1">
          <mxGeometry relative="1" as="geometry">
            <mxPoint x="439" y="457" as="sourcePoint" />
            <mxPoint x="482" y="447" as="targetPoint" />
          </mxGeometry>
        </mxCell>
        <mxCell id="224" value="" style="ellipse;whiteSpace=wrap;html=1;aspect=fixed;fontColor=#FFFFFF;fontSize=6;fontFamily=Manrope;fontSource=https%3A%2F%2Ffonts.googleapis.com%2Fcss%3Ffamily%3DManrope;fillColor=#BEC8D2;strokeColor=none;" parent="1" vertex="1">
          <mxGeometry x="473" y="431.5" width="4" height="4" as="geometry" />
        </mxCell>
        <mxCell id="9zTi3nsKfj2Z9hqAuiEz-363" value="" style="ellipse;whiteSpace=wrap;html=1;aspect=fixed;fontColor=#FFFFFF;fontSize=6;fontFamily=Manrope;fontSource=https%3A%2F%2Ffonts.googleapis.com%2Fcss%3Ffamily%3DManrope;fillColor=#BEC8D2;strokeColor=none;" parent="1" vertex="1">
          <mxGeometry x="473" y="268.5" width="4" height="4" as="geometry" />
        </mxCell>
        <mxCell id="9zTi3nsKfj2Z9hqAuiEz-371" value="3" style="ellipse;whiteSpace=wrap;html=1;aspect=fixed;fontColor=#FFFFFF;fontSize=8;strokeColor=#98A2AE;fontFamily=Manrope;fontSource=https://fonts.googleapis.com/css?family=Manrope;fillColor=#BEC8D2;strokeWidth=1;" parent="1" vertex="1">
          <mxGeometry x="563" y="395.5" width="10" height="10" as="geometry" />
        </mxCell>
        <mxCell id="9zTi3nsKfj2Z9hqAuiEz-372" value="7" style="ellipse;whiteSpace=wrap;html=1;aspect=fixed;fontColor=#FFFFFF;fontSize=8;strokeColor=#98A2AE;fontFamily=Manrope;fontSource=https://fonts.googleapis.com/css?family=Manrope;fillColor=#BEC8D2;strokeWidth=1;" parent="1" vertex="1">
          <mxGeometry x="616" y="395.58" width="10" height="10" as="geometry" />
        </mxCell>
        <mxCell id="9zTi3nsKfj2Z9hqAuiEz-373" value="" style="edgeStyle=none;rounded=0;orthogonalLoop=1;jettySize=auto;html=1;exitX=1;exitY=0.5;exitDx=0;exitDy=0;endArrow=blockThin;endFill=1;strokeColor=#98A2AE;fontSize=5;fontFamily=Manrope;fontSource=https%3A%2F%2Ffonts.googleapis.com%2Fcss%3Ffamily%3DManrope;labelBackgroundColor=#4D5766;fontColor=#FFFFFF;endSize=0;startSize=0;strokeWidth=2;" parent="1" source="9zTi3nsKfj2Z9hqAuiEz-375" edge="1">
          <mxGeometry relative="1" as="geometry">
            <mxPoint x="578" y="409" as="sourcePoint" />
            <mxPoint x="591" y="401" as="targetPoint" />
          </mxGeometry>
        </mxCell>
        <mxCell id="9zTi3nsKfj2Z9hqAuiEz-374" value="" style="edgeStyle=none;rounded=0;orthogonalLoop=1;jettySize=auto;html=1;exitX=1;exitY=0.5;exitDx=0;exitDy=0;endArrow=blockThin;endFill=1;strokeColor=#98A2AE;fontSize=5;fontFamily=Manrope;fontSource=https%3A%2F%2Ffonts.googleapis.com%2Fcss%3Ffamily%3DManrope;labelBackgroundColor=#4D5766;fontColor=#FFFFFF;endSize=0;startSize=0;strokeWidth=2;" parent="1" source="9zTi3nsKfj2Z9hqAuiEz-371" target="9zTi3nsKfj2Z9hqAuiEz-375" edge="1">
          <mxGeometry relative="1" as="geometry">
            <mxPoint x="573" y="401" as="sourcePoint" />
            <mxPoint x="591" y="401" as="targetPoint" />
          </mxGeometry>
        </mxCell>
        <mxCell id="9zTi3nsKfj2Z9hqAuiEz-375" value="" style="ellipse;whiteSpace=wrap;html=1;aspect=fixed;fontColor=#FFFFFF;fontSize=6;fontFamily=Manrope;fontSource=https%3A%2F%2Ffonts.googleapis.com%2Fcss%3Ffamily%3DManrope;fillColor=#BEC8D2;strokeColor=none;" parent="1" vertex="1">
          <mxGeometry x="592" y="398.58" width="4" height="4" as="geometry" />
        </mxCell>
        <mxCell id="9zTi3nsKfj2Z9hqAuiEz-376" value="" style="edgeStyle=none;rounded=0;orthogonalLoop=1;jettySize=auto;html=1;entryX=1;entryY=0.5;entryDx=0;entryDy=0;endArrow=blockThin;endFill=1;strokeColor=#98A2AE;fontSize=5;fontFamily=Manrope;fontSource=https%3A%2F%2Ffonts.googleapis.com%2Fcss%3Ffamily%3DManrope;labelBackgroundColor=#4D5766;fontColor=#FFFFFF;endSize=0;startSize=0;strokeWidth=2;exitX=0;exitY=0.5;exitDx=0;exitDy=0;" parent="1" source="9zTi3nsKfj2Z9hqAuiEz-372" target="9zTi3nsKfj2Z9hqAuiEz-375" edge="1">
          <mxGeometry relative="1" as="geometry">
            <mxPoint x="652.5" y="478.27" as="sourcePoint" />
            <mxPoint x="577.5" y="430.27" as="targetPoint" />
          </mxGeometry>
        </mxCell>
        <mxCell id="9zTi3nsKfj2Z9hqAuiEz-378" value="" style="rounded=0;whiteSpace=wrap;html=1;" parent="1" vertex="1">
          <mxGeometry x="627" y="292.73" width="60" height="111" as="geometry" />
        </mxCell>
        <mxCell id="9zTi3nsKfj2Z9hqAuiEz-379" value="" style="shape=image;verticalLabelPosition=bottom;labelBackgroundColor=default;verticalAlign=top;aspect=fixed;imageAspect=0;image=data:image/png,iVBORw0KGgoAAAANSUhEUgAAAFgAAABYCAYAAABxlTA0AAAAAXNSR0IArs4c6QAAAARnQU1BAACxjwv8YQUAAAAJcEhZcwAAFxEAABcRAcom8z8AAAikSURBVHhe7ZwJbBRVGMe3pUBrASkUlVMpV6EUQSlCCqhEjbYiIQEUETFyVEAr3hDwquCFVE2EYoTWCBTk8KgmiBfGqDEoRbkE5JByWW9UtJTC5/d/MwPD8na7OzOvu4vvS35pd3bezPS337735r039flSskijiKZZf2nBKtGCFaMFK0YLVowWrBgtWDFasGK0YMVowYrRghUTlYIbX8IX1lv+XqwRVYKb9SFfYiYlpPYlX1IP+T6xRtQIhlxfF2rf4wbasHE7jc57lF+nyfeVgYyPS+cyncWHJI4n26+uiQrBpty0jFzavfcAIU6cOEE33jY1NMnnXkoJLfrSkFH308hx0ykzeyT5knvK961rIi7YytxuOSz3oJBrxQlm+JiHapfcqCc1aXcFVR2tFuUK5y7hMh3l+9Y1ERV8WuaeLtcKSB5Rm2QW3Ljt5VT582+izKw5xbx/J/m+dU3EBFtyOXP3VBwSYhBHzSw8Wm38tCKoZC3YjwDVwosvv04LFr0tft+6fQ/d9eBs8TsCdXLA6kILtgG5cWa1UHFK7qLlq1lKGyoqXiVe7913iHz1utJtEx8TrxGoLqQNnxZsg7tQPfuNoH0HK4UMxOIV75GvQQZLuYhKSt8V2yr2/0gNL8jmbe1ofP5Msc2K2yc/Tr6G3U8dUwu2kdCVcoffLUQgFiNzIfeci1lKOhUveUdsh+DElv2N7hZnrF3yHPQSErrxxZt3e1qwDVH/duL+6gx6lbPVl8RiIdesl88Q3KiXIdLXge6Z/jy9ULRUVB3o+548phYsoSHfbTXgrznGHSAX2wIJxnuQjP2R7Xa5QAuW0BT4DegEEyzK8P7+ZYAWHCK1CQ6EFhwiWrBiIi0YjafV4Mred4IWbMLnzhkxhdp1v150JT2T/L8XzI1mHN/8jJ1cIMpu2rqTUtsMNLLZC8laMAvmu8LSVe+LsojyjdupuVeSdRXBNO5F8Uk9xC27FetZsshkt9WFFsxAIBo3vomxSy7fZEp2k8lasEkzBrftfLfon8muqgvHgnGyZL4gliImGj3h/JPDlW4Ez5hZxMdK9Tt2qFzItKEX5y+j48ePi+OJ6qKtQ8mOBfMnnX3tOCopfYezrswTFrLcHbsqxB/lRvD6b7fR3KKl4sMKm5I36CUuO2/hSvrn3ypxPAQavgsuGmRUJbJrCIRjwb6ONPn+Z8zTex8/saxwBDdhwX/+fcQsrSY+W7eREs7pceZgUzAcC45Pp+FjptL+A5Ui27xkHx/zy683GQPu3MJLz2+H90luPZDLbKadu/fR9/wtcAyX37FzL33DDVx19TFTLdERzubcYfkUl5QJafLrkOFYMPcf66VeRkmt+otM85IkRsiVnTcI9VL7ivURWBnkCC5bD3UsN5AYe64+Zgg+8k8VDcrN4+0dpOcNimPB4NzexldYBRgnlp0zGE24DMo5AWXF7MmFNOm+p4VYBORemTPemVzgSvDZBOpVXxrlP/ScqZZEIzcod4JzuUCJ4EAD49EKrpUl2uUa1YJLucBzwWgAMOPrPx0UrWAsIjGTpj8xz1RrNGhX5nggF3gqWGRCGk3i7hsWkPgSuUuDuk22b7RgCn7ltbeEXKNaMBs03N3JyoSDZ4JNuWPueFRcKGLB4jKKwyQl3pOViRaQBPytw6LBwSPv9SZzLTwRbModnfewqdaIcXcWGNVFOP3GSIBMbcKNHG6Fcb1eVmuuBZtyb817xNRqRMhre6MJFd80V4ItubZqARGTclXhWLAkc7H0dOjN9/H2tkanvZEb+GZDdt5giJsU2bE8wGl2OxJsyrU3aFVV1TQ2f6aYfsHIlluSMQYrO3cA4rgebcRlZMfyAtxKO5IctmA+CaZX8qbMMtUagYGRXXv2U+VPv4phQ7fgQRgxHhFKJnOGQe6Wbbulx/KCy9F1QyMoO38wwhbMNw+JKb1py/Y9plo1gQ8KAz+hCkaW/XH4L7O09zH4JnTfusjPHwxHVQRncOsOV9Fmzhgr0EF/oaiUZheWUCH/LJzngMJXafN3u8TxMGwZrmBkGgID7oW4Dtk5HNIla5izZ/ccCUY/MT6dWrYfRJtMIZhewSyAaOAEnZiOYdKC5hW7nzKaNaeEj9Xc79guQUPnpH/sSDAwJWMaxZKMWFH2EdfRmcanHe4FeTTpiYwLe9JTFY4FA0syZ7K9ulhZ9rEx8h+uZC1YgpDcVZrJDTDdE8qUj4UWHAB7dbHtlOQlK9dQXH3bsxS1oQUHwZSMhg9T7zU1x+n6YfnGg9my/WVowbUAydwZb99ziFgzIRZy6DrYQ8EAQtG41c8ITy7QghWjBStGC1ZMqIIxxW7vmYQi2L9MXRFTglGn4zWWmWJC1RIWTDDKYGwahNOj8YqYEoyV6Cxq+Zsf0LSCubx/B3N1UQDBkNsgg5LP60erP/yCRk14mLeH2bNxS8wIxjh0w+60jOVacecDz3KZNLGk9EzBLBJyWebaz9aL7Yhrhk42HiT3P7cqYkkw1i9MvOcp8b4VhuR2lNx6wEnBz+OBcV9rSm7ehz75vFxsQ2CNb1rX68Jf4+uGmKoiMP3vNw+ImDBllni4/FDlL+J1wewFFJ/YidZ+fipz123YSs1a8fGQvbqKCCAYoGFjybdwfWqPaQUv0e4fjH8JNr9kFa0oWyt+R6wr30opLbPrXi6IOcHAlDzaT3JNTY34if/vY8VXG76LnFwQrYKxyj2gYBBAsj2MzI1AtWAnugR3ptJVa4ScX38/HFwwsKqL8WdKRp0b0cy1iCrBLDOj3410NXelBuSMp/jmlxkSZftamJLtDd+68i2UEokGTUZUCYYM3G3FpxtyQl00aEqeMOVJ+vSLDZSCRSvRIBdElWA3QDKGSTHm4GTCVRVnjWAAyViGKnsvUpxVgqMRLVgxWrBitGDFaMGK0YIVowUrRgtWjBasGC1YMU2zjviEZY0isn78D43o8OjRWGtOAAAAAElFTkSuQmCC;" parent="1" vertex="1">
          <mxGeometry x="633" y="322.23" width="50" height="50" as="geometry" />
        </mxCell>
        <mxCell id="9zTi3nsKfj2Z9hqAuiEz-387" value="&lt;span style=&quot;font-size: 8px;&quot;&gt;CE6&lt;br&gt;10.0.0.6&lt;br&gt;&lt;/span&gt;" style="text;html=1;align=center;verticalAlign=middle;resizable=0;points=[];autosize=1;fontSize=14;fontFamily=Manrope;fontStyle=0;fontColor=#FFFFFF;" parent="1" vertex="1">
          <mxGeometry x="637" y="245.73" width="44" height="46" as="geometry" />
        </mxCell>
        <mxCell id="9zTi3nsKfj2Z9hqAuiEz-377" value="" style="edgeStyle=none;rounded=0;orthogonalLoop=1;jettySize=auto;html=1;exitX=1;exitY=0.5;exitDx=0;exitDy=0;entryX=0;entryY=0.5;entryDx=0;entryDy=0;endArrow=blockThin;endFill=1;strokeColor=#98A2AE;fontSize=5;fontFamily=Manrope;fontSource=https%3A%2F%2Ffonts.googleapis.com%2Fcss%3Ffamily%3DManrope;labelBackgroundColor=#4D5766;fontColor=#FFFFFF;endSize=0;startSize=0;strokeWidth=2;" parent="1" source="9zTi3nsKfj2Z9hqAuiEz-386" edge="1">
          <mxGeometry relative="1" as="geometry">
            <mxPoint x="630.4" y="312.35" as="sourcePoint" />
            <mxPoint x="690.4" y="312.35" as="targetPoint" />
          </mxGeometry>
        </mxCell>
        <mxCell id="9zTi3nsKfj2Z9hqAuiEz-382" value="" style="edgeStyle=none;rounded=0;orthogonalLoop=1;jettySize=auto;html=1;exitX=1;exitY=0.5;exitDx=0;exitDy=0;entryX=0;entryY=0.5;entryDx=0;entryDy=0;endArrow=blockThin;endFill=1;strokeColor=#98A2AE;fontSize=5;fontFamily=Manrope;fontSource=https%3A%2F%2Ffonts.googleapis.com%2Fcss%3Ffamily%3DManrope;labelBackgroundColor=#4D5766;fontColor=#FFFFFF;endSize=0;startSize=0;strokeWidth=2;" parent="1" source="9zTi3nsKfj2Z9hqAuiEz-385" edge="1">
          <mxGeometry relative="1" as="geometry">
            <mxPoint x="630.4" y="349.77000000000004" as="sourcePoint" />
            <mxPoint x="690.4" y="349.77000000000004" as="targetPoint" />
          </mxGeometry>
        </mxCell>
        <mxCell id="9zTi3nsKfj2Z9hqAuiEz-383" value="" style="edgeStyle=none;rounded=0;orthogonalLoop=1;jettySize=auto;html=1;exitX=1;exitY=0.5;exitDx=0;exitDy=0;entryX=0;entryY=0.5;entryDx=0;entryDy=0;endArrow=blockThin;endFill=1;strokeColor=#98A2AE;fontSize=5;fontFamily=Manrope;fontSource=https%3A%2F%2Ffonts.googleapis.com%2Fcss%3Ffamily%3DManrope;labelBackgroundColor=#4D5766;fontColor=#FFFFFF;endSize=0;startSize=0;strokeWidth=2;" parent="1" source="9zTi3nsKfj2Z9hqAuiEz-384" edge="1">
          <mxGeometry relative="1" as="geometry">
            <mxPoint x="630.4" y="387.84000000000003" as="sourcePoint" />
            <mxPoint x="690.4" y="387.84000000000003" as="targetPoint" />
          </mxGeometry>
        </mxCell>
        <mxCell id="9zTi3nsKfj2Z9hqAuiEz-384" value="3" style="ellipse;whiteSpace=wrap;html=1;aspect=fixed;fontColor=#FFFFFF;fontSize=8;strokeColor=#98A2AE;fontFamily=Manrope;fontSource=https://fonts.googleapis.com/css?family=Manrope;fillColor=#BEC8D2;strokeWidth=1;" parent="1" vertex="1">
          <mxGeometry x="689" y="381.73" width="10" height="10" as="geometry" />
        </mxCell>
        <mxCell id="9zTi3nsKfj2Z9hqAuiEz-385" value="2" style="ellipse;whiteSpace=wrap;html=1;aspect=fixed;fontColor=#FFFFFF;fontSize=8;strokeColor=#98A2AE;fontFamily=Manrope;fontSource=https://fonts.googleapis.com/css?family=Manrope;fillColor=#BEC8D2;strokeWidth=1;" parent="1" vertex="1">
          <mxGeometry x="689" y="344.20000000000005" width="10" height="10" as="geometry" />
        </mxCell>
        <mxCell id="9zTi3nsKfj2Z9hqAuiEz-386" value="1" style="ellipse;whiteSpace=wrap;html=1;aspect=fixed;fontColor=#FFFFFF;fontSize=8;strokeColor=#98A2AE;fontFamily=Manrope;fontSource=https://fonts.googleapis.com/css?family=Manrope;fillColor=#BEC8D2;strokeWidth=1;" parent="1" vertex="1">
          <mxGeometry x="689" y="306.51" width="10" height="10" as="geometry" />
        </mxCell>
        <mxCell id="9zTi3nsKfj2Z9hqAuiEz-452" value="&lt;span style=&quot;font-size: 8px;&quot;&gt;Client8&lt;/span&gt;" style="text;html=1;align=center;verticalAlign=middle;resizable=0;points=[];autosize=1;fontSize=14;fontFamily=Manrope;fontStyle=0;fontColor=#FFFFFF;" parent="1" vertex="1">
          <mxGeometry x="750" y="262.7300000000001" width="42" height="29" as="geometry" />
        </mxCell>
        <mxCell id="9zTi3nsKfj2Z9hqAuiEz-456" style="edgeStyle=none;rounded=0;orthogonalLoop=1;jettySize=auto;html=1;endArrow=none;endFill=0;strokeColor=#98A2AE;startArrow=blockThin;startFill=1;fontSize=5;fontFamily=Manrope;fontSource=https%3A%2F%2Ffonts.googleapis.com%2Fcss%3Ffamily%3DManrope;labelBackgroundColor=#4D5766;fontColor=#FFFFFF;endSize=0;startSize=0;strokeWidth=2;exitX=1;exitY=0.5;exitDx=0;exitDy=0;" parent="1" source="9zTi3nsKfj2Z9hqAuiEz-385" edge="1">
          <mxGeometry relative="1" as="geometry">
            <mxPoint x="706" y="352" as="sourcePoint" />
            <mxPoint x="762" y="349" as="targetPoint" />
          </mxGeometry>
        </mxCell>
        <mxCell id="9zTi3nsKfj2Z9hqAuiEz-457" style="edgeStyle=none;rounded=0;orthogonalLoop=1;jettySize=auto;html=1;entryX=0.077;entryY=0.501;entryDx=0;entryDy=0;endArrow=none;endFill=0;strokeColor=#98A2AE;startArrow=blockThin;startFill=1;fontSize=5;fontFamily=Manrope;fontSource=https%3A%2F%2Ffonts.googleapis.com%2Fcss%3Ffamily%3DManrope;labelBackgroundColor=#4D5766;fontColor=#FFFFFF;endSize=0;startSize=0;strokeWidth=2;exitX=1;exitY=0.5;exitDx=0;exitDy=0;entryPerimeter=0;" parent="1" source="9zTi3nsKfj2Z9hqAuiEz-386" target="9zTi3nsKfj2Z9hqAuiEz-430" edge="1">
          <mxGeometry relative="1" as="geometry">
            <mxPoint x="697" y="310.72" as="sourcePoint" />
            <mxPoint x="762" y="310.85" as="targetPoint" />
          </mxGeometry>
        </mxCell>
        <mxCell id="9zTi3nsKfj2Z9hqAuiEz-498" value="&lt;font color=&quot;#1a1a1a&quot;&gt;Access&amp;nbsp; L2&lt;/font&gt;" style="rounded=1;whiteSpace=wrap;html=1;fontSize=8;strokeWidth=1;fillColor=#DAE8FC;strokeColor=none;fontColor=#FFFFFF;fontFamily=Manrope;fontSource=https%3A%2F%2Ffonts.googleapis.com%2Fcss%3Ffamily%3DManrope;spacing=0;" parent="1" vertex="1">
          <mxGeometry x="553" y="561" width="250" height="12" as="geometry" />
        </mxCell>
        <mxCell id="9zTi3nsKfj2Z9hqAuiEz-505" value="&lt;font style=&quot;font-size: 8px;&quot;&gt;MACSec&lt;/font&gt;" style="shape=doubleArrow;whiteSpace=wrap;html=1;arrowWidth=0.6277056277056297;arrowSize=0.16047619047619008;fontSize=8;fontFamily=Manrope;fillColor=#DAE8FC;strokeColor=none;fontColor=#000000;rounded=1;strokeWidth=1;fontSource=https%3A%2F%2Ffonts.googleapis.com%2Fcss%3Ffamily%3DManrope;spacing=0;" parent="1" vertex="1">
          <mxGeometry x="140" y="528" width="121" height="20" as="geometry" />
        </mxCell>
        <mxCell id="9zTi3nsKfj2Z9hqAuiEz-506" value="&lt;font style=&quot;font-size: 8px;&quot;&gt;MACSec&lt;/font&gt;" style="shape=doubleArrow;whiteSpace=wrap;html=1;arrowWidth=0.6277056277056297;arrowSize=0.16047619047619008;fontSize=8;fontFamily=Manrope;fillColor=#DAE8FC;strokeColor=none;fontColor=#000000;rounded=1;strokeWidth=1;fontSource=https%3A%2F%2Ffonts.googleapis.com%2Fcss%3Ffamily%3DManrope;spacing=0;" parent="1" vertex="1">
          <mxGeometry x="545" y="528" width="121" height="20" as="geometry" />
        </mxCell>
        <mxCell id="9zTi3nsKfj2Z9hqAuiEz-507" value="&lt;font style=&quot;font-size: 8px;&quot;&gt;ANYSec&lt;/font&gt;" style="shape=doubleArrow;whiteSpace=wrap;html=1;arrowWidth=0.4809523809523853;arrowSize=0.10446009389671389;fontSize=8;fontFamily=Manrope;fillColor=#d5e8d4;strokeColor=#82b366;rounded=1;strokeWidth=1;fontSource=https%3A%2F%2Ffonts.googleapis.com%2Fcss%3Ffamily%3DManrope;spacing=0;" parent="1" vertex="1">
          <mxGeometry x="261" y="528" width="284" height="20" as="geometry" />
        </mxCell>
        <mxCell id="259" value="" style="shape=image;verticalLabelPosition=bottom;labelBackgroundColor=default;verticalAlign=top;aspect=fixed;imageAspect=0;image=data:image/png,iVBORw0KGgoAAAANSUhEUgAAALoAAAC6CAYAAAAZDlfxAAAAAXNSR0IArs4c6QAAAARnQU1BAACxjwv8YQUAAAAJcEhZcwAADsMAAA7DAcdvqGQAAA0wSURBVHhe7Z1LjBxHGcdr9hHbu96s7CQEYzs4spAQQoosLli2FZ985gQ3JCwUISJZediBmGyya1tAFAkhISTEwUjcuHCBkyWkGNZYXBBcECeHxASwCDZh/Vg/dof591bt9vR0T7+qur+q/v+k3qmene3pnfn1N19/VTXdU6QQi4uLv9PNOEcGSxOvYV/fgiv6NmKwX8d0k4yBomeQELspoauAg2BTfoqfDkXXeCR2HpviU/otOi16Qu6j+jYkTMrTefE7J3oH5B5HFO27KHxnRI8J3jW50+hcehO06DG5fc65XdOJKB/km8/oXYmgo3xQolNwayzjR0jCByE6BXdGMMJ7LToFb4xl32X3VnQtOQVvDq9PWr0TXQvOKkp7eCm8N7JowQGjuAy8Sme8EF1LTsHl4U10Fy06o7g3iI/uYkVnFPcO0dFdpOiU3GtERndRomvBASX3G3GyixGdUTw4RKUyIkSn5EEjIrq3Ljol7wSty96q6JS8U7Qqe2uiU/JO0prsrYhOyTtNK7I3KroWHFDybtO47I2JzihOEjRafpzQt02AobWEGBBkj8Y+5Z3SiOj6n2ntxJcQ5/IxZSEFcJ6zOxWdkpMSOJXdmeiUnFTAmexORJcm+cTExqlIv9+Plir0er1oAevr69FtFWzsCzDbsbEvoM52LONEduuiS5N8//796uTJk1H74sWL6vr161G7LDa2I2lfIPnCwoJeU+r8+fNBy2616iJNcltACiNWqOzdu1e3RGC97GhV9AGslXuCMLHTsCq7NdH1Tjmt4hBSFSuih5qykNaxFtVri07JiWOsyG4jojMvJ66pLXst0fWTMy8n4qksOlMW0jC1onqdiM6UhTRNZdkrie5LyjK/66mhjh6093yqfP04WXPGdubmn9BrxbC1L594es/IdnY/+bReK8bs3K6hbQCs4/5QKS2rpJQFXeHjSL6ZBnSbl8HGdnzYF5C3narDFixTeohAFdExIKLlaN4bSL5v7BtG3IADQYDs/YGHpbKRUg+WkrJQ8vbA6573SdoAPe1iYcrm6AJOQHuUnIBSJ6aFo7PeaOu5eXJ4KfjT+0q9++uf6bVh8Pj5uZmofe/+Q7W6ej9ql2X79m1qx7Zptd5XauX2HbWORkkmJnpqbuesGtzU2pepqSk1N7s9aq/cWVWPHj2K2mWZ2zmjpiYn1KO19cH/dFffO8qXvvw1deApvaJZWjo3+Fl9PL0lCufqhUSXIjmIj8U2LC0t6RZxwtSseus7p/XKBoLGrxeSvU4dnRBvyBVdUjQnJIVCuTojOukEY0VnNCeekBvVGdFJJ8gTvbG6OcqAeUtaxYW0A0q8ae9R2tIQY6N6ZnmxybSlrsAsL7plcvsu9ca3Tum1cjRchswsNY473BqL5nWjdL83pVvEBbOzO3VLPJnOpoquo3ljY1rKjuAbob+mG8QFq6uruiWezDEwqTI3mbYYigwUyor8TF0ck9IzCooEqA8//LDpHtTU9CVLdAFDcUfpT2xTiwvf1mtbUHTHpIguZLhuFiOyj6QuOpqLkxz01u/XT3OIFRCpfSItR+dcUBIcQ6JLjuaElGCkpj6uvEhIMCRFZ9pCgoQRnYTKUPqyKTrzcxIyjOikE8RFZ35OQmPT6Uh0pi0kUDbHvjB1IZ3AK9Enp2c48UIIHlzsa4goXRmE91YHcWEWSpEXjqMXW2J6p3rr7Kt6ZQuhoxeTRN/TaHKYVidA151htLh0fnCUtvpiBs2O+T3qtZde0GvlEPJFR8uB5Og8j3bJZHPzPp0hJqIXgalLO/Qee1y9+frLem0LT1IXsCxC9KLgigynXxmdpEvRHePfxIskUeriTUfRnZVbnHghhBAmXhASGkeQurRaWixLWoWmbuoyM79HPfe5A3qtHFevXtWtLQ4fPqxb2fz9X7fUf25+rO5+/E99TzH2P/tZte+TxS6q9fs//DGaflgb2V8bXQhEdJYsBpw4cSJabJG3vZNf/Yo689IL0UGBA60okNzmfnYFRPTWL1tQBlcRHdJd/Pkv1PX3/qrvrQ7khYyL57+fGVHxnE/sno+EB0WfG9vGp4GN/SxMIBGdtABSFsj6zg9/Gq1DeHydxzjwe0bzalD0loHwiObgmU8/G93mgdyelIOiC8CIm3eSOTu3W7dIWSi6ABDVL126FKUleekLuLNyU7dIUSi6R+DklVSDonsGIr+V2njHoOikE3glOgZ11Rm3LhVTNsyL1qazCDV49JCiph5fcH+RHN8Gvs0wmjx+/PiibrcGOoHm5+dzlxe/+Q39F8NcvnxZt6oxvX1OHfniF9Sh5z6vHjx4EO3PuKU3vVP9778f6b8eBY85ePCgeve3y6pX4CIFzxz4TPTcv/zVb9TD+7f1vaOY7WJf/33jH/reDXAA4P7jzx9V1z64MXb/ytKb2qGePzY8rOHQoUPq2rVrqe9TfLl9+7bq99vvkxTRM4o3sN4Mowuqp6pf9cL0jAJE1TzyeiYRXSHeuJ5RAyKz6R3NezweC9LGyCCSow5ftqe1CDt37VWvnvq6XiuHlB7UQHJ0O8cq5MAgrbylrkCQEksZyQGeF0vaQDD8LX5nOp+K9LQWZc2jrv4sxET0IriaYeRqrAtI+4QwvwP4vbVRhhrz/BhekHZQlMbvydERIiI6ZqoUWS589x39F34DuXFQQUR8QtiUHPz5L3+LbqsOPR4hJcc2M4zyFikDv7xKXdYe3vVqhhHSkWTaY5asFMQGTfSccoYRIQKh6KQTUPQA4SjHUSh6gJjBX6j3kw0oemCgdm5q8x+8/150Syh6UEByc2VtlC9tly19hqJ7wrhBW2aQV1xyGx1fIUHRPQAio6cTvbeQGdLHF9yPdMV0RFHyUSi6pshgrjLY3B46ltD5hJ5UiJwk3stKyVPpQ/T2x1C2DESyKYnp/bSZI2Nb2E/so9m+WXCfq17WUIDoVzaa8okqCgFOvPAR7y7tIuVro4uMYHQ1epHkkPJNXcCj0Ysyvh+9/sSLc6rHDMwZ0zNPqrNnXtRr5eClXWzSm9QN4oJt25qZh+qSMEQvMC+TVOfevbu65S8iLr8IcAnGPHAClJbiMEd3TEaOjrSkCC2nLtHlF41drVde8GLkLZixwku7yMDk3kWWloncDiN1ISQHik46QST6IIc5NrhhfY6EBvJzuD0U0b3pISWkIJtOM3UhnYCik1DZTFvApuj6zuWNNULCghGdhMrQOSdFJ51gSHSmLyQQhvJzwIhOQmSkVO6V6KFe2sVHBM8wGonmIHXE4uCBjU7GaPv70cl4eo89rt58/WW9toXQGUbLokWvN8Oo3qVdyHh2zO9Rr+lL35SlhRlGqaKnpi76gRz7QnwjNW0BmZMtmozqTF2E48+lXVKjORAhelFwMnr6lVN6bQuK7piUGUaQHBNhBIFonllcyfyFPjJE1dTvrNziDCMhCLy0y0hJMQ7r6KQTjBVdYlQnJIXM3NzAiE46Qa7ojOpEOLnRHHgX0dNOgvrZxSNigYnJKd3yl8KGDI4aEeVGfNHRwsKCXtvC9vebky3il3Q3CCnpFormwDvRQd0hA6QeQmroY+vmSQo/UB85zNWJlBr62Lp5ktLJ7UB49Oe2nhQzqjeP6azzLZqDKqILGhrQGwi/T7dHyToQyvau2tiOD/sCsrbTwnDbcRTOzQ2VIrMs2bOZnJ5Rb5w9o9c2+NGPf6JufnRDrxUj7dPj3IW3VX9tVa/lY2tf0sb7fO/tH6gHqyt6LZ/49Ujj4IJgHlybtLTkwLvyYhnWHt4dilBolxULJHNSbKeM5MDWviTH+6BdRnIAmePbAFj3QPLMYbh5VBJdPxlPTEnTlDoBjVM5olN20jCVUhZD0KkLCYbKKYuhluiM6qQhKqcshtoRnbITx9RKWQxWUhfKThxhRXLAHJ1IpXZeHsea6CFH9X4/vG/+SPYNCBm/Eqd2Xh7H+piVgfCiek2T1y+t2o0d3w7EryK/i30BNrYjqHsfWEtZDE4GZ0mTnXiFdcmBs1GIlJ1UwInkwJnogLKTEjiTHDgVHVB2UgCnkgPnogPKTsbgXHIwfPpOSLNYrZWPoxHR9T+DGju/iprEuaJvndNI6hKHaQwZEHUsNhXNQeOiA8reaRrJyZO0Ijqg7J2kFclBa6IDyt4pWpMctCo6oOydoFXJQeuiA8oeNK1LDkSIDrTsRwaLmH0itREhORAnFaN7EDRePsxDZPSk7F4jJorHEZsmaNmZyviFSMmBeIkY3b1AXKqSxItoyeguGrFRPI5X4jC6i0J8FI/jXYRkdG8djEC94ovgBm9lofCt4EWakob3kmjhmc64xas0JY0goqGWHVB4u3gvuCGoj30Kb41gBDcEmd/GhGcOX47gBDcEL4GWnsJnE1VR0AhRcENn3nxG+RGCjd5pdPIN73CUj+QGXRHc0OnIlojyIMTXo7Nyx+FHeIyE+L6+Nps5N+iy3HEoegYx6YFk8Sl2ASh6QRLiA5PugCZexyGhDRS7CEr9HyFdgaRoerEgAAAAAElFTkSuQmCC;" parent="1" vertex="1">
          <mxGeometry x="325" y="525" width="26" height="26" as="geometry" />
        </mxCell>
        <mxCell id="9zTi3nsKfj2Z9hqAuiEz-508" value="" style="group" parent="1" vertex="1" connectable="0">
          <mxGeometry x="14" y="74" width="80" height="80.5" as="geometry" />
        </mxCell>
        <mxCell id="112" value="" style="ellipse;whiteSpace=wrap;html=1;aspect=fixed;fillColor=#CCCCCC;strokeColor=none;" parent="9zTi3nsKfj2Z9hqAuiEz-508" vertex="1">
          <mxGeometry y="10.5" width="9" height="9" as="geometry" />
        </mxCell>
        <mxCell id="113" value="&lt;font style=&quot;font-size: 10px;&quot; data-font-src=&quot;https://fonts.googleapis.com/css?family=Manrope&quot; face=&quot;Manrope&quot; color=&quot;#FFFFFF&quot;&gt;0 - 0.5 Mbps&lt;/font&gt;" style="text;html=1;strokeColor=none;fillColor=none;align=left;verticalAlign=middle;whiteSpace=wrap;rounded=0;" parent="9zTi3nsKfj2Z9hqAuiEz-508" vertex="1">
          <mxGeometry x="17" width="63" height="30" as="geometry" />
        </mxCell>
        <mxCell id="114" value="" style="ellipse;whiteSpace=wrap;html=1;aspect=fixed;fillColor=#0000FF;strokeColor=none;" parent="9zTi3nsKfj2Z9hqAuiEz-508" vertex="1">
          <mxGeometry y="27.5" width="9" height="9" as="geometry" />
        </mxCell>
        <mxCell id="115" value="&lt;font style=&quot;font-size: 10px;&quot; data-font-src=&quot;https://fonts.googleapis.com/css?family=Manrope&quot; face=&quot;Manrope&quot; color=&quot;#FFFFFF&quot;&gt;0.5 - 2 Mbps&lt;/font&gt;" style="text;html=1;strokeColor=none;fillColor=none;align=left;verticalAlign=middle;whiteSpace=wrap;rounded=0;" parent="9zTi3nsKfj2Z9hqAuiEz-508" vertex="1">
          <mxGeometry x="17" y="16.5" width="63" height="30" as="geometry" />
        </mxCell>
        <mxCell id="116" value="" style="ellipse;whiteSpace=wrap;html=1;aspect=fixed;fillColor=#00CC00;strokeColor=none;" parent="9zTi3nsKfj2Z9hqAuiEz-508" vertex="1">
          <mxGeometry y="44.5" width="9" height="9" as="geometry" />
        </mxCell>
        <mxCell id="117" value="&lt;font style=&quot;font-size: 10px;&quot; data-font-src=&quot;https://fonts.googleapis.com/css?family=Manrope&quot; face=&quot;Manrope&quot; color=&quot;#FFFFFF&quot;&gt;2 - 5 Mbps&lt;/font&gt;" style="text;html=1;strokeColor=none;fillColor=none;align=left;verticalAlign=middle;whiteSpace=wrap;rounded=0;" parent="9zTi3nsKfj2Z9hqAuiEz-508" vertex="1">
          <mxGeometry x="17" y="33.5" width="63" height="30" as="geometry" />
        </mxCell>
        <mxCell id="118" value="" style="ellipse;whiteSpace=wrap;html=1;aspect=fixed;fillColor=#FF3333;strokeColor=none;" parent="9zTi3nsKfj2Z9hqAuiEz-508" vertex="1">
          <mxGeometry y="61" width="9" height="9" as="geometry" />
        </mxCell>
        <mxCell id="119" value="&lt;font style=&quot;font-size: 10px;&quot; data-font-src=&quot;https://fonts.googleapis.com/css?family=Manrope&quot; face=&quot;Manrope&quot; color=&quot;#FFFFFF&quot;&gt;5+ Mbps&lt;/font&gt;" style="text;html=1;strokeColor=none;fillColor=none;align=left;verticalAlign=middle;whiteSpace=wrap;rounded=0;" parent="9zTi3nsKfj2Z9hqAuiEz-508" vertex="1">
          <mxGeometry x="17" y="50.5" width="63" height="30" as="geometry" />
        </mxCell>
        <mxCell id="9zTi3nsKfj2Z9hqAuiEz-336" value="" style="rounded=0;whiteSpace=wrap;html=1;" parent="1" vertex="1">
          <mxGeometry x="127" y="292" width="60" height="111" as="geometry" />
        </mxCell>
        <mxCell id="9zTi3nsKfj2Z9hqAuiEz-306" value="" style="shape=image;verticalLabelPosition=bottom;labelBackgroundColor=default;verticalAlign=top;aspect=fixed;imageAspect=0;image=data:image/png,iVBORw0KGgoAAAANSUhEUgAAAFgAAABYCAYAAABxlTA0AAAAAXNSR0IArs4c6QAAAARnQU1BAACxjwv8YQUAAAAJcEhZcwAAFxEAABcRAcom8z8AAAikSURBVHhe7ZwJbBRVGMe3pUBrASkUlVMpV6EUQSlCCqhEjbYiIQEUETFyVEAr3hDwquCFVE2EYoTWCBTk8KgmiBfGqDEoRbkE5JByWW9UtJTC5/d/MwPD8na7OzOvu4vvS35pd3bezPS337735r039flSskijiKZZf2nBKtGCFaMFK0YLVowWrBgtWDFasGK0YMVowYrRghUTlYIbX8IX1lv+XqwRVYKb9SFfYiYlpPYlX1IP+T6xRtQIhlxfF2rf4wbasHE7jc57lF+nyfeVgYyPS+cyncWHJI4n26+uiQrBpty0jFzavfcAIU6cOEE33jY1NMnnXkoJLfrSkFH308hx0ykzeyT5knvK961rIi7YytxuOSz3oJBrxQlm+JiHapfcqCc1aXcFVR2tFuUK5y7hMh3l+9Y1ERV8WuaeLtcKSB5Rm2QW3Ljt5VT582+izKw5xbx/J/m+dU3EBFtyOXP3VBwSYhBHzSw8Wm38tCKoZC3YjwDVwosvv04LFr0tft+6fQ/d9eBs8TsCdXLA6kILtgG5cWa1UHFK7qLlq1lKGyoqXiVe7913iHz1utJtEx8TrxGoLqQNnxZsg7tQPfuNoH0HK4UMxOIV75GvQQZLuYhKSt8V2yr2/0gNL8jmbe1ofP5Msc2K2yc/Tr6G3U8dUwu2kdCVcoffLUQgFiNzIfeci1lKOhUveUdsh+DElv2N7hZnrF3yHPQSErrxxZt3e1qwDVH/duL+6gx6lbPVl8RiIdesl88Q3KiXIdLXge6Z/jy9ULRUVB3o+548phYsoSHfbTXgrznGHSAX2wIJxnuQjP2R7Xa5QAuW0BT4DegEEyzK8P7+ZYAWHCK1CQ6EFhwiWrBiIi0YjafV4Mred4IWbMLnzhkxhdp1v150JT2T/L8XzI1mHN/8jJ1cIMpu2rqTUtsMNLLZC8laMAvmu8LSVe+LsojyjdupuVeSdRXBNO5F8Uk9xC27FetZsshkt9WFFsxAIBo3vomxSy7fZEp2k8lasEkzBrftfLfon8muqgvHgnGyZL4gliImGj3h/JPDlW4Ez5hZxMdK9Tt2qFzItKEX5y+j48ePi+OJ6qKtQ8mOBfMnnX3tOCopfYezrswTFrLcHbsqxB/lRvD6b7fR3KKl4sMKm5I36CUuO2/hSvrn3ypxPAQavgsuGmRUJbJrCIRjwb6ONPn+Z8zTex8/saxwBDdhwX/+fcQsrSY+W7eREs7pceZgUzAcC45Pp+FjptL+A5Ui27xkHx/zy683GQPu3MJLz2+H90luPZDLbKadu/fR9/wtcAyX37FzL33DDVx19TFTLdERzubcYfkUl5QJafLrkOFYMPcf66VeRkmt+otM85IkRsiVnTcI9VL7ivURWBnkCC5bD3UsN5AYe64+Zgg+8k8VDcrN4+0dpOcNimPB4NzexldYBRgnlp0zGE24DMo5AWXF7MmFNOm+p4VYBORemTPemVzgSvDZBOpVXxrlP/ScqZZEIzcod4JzuUCJ4EAD49EKrpUl2uUa1YJLucBzwWgAMOPrPx0UrWAsIjGTpj8xz1RrNGhX5nggF3gqWGRCGk3i7hsWkPgSuUuDuk22b7RgCn7ltbeEXKNaMBs03N3JyoSDZ4JNuWPueFRcKGLB4jKKwyQl3pOViRaQBPytw6LBwSPv9SZzLTwRbModnfewqdaIcXcWGNVFOP3GSIBMbcKNHG6Fcb1eVmuuBZtyb817xNRqRMhre6MJFd80V4ItubZqARGTclXhWLAkc7H0dOjN9/H2tkanvZEb+GZDdt5giJsU2bE8wGl2OxJsyrU3aFVV1TQ2f6aYfsHIlluSMQYrO3cA4rgebcRlZMfyAtxKO5IctmA+CaZX8qbMMtUagYGRXXv2U+VPv4phQ7fgQRgxHhFKJnOGQe6Wbbulx/KCy9F1QyMoO38wwhbMNw+JKb1py/Y9plo1gQ8KAz+hCkaW/XH4L7O09zH4JnTfusjPHwxHVQRncOsOV9Fmzhgr0EF/oaiUZheWUCH/LJzngMJXafN3u8TxMGwZrmBkGgID7oW4Dtk5HNIla5izZ/ccCUY/MT6dWrYfRJtMIZhewSyAaOAEnZiOYdKC5hW7nzKaNaeEj9Xc79guQUPnpH/sSDAwJWMaxZKMWFH2EdfRmcanHe4FeTTpiYwLe9JTFY4FA0syZ7K9ulhZ9rEx8h+uZC1YgpDcVZrJDTDdE8qUj4UWHAB7dbHtlOQlK9dQXH3bsxS1oQUHwZSMhg9T7zU1x+n6YfnGg9my/WVowbUAydwZb99ziFgzIRZy6DrYQ8EAQtG41c8ITy7QghWjBStGC1ZMqIIxxW7vmYQi2L9MXRFTglGn4zWWmWJC1RIWTDDKYGwahNOj8YqYEoyV6Cxq+Zsf0LSCubx/B3N1UQDBkNsgg5LP60erP/yCRk14mLeH2bNxS8wIxjh0w+60jOVacecDz3KZNLGk9EzBLBJyWebaz9aL7Yhrhk42HiT3P7cqYkkw1i9MvOcp8b4VhuR2lNx6wEnBz+OBcV9rSm7ehz75vFxsQ2CNb1rX68Jf4+uGmKoiMP3vNw+ImDBllni4/FDlL+J1wewFFJ/YidZ+fipz123YSs1a8fGQvbqKCCAYoGFjybdwfWqPaQUv0e4fjH8JNr9kFa0oWyt+R6wr30opLbPrXi6IOcHAlDzaT3JNTY34if/vY8VXG76LnFwQrYKxyj2gYBBAsj2MzI1AtWAnugR3ptJVa4ScX38/HFwwsKqL8WdKRp0b0cy1iCrBLDOj3410NXelBuSMp/jmlxkSZftamJLtDd+68i2UEokGTUZUCYYM3G3FpxtyQl00aEqeMOVJ+vSLDZSCRSvRIBdElWA3QDKGSTHm4GTCVRVnjWAAyViGKnsvUpxVgqMRLVgxWrBitGDFaMGK0YIVowUrRgtWjBasGC1YMU2zjviEZY0isn78D43o8OjRWGtOAAAAAElFTkSuQmCC;" parent="1" vertex="1">
          <mxGeometry x="132" y="322.5" width="50" height="50" as="geometry" />
        </mxCell>
        <mxCell id="9zTi3nsKfj2Z9hqAuiEz-308" value="7" style="ellipse;whiteSpace=wrap;html=1;aspect=fixed;fontColor=#FFFFFF;fontSize=8;strokeColor=#98A2AE;fontFamily=Manrope;fontSource=https://fonts.googleapis.com/css?family=Manrope;fillColor=#BEC8D2;strokeWidth=1;" parent="1" vertex="1">
          <mxGeometry x="187" y="394.5" width="10" height="10" as="geometry" />
        </mxCell>
        <mxCell id="FVxrvMnGIzTMLyIdKREt-286" value="" style="shape=image;verticalLabelPosition=bottom;labelBackgroundColor=default;verticalAlign=top;aspect=fixed;imageAspect=0;image=data:image/png,iVBORw0KGgoAAAANSUhEUgAAAC8AAAAvCAMAAABE+WOeAAAAAXNSR0IArs4c6QAAAARnQU1BAACxjwv8YQUAAAGkUExURQAAAAAAAAAAAAAAgAAAAAAAVQAAQAAAMwAAJAAgQAAcOQAaMwAXLgAVKwAUOwAQMAAOOQANMwANQAALNwALNQAVNQAUMwAUMQATOQASNwASNQAQMQAQOgAPNgAPNQAPMwASNwARNAAPMgAPNAASMwASNgASNQARNwAOMwARNgARMgAQNwAQNAATNgAQNQASNAASMwARNgARNAASNQARNQAQNAAQNgAQNQARNQARNgAQNgAQNAASNQASNQARNAAQNAARNgARNQAPNQARNAARNAARNQASNAASNQAQNQASNQARNgAQNgARNQAQNQARNQARNAARNAARNAARNgARNAARNAARNQAQNQARNQARNQARNQARNQARNQAQNQASNQASNQAQNAAQNAAQNQAQNQARNQARNgASNQASNwASNQASNQASNgAQNgARNgAQNAARNAARNQARNQARNQAQNQARNQARNQARNQARNQARNQARNQAQNgAQNgAQNQARNQARNAASNQASNgARNQARNQARNgAQNAAQNQARNQASNwARNgARNwASNwASOAASOQASOopAWgUAAACGdFJOUwABAgIDAwQFBwgJCgsMDRASFBQXGBgZGhscHR8fISIjKixCVFVVVlhaWltdXl9gY2Roa3R4gICDiImNjo+RkpOTlJaXmJmdn6CgoaKjpKiytLW3vr+/wMDBwsTGy8vMzc7Oz8/V1dbX2drb29zc3N3e39/h4+Xm5+jp6u/z9/f5+/v9/f3+QNt0lgAAAAlwSFlzAAAXEQAAFxEByibzPwAAAZpJREFUSEvt1GVXwlAAxvGLKEwFxRZjKnZ3i60Y2IFiY/fA7o6LX1o8POgYF5i+9vfqv8tzdg5jB/LvL1SaMJQM0SU9Y5Oj3UVRuA4spHTr4cm+ZH+8XytU4CwATdv7TnUap+L4GuGtORKnfqlaqTkRnTLsbAn2NQrogBpJCDdE85F+6Da345Bf4vc3dUi2bFqFcquiuSi2vvMslFvm2SCKzbYYgXILX1hGsTlmEB6zewg2hwXhMXOAYPv1fgrhYdlFsPnsA90/Iqfx7sLY3vGjvfXypiHH+5F905np89HJlbfT42dqZv7GijraxOtTfPBNtJb1Xseu2kKR3kJtq7FIMV4woaRMAo8S4w9Fe2WS6MU3HbL3/ShCYowbxhg0If1B92Uf1FmGlrOvcL46y9Fy9skjLyPJaDl7knedh3KRsS++LUa5yNgb5gwoFxl7derPv4qffYbQi5LqFTJQYgnr0yip6fUElJiy672SU/niKt86ldh44a1UmF+RmndQazoWEvr6ccuElGW8Xo/Pfam1Gimt6EH9C4KQTyZ/ZrV7pqMkAAAAAElFTkSuQmCC;" vertex="1" parent="1">
          <mxGeometry x="143.75" y="500" width="26.5" height="26.5" as="geometry" />
        </mxCell>
        <mxCell id="FVxrvMnGIzTMLyIdKREt-287" value="" style="shape=image;verticalLabelPosition=bottom;labelBackgroundColor=default;verticalAlign=top;aspect=fixed;imageAspect=0;image=data:image/png,iVBORw0KGgoAAAANSUhEUgAAAC8AAAAvCAMAAABE+WOeAAAAAXNSR0IArs4c6QAAAARnQU1BAACxjwv8YQUAAAGkUExURQAAAAAAAAAAAAAAgAAAAAAAVQAAQAAAMwAAJAAgQAAcOQAaMwAXLgAVKwAUOwAQMAAOOQANMwANQAALNwALNQAVNQAUMwAUMQATOQASNwASNQAQMQAQOgAPNgAPNQAPMwASNwARNAAPMgAPNAASMwASNgASNQARNwAOMwARNgARMgAQNwAQNAATNgAQNQASNAASMwARNgARNAASNQARNQAQNAAQNgAQNQARNQARNgAQNgAQNAASNQASNQARNAAQNAARNgARNQAPNQARNAARNAARNQASNAASNQAQNQASNQARNgAQNgARNQAQNQARNQARNAARNAARNAARNgARNAARNAARNQAQNQARNQARNQARNQARNQARNQAQNQASNQASNQAQNAAQNAAQNQAQNQARNQARNgASNQASNwASNQASNQASNgAQNgARNgAQNAARNAARNQARNQARNQAQNQARNQARNQARNQARNQARNQARNQAQNgAQNgAQNQARNQARNAASNQASNgARNQARNQARNgAQNAAQNQARNQASNwARNgARNwASNwASOAASOQASOopAWgUAAACGdFJOUwABAgIDAwQFBwgJCgsMDRASFBQXGBgZGhscHR8fISIjKixCVFVVVlhaWltdXl9gY2Roa3R4gICDiImNjo+RkpOTlJaXmJmdn6CgoaKjpKiytLW3vr+/wMDBwsTGy8vMzc7Oz8/V1dbX2drb29zc3N3e39/h4+Xm5+jp6u/z9/f5+/v9/f3+QNt0lgAAAAlwSFlzAAAXEQAAFxEByibzPwAAAZpJREFUSEvt1GVXwlAAxvGLKEwFxRZjKnZ3i60Y2IFiY/fA7o6LX1o8POgYF5i+9vfqv8tzdg5jB/LvL1SaMJQM0SU9Y5Oj3UVRuA4spHTr4cm+ZH+8XytU4CwATdv7TnUap+L4GuGtORKnfqlaqTkRnTLsbAn2NQrogBpJCDdE85F+6Da345Bf4vc3dUi2bFqFcquiuSi2vvMslFvm2SCKzbYYgXILX1hGsTlmEB6zewg2hwXhMXOAYPv1fgrhYdlFsPnsA90/Iqfx7sLY3vGjvfXypiHH+5F905np89HJlbfT42dqZv7GijraxOtTfPBNtJb1Xseu2kKR3kJtq7FIMV4woaRMAo8S4w9Fe2WS6MU3HbL3/ShCYowbxhg0If1B92Uf1FmGlrOvcL46y9Fy9skjLyPJaDl7knedh3KRsS++LUa5yNgb5gwoFxl7derPv4qffYbQi5LqFTJQYgnr0yip6fUElJiy672SU/niKt86ldh44a1UmF+RmndQazoWEvr6ccuElGW8Xo/Pfam1Gimt6EH9C4KQTyZ/ZrV7pqMkAAAAAElFTkSuQmCC;" vertex="1" parent="1">
          <mxGeometry x="222.5" y="498.5" width="26.5" height="26.5" as="geometry" />
        </mxCell>
        <mxCell id="FVxrvMnGIzTMLyIdKREt-288" value="" style="shape=image;verticalLabelPosition=bottom;labelBackgroundColor=default;verticalAlign=top;aspect=fixed;imageAspect=0;image=data:image/png,iVBORw0KGgoAAAANSUhEUgAAAC8AAAAvCAMAAABE+WOeAAAAAXNSR0IArs4c6QAAAARnQU1BAACxjwv8YQUAAAGkUExURQAAAAAAAAAAAAAAgAAAAAAAVQAAQAAAMwAAJAAgQAAcOQAaMwAXLgAVKwAUOwAQMAAOOQANMwANQAALNwALNQAVNQAUMwAUMQATOQASNwASNQAQMQAQOgAPNgAPNQAPMwASNwARNAAPMgAPNAASMwASNgASNQARNwAOMwARNgARMgAQNwAQNAATNgAQNQASNAASMwARNgARNAASNQARNQAQNAAQNgAQNQARNQARNgAQNgAQNAASNQASNQARNAAQNAARNgARNQAPNQARNAARNAARNQASNAASNQAQNQASNQARNgAQNgARNQAQNQARNQARNAARNAARNAARNgARNAARNAARNQAQNQARNQARNQARNQARNQARNQAQNQASNQASNQAQNAAQNAAQNQAQNQARNQARNgASNQASNwASNQASNQASNgAQNgARNgAQNAARNAARNQARNQARNQAQNQARNQARNQARNQARNQARNQARNQAQNgAQNgAQNQARNQARNAASNQASNgARNQARNQARNgAQNAAQNQARNQASNwARNgARNwASNwASOAASOQASOopAWgUAAACGdFJOUwABAgIDAwQFBwgJCgsMDRASFBQXGBgZGhscHR8fISIjKixCVFVVVlhaWltdXl9gY2Roa3R4gICDiImNjo+RkpOTlJaXmJmdn6CgoaKjpKiytLW3vr+/wMDBwsTGy8vMzc7Oz8/V1dbX2drb29zc3N3e39/h4+Xm5+jp6u/z9/f5+/v9/f3+QNt0lgAAAAlwSFlzAAAXEQAAFxEByibzPwAAAZpJREFUSEvt1GVXwlAAxvGLKEwFxRZjKnZ3i60Y2IFiY/fA7o6LX1o8POgYF5i+9vfqv8tzdg5jB/LvL1SaMJQM0SU9Y5Oj3UVRuA4spHTr4cm+ZH+8XytU4CwATdv7TnUap+L4GuGtORKnfqlaqTkRnTLsbAn2NQrogBpJCDdE85F+6Da345Bf4vc3dUi2bFqFcquiuSi2vvMslFvm2SCKzbYYgXILX1hGsTlmEB6zewg2hwXhMXOAYPv1fgrhYdlFsPnsA90/Iqfx7sLY3vGjvfXypiHH+5F905np89HJlbfT42dqZv7GijraxOtTfPBNtJb1Xseu2kKR3kJtq7FIMV4woaRMAo8S4w9Fe2WS6MU3HbL3/ShCYowbxhg0If1B92Uf1FmGlrOvcL46y9Fy9skjLyPJaDl7knedh3KRsS++LUa5yNgb5gwoFxl7derPv4qffYbQi5LqFTJQYgnr0yip6fUElJiy672SU/niKt86ldh44a1UmF+RmndQazoWEvr6ccuElGW8Xo/Pfam1Gimt6EH9C4KQTyZ/ZrV7pqMkAAAAAElFTkSuQmCC;" vertex="1" parent="1">
          <mxGeometry x="269.5" y="498.5" width="26.5" height="26.5" as="geometry" />
        </mxCell>
        <mxCell id="FVxrvMnGIzTMLyIdKREt-289" value="" style="shape=image;verticalLabelPosition=bottom;labelBackgroundColor=default;verticalAlign=top;aspect=fixed;imageAspect=0;image=data:image/png,iVBORw0KGgoAAAANSUhEUgAAAC8AAAAvCAMAAABE+WOeAAAAAXNSR0IArs4c6QAAAARnQU1BAACxjwv8YQUAAAGkUExURQAAAAAAAAAAAAAAgAAAAAAAVQAAQAAAMwAAJAAgQAAcOQAaMwAXLgAVKwAUOwAQMAAOOQANMwANQAALNwALNQAVNQAUMwAUMQATOQASNwASNQAQMQAQOgAPNgAPNQAPMwASNwARNAAPMgAPNAASMwASNgASNQARNwAOMwARNgARMgAQNwAQNAATNgAQNQASNAASMwARNgARNAASNQARNQAQNAAQNgAQNQARNQARNgAQNgAQNAASNQASNQARNAAQNAARNgARNQAPNQARNAARNAARNQASNAASNQAQNQASNQARNgAQNgARNQAQNQARNQARNAARNAARNAARNgARNAARNAARNQAQNQARNQARNQARNQARNQARNQAQNQASNQASNQAQNAAQNAAQNQAQNQARNQARNgASNQASNwASNQASNQASNgAQNgARNgAQNAARNAARNQARNQARNQAQNQARNQARNQARNQARNQARNQARNQAQNgAQNgAQNQARNQARNAASNQASNgARNQARNQARNgAQNAAQNQARNQASNwARNgARNwASNwASOAASOQASOopAWgUAAACGdFJOUwABAgIDAwQFBwgJCgsMDRASFBQXGBgZGhscHR8fISIjKixCVFVVVlhaWltdXl9gY2Roa3R4gICDiImNjo+RkpOTlJaXmJmdn6CgoaKjpKiytLW3vr+/wMDBwsTGy8vMzc7Oz8/V1dbX2drb29zc3N3e39/h4+Xm5+jp6u/z9/f5+/v9/f3+QNt0lgAAAAlwSFlzAAAXEQAAFxEByibzPwAAAZpJREFUSEvt1GVXwlAAxvGLKEwFxRZjKnZ3i60Y2IFiY/fA7o6LX1o8POgYF5i+9vfqv8tzdg5jB/LvL1SaMJQM0SU9Y5Oj3UVRuA4spHTr4cm+ZH+8XytU4CwATdv7TnUap+L4GuGtORKnfqlaqTkRnTLsbAn2NQrogBpJCDdE85F+6Da345Bf4vc3dUi2bFqFcquiuSi2vvMslFvm2SCKzbYYgXILX1hGsTlmEB6zewg2hwXhMXOAYPv1fgrhYdlFsPnsA90/Iqfx7sLY3vGjvfXypiHH+5F905np89HJlbfT42dqZv7GijraxOtTfPBNtJb1Xseu2kKR3kJtq7FIMV4woaRMAo8S4w9Fe2WS6MU3HbL3/ShCYowbxhg0If1B92Uf1FmGlrOvcL46y9Fy9skjLyPJaDl7knedh3KRsS++LUa5yNgb5gwoFxl7derPv4qffYbQi5LqFTJQYgnr0yip6fUElJiy672SU/niKt86ldh44a1UmF+RmndQazoWEvr6ccuElGW8Xo/Pfam1Gimt6EH9C4KQTyZ/ZrV7pqMkAAAAAElFTkSuQmCC;" vertex="1" parent="1">
          <mxGeometry x="554.75" y="498.5" width="26.5" height="26.5" as="geometry" />
        </mxCell>
        <mxCell id="FVxrvMnGIzTMLyIdKREt-290" value="" style="shape=image;verticalLabelPosition=bottom;labelBackgroundColor=default;verticalAlign=top;aspect=fixed;imageAspect=0;image=data:image/png,iVBORw0KGgoAAAANSUhEUgAAAC8AAAAvCAMAAABE+WOeAAAAAXNSR0IArs4c6QAAAARnQU1BAACxjwv8YQUAAAGkUExURQAAAAAAAAAAAAAAgAAAAAAAVQAAQAAAMwAAJAAgQAAcOQAaMwAXLgAVKwAUOwAQMAAOOQANMwANQAALNwALNQAVNQAUMwAUMQATOQASNwASNQAQMQAQOgAPNgAPNQAPMwASNwARNAAPMgAPNAASMwASNgASNQARNwAOMwARNgARMgAQNwAQNAATNgAQNQASNAASMwARNgARNAASNQARNQAQNAAQNgAQNQARNQARNgAQNgAQNAASNQASNQARNAAQNAARNgARNQAPNQARNAARNAARNQASNAASNQAQNQASNQARNgAQNgARNQAQNQARNQARNAARNAARNAARNgARNAARNAARNQAQNQARNQARNQARNQARNQARNQAQNQASNQASNQAQNAAQNAAQNQAQNQARNQARNgASNQASNwASNQASNQASNgAQNgARNgAQNAARNAARNQARNQARNQAQNQARNQARNQARNQARNQARNQARNQAQNgAQNgAQNQARNQARNAASNQASNgARNQARNQARNgAQNAAQNQARNQASNwARNgARNwASNwASOAASOQASOopAWgUAAACGdFJOUwABAgIDAwQFBwgJCgsMDRASFBQXGBgZGhscHR8fISIjKixCVFVVVlhaWltdXl9gY2Roa3R4gICDiImNjo+RkpOTlJaXmJmdn6CgoaKjpKiytLW3vr+/wMDBwsTGy8vMzc7Oz8/V1dbX2drb29zc3N3e39/h4+Xm5+jp6u/z9/f5+/v9/f3+QNt0lgAAAAlwSFlzAAAXEQAAFxEByibzPwAAAZpJREFUSEvt1GVXwlAAxvGLKEwFxRZjKnZ3i60Y2IFiY/fA7o6LX1o8POgYF5i+9vfqv8tzdg5jB/LvL1SaMJQM0SU9Y5Oj3UVRuA4spHTr4cm+ZH+8XytU4CwATdv7TnUap+L4GuGtORKnfqlaqTkRnTLsbAn2NQrogBpJCDdE85F+6Da345Bf4vc3dUi2bFqFcquiuSi2vvMslFvm2SCKzbYYgXILX1hGsTlmEB6zewg2hwXhMXOAYPv1fgrhYdlFsPnsA90/Iqfx7sLY3vGjvfXypiHH+5F905np89HJlbfT42dqZv7GijraxOtTfPBNtJb1Xseu2kKR3kJtq7FIMV4woaRMAo8S4w9Fe2WS6MU3HbL3/ShCYowbxhg0If1B92Uf1FmGlrOvcL46y9Fy9skjLyPJaDl7knedh3KRsS++LUa5yNgb5gwoFxl7derPv4qffYbQi5LqFTJQYgnr0yip6fUElJiy672SU/niKt86ldh44a1UmF+RmndQazoWEvr6ccuElGW8Xo/Pfam1Gimt6EH9C4KQTyZ/ZrV7pqMkAAAAAElFTkSuQmCC;" vertex="1" parent="1">
          <mxGeometry x="507" y="498.5" width="26.5" height="26.5" as="geometry" />
        </mxCell>
        <mxCell id="FVxrvMnGIzTMLyIdKREt-291" value="" style="shape=image;verticalLabelPosition=bottom;labelBackgroundColor=default;verticalAlign=top;aspect=fixed;imageAspect=0;image=data:image/png,iVBORw0KGgoAAAANSUhEUgAAAC8AAAAvCAMAAABE+WOeAAAAAXNSR0IArs4c6QAAAARnQU1BAACxjwv8YQUAAAGkUExURQAAAAAAAAAAAAAAgAAAAAAAVQAAQAAAMwAAJAAgQAAcOQAaMwAXLgAVKwAUOwAQMAAOOQANMwANQAALNwALNQAVNQAUMwAUMQATOQASNwASNQAQMQAQOgAPNgAPNQAPMwASNwARNAAPMgAPNAASMwASNgASNQARNwAOMwARNgARMgAQNwAQNAATNgAQNQASNAASMwARNgARNAASNQARNQAQNAAQNgAQNQARNQARNgAQNgAQNAASNQASNQARNAAQNAARNgARNQAPNQARNAARNAARNQASNAASNQAQNQASNQARNgAQNgARNQAQNQARNQARNAARNAARNAARNgARNAARNAARNQAQNQARNQARNQARNQARNQARNQAQNQASNQASNQAQNAAQNAAQNQAQNQARNQARNgASNQASNwASNQASNQASNgAQNgARNgAQNAARNAARNQARNQARNQAQNQARNQARNQARNQARNQARNQARNQAQNgAQNgAQNQARNQARNAASNQASNgARNQARNQARNgAQNAAQNQARNQASNwARNgARNwASNwASOAASOQASOopAWgUAAACGdFJOUwABAgIDAwQFBwgJCgsMDRASFBQXGBgZGhscHR8fISIjKixCVFVVVlhaWltdXl9gY2Roa3R4gICDiImNjo+RkpOTlJaXmJmdn6CgoaKjpKiytLW3vr+/wMDBwsTGy8vMzc7Oz8/V1dbX2drb29zc3N3e39/h4+Xm5+jp6u/z9/f5+/v9/f3+QNt0lgAAAAlwSFlzAAAXEQAAFxEByibzPwAAAZpJREFUSEvt1GVXwlAAxvGLKEwFxRZjKnZ3i60Y2IFiY/fA7o6LX1o8POgYF5i+9vfqv8tzdg5jB/LvL1SaMJQM0SU9Y5Oj3UVRuA4spHTr4cm+ZH+8XytU4CwATdv7TnUap+L4GuGtORKnfqlaqTkRnTLsbAn2NQrogBpJCDdE85F+6Da345Bf4vc3dUi2bFqFcquiuSi2vvMslFvm2SCKzbYYgXILX1hGsTlmEB6zewg2hwXhMXOAYPv1fgrhYdlFsPnsA90/Iqfx7sLY3vGjvfXypiHH+5F905np89HJlbfT42dqZv7GijraxOtTfPBNtJb1Xseu2kKR3kJtq7FIMV4woaRMAo8S4w9Fe2WS6MU3HbL3/ShCYowbxhg0If1B92Uf1FmGlrOvcL46y9Fy9skjLyPJaDl7knedh3KRsS++LUa5yNgb5gwoFxl7derPv4qffYbQi5LqFTJQYgnr0yip6fUElJiy672SU/niKt86ldh44a1UmF+RmndQazoWEvr6ccuElGW8Xo/Pfam1Gimt6EH9C4KQTyZ/ZrV7pqMkAAAAAElFTkSuQmCC;" vertex="1" parent="1">
          <mxGeometry x="633" y="498.5" width="26.5" height="26.5" as="geometry" />
        </mxCell>
        <mxCell id="FVxrvMnGIzTMLyIdKREt-292" value="" style="shape=mxgraph.mockup.markup.redX;fillColor=#ff0000;html=1;shadow=0;whiteSpace=wrap;strokeColor=none;" vertex="1" parent="1">
          <mxGeometry x="289" y="502.92999999999995" width="15" height="20.65" as="geometry" />
        </mxCell>
        <mxCell id="FVxrvMnGIzTMLyIdKREt-296" value="" style="shape=mxgraph.mockup.markup.redX;fillColor=#ff0000;html=1;shadow=0;whiteSpace=wrap;strokeColor=none;" vertex="1" parent="1">
          <mxGeometry x="502" y="502.92999999999995" width="15" height="20.65" as="geometry" />
        </mxCell>
        <mxCell id="FVxrvMnGIzTMLyIdKREt-297" value="&lt;font color=&quot;#1a1a1a&quot;&gt;VLL 1001&lt;/font&gt;" style="rounded=1;whiteSpace=wrap;html=1;fontSize=8;strokeWidth=1;fillColor=#CCCCFF;strokeColor=none;fontColor=#FFFFFF;fontFamily=Manrope;fontSource=https%3A%2F%2Ffonts.googleapis.com%2Fcss%3Ffamily%3DManrope;spacing=0;" vertex="1" parent="1">
          <mxGeometry x="634" y="306.23" width="54" height="12" as="geometry" />
        </mxCell>
        <mxCell id="FVxrvMnGIzTMLyIdKREt-298" value="&lt;font color=&quot;#1a1a1a&quot;&gt;VLL 1001 =&amp;gt; ICMP in clear!!!&lt;/font&gt;" style="rounded=1;whiteSpace=wrap;html=1;fontSize=8;strokeWidth=1;fillColor=#CCCCFF;strokeColor=none;fontColor=#FFFFFF;fontFamily=Manrope;fontSource=https%3A%2F%2Ffonts.googleapis.com%2Fcss%3Ffamily%3DManrope;spacing=0;" vertex="1" parent="1">
          <mxGeometry x="283" y="306.58" width="242" height="12" as="geometry" />
        </mxCell>
        <mxCell id="FVxrvMnGIzTMLyIdKREt-299" value="" style="endArrow=none;dashed=1;html=1;rounded=0;exitX=0.937;exitY=0.438;exitDx=0;exitDy=0;exitPerimeter=0;entryX=0;entryY=0.5;entryDx=0;entryDy=0;strokeColor=#CCCCFF;" edge="1" parent="1" source="FVxrvMnGIzTMLyIdKREt-301" target="FVxrvMnGIzTMLyIdKREt-298">
          <mxGeometry width="50" height="50" relative="1" as="geometry">
            <mxPoint x="417" y="352" as="sourcePoint" />
            <mxPoint x="467" y="302" as="targetPoint" />
          </mxGeometry>
        </mxCell>
        <mxCell id="FVxrvMnGIzTMLyIdKREt-300" value="" style="endArrow=none;dashed=1;html=1;rounded=0;exitX=0;exitY=0.5;exitDx=0;exitDy=0;entryX=1;entryY=0.5;entryDx=0;entryDy=0;strokeColor=#CCCCFF;" edge="1" parent="1" source="FVxrvMnGIzTMLyIdKREt-297" target="FVxrvMnGIzTMLyIdKREt-298">
          <mxGeometry width="50" height="50" relative="1" as="geometry">
            <mxPoint x="185" y="322" as="sourcePoint" />
            <mxPoint x="293" y="323" as="targetPoint" />
          </mxGeometry>
        </mxCell>
        <mxCell id="FVxrvMnGIzTMLyIdKREt-301" value="&lt;font color=&quot;#1a1a1a&quot;&gt;VLL 1001&lt;/font&gt;" style="rounded=1;whiteSpace=wrap;html=1;fontSize=8;strokeWidth=1;fillColor=#CCCCFF;strokeColor=none;fontColor=#FFFFFF;fontFamily=Manrope;fontSource=https%3A%2F%2Ffonts.googleapis.com%2Fcss%3Ffamily%3DManrope;spacing=0;" vertex="1" parent="1">
          <mxGeometry x="127" y="306.5" width="51" height="12" as="geometry" />
        </mxCell>
      </root>
    </mxGraphModel>
  </diagram>
</mxfile>
